G04 #@! TF.GenerationSoftware,KiCad,Pcbnew,8.0.8*
G04 #@! TF.CreationDate,2025-03-22T13:31:19+00:00*
G04 #@! TF.ProjectId,ESP32adapt_PCB03,45535033-3261-4646-9170-745f50434230,rev?*
G04 #@! TF.SameCoordinates,Original*
G04 #@! TF.FileFunction,Copper,L1,Top*
G04 #@! TF.FilePolarity,Positive*
%FSLAX46Y46*%
G04 Gerber Fmt 4.6, Leading zero omitted, Abs format (unit mm)*
G04 Created by KiCad (PCBNEW 8.0.8) date 2025-03-22 13:31:19*
%MOMM*%
%LPD*%
G01*
G04 APERTURE LIST*
G04 Aperture macros list*
%AMRoundRect*
0 Rectangle with rounded corners*
0 $1 Rounding radius*
0 $2 $3 $4 $5 $6 $7 $8 $9 X,Y pos of 4 corners*
0 Add a 4 corners polygon primitive as box body*
4,1,4,$2,$3,$4,$5,$6,$7,$8,$9,$2,$3,0*
0 Add four circle primitives for the rounded corners*
1,1,$1+$1,$2,$3*
1,1,$1+$1,$4,$5*
1,1,$1+$1,$6,$7*
1,1,$1+$1,$8,$9*
0 Add four rect primitives between the rounded corners*
20,1,$1+$1,$2,$3,$4,$5,0*
20,1,$1+$1,$4,$5,$6,$7,0*
20,1,$1+$1,$6,$7,$8,$9,0*
20,1,$1+$1,$8,$9,$2,$3,0*%
G04 Aperture macros list end*
G04 #@! TA.AperFunction,ComponentPad*
%ADD10R,1.700000X1.700000*%
G04 #@! TD*
G04 #@! TA.AperFunction,ComponentPad*
%ADD11O,1.700000X1.700000*%
G04 #@! TD*
G04 #@! TA.AperFunction,ComponentPad*
%ADD12O,1.600000X1.600000*%
G04 #@! TD*
G04 #@! TA.AperFunction,ComponentPad*
%ADD13C,1.600000*%
G04 #@! TD*
G04 #@! TA.AperFunction,ComponentPad*
%ADD14RoundRect,0.250000X-0.750000X0.600000X-0.750000X-0.600000X0.750000X-0.600000X0.750000X0.600000X0*%
G04 #@! TD*
G04 #@! TA.AperFunction,ComponentPad*
%ADD15O,2.000000X1.700000*%
G04 #@! TD*
G04 #@! TA.AperFunction,ComponentPad*
%ADD16R,0.840000X0.840000*%
G04 #@! TD*
G04 #@! TA.AperFunction,ComponentPad*
%ADD17C,0.840000*%
G04 #@! TD*
G04 #@! TA.AperFunction,ComponentPad*
%ADD18O,1.850000X0.850000*%
G04 #@! TD*
G04 #@! TA.AperFunction,ComponentPad*
%ADD19R,1.600000X1.600000*%
G04 #@! TD*
G04 #@! TA.AperFunction,ComponentPad*
%ADD20R,1.800000X1.800000*%
G04 #@! TD*
G04 #@! TA.AperFunction,ComponentPad*
%ADD21C,1.800000*%
G04 #@! TD*
G04 #@! TA.AperFunction,ViaPad*
%ADD22C,0.800000*%
G04 #@! TD*
G04 #@! TA.AperFunction,Conductor*
%ADD23C,0.750000*%
G04 #@! TD*
G04 #@! TA.AperFunction,Conductor*
%ADD24C,0.250000*%
G04 #@! TD*
G04 APERTURE END LIST*
D10*
X42196000Y-93472000D03*
D11*
X42196000Y-96012000D03*
X42196000Y-98552000D03*
X42196000Y-101092000D03*
X42196000Y-103632000D03*
X42196000Y-106172000D03*
X42196000Y-108712000D03*
X42196000Y-111252000D03*
X42196000Y-113792000D03*
X42196000Y-116332000D03*
X42196000Y-118872000D03*
X42196000Y-121412000D03*
X42196000Y-123952000D03*
X42196000Y-126492000D03*
X42196000Y-129032000D03*
X42196000Y-131572000D03*
X42196000Y-134112000D03*
X42196000Y-136652000D03*
X42196000Y-139192000D03*
X72390000Y-129192000D03*
X72390000Y-126652000D03*
X72390000Y-124112000D03*
X72390000Y-121572000D03*
X72390000Y-119032000D03*
X72390000Y-116492000D03*
X72390000Y-113952000D03*
X72390000Y-111412000D03*
X72390000Y-108872000D03*
X72390000Y-106332000D03*
X72390000Y-103792000D03*
X72390000Y-101252000D03*
X72390000Y-98712000D03*
X72390000Y-96172000D03*
D10*
X72390000Y-93632000D03*
D12*
X38862000Y-122428000D03*
D13*
X38862000Y-112268000D03*
X38862000Y-109982000D03*
D12*
X38862000Y-99822000D03*
D13*
X38862000Y-125984000D03*
D12*
X38862000Y-136144000D03*
D11*
X67196000Y-139192000D03*
X67196000Y-136652000D03*
X67196000Y-134112000D03*
X67196000Y-131572000D03*
X67196000Y-129032000D03*
X67196000Y-126492000D03*
X67196000Y-123952000D03*
X67196000Y-121412000D03*
X67196000Y-118872000D03*
X67196000Y-116332000D03*
X67196000Y-113792000D03*
X67196000Y-111252000D03*
X67196000Y-108712000D03*
X67196000Y-106172000D03*
X67196000Y-103632000D03*
X67196000Y-101092000D03*
X67196000Y-98552000D03*
X67196000Y-96012000D03*
D10*
X67196000Y-93472000D03*
X72390000Y-145796000D03*
D11*
X69850000Y-145796000D03*
X67310000Y-145796000D03*
X64770000Y-145796000D03*
X62230000Y-145796000D03*
D10*
X49530000Y-93724000D03*
D11*
X49530000Y-96264000D03*
X49530000Y-98804000D03*
X49530000Y-101344000D03*
X49530000Y-103884000D03*
X49530000Y-106424000D03*
X49530000Y-108964000D03*
X49530000Y-111504000D03*
X49530000Y-114044000D03*
X49530000Y-116584000D03*
X49530000Y-119124000D03*
X49530000Y-121664000D03*
X49530000Y-124204000D03*
X49530000Y-126744000D03*
X49530000Y-129284000D03*
D10*
X33528000Y-96520000D03*
D11*
X36068000Y-96520000D03*
X38608000Y-96520000D03*
X38608000Y-93472000D03*
X36068000Y-93472000D03*
D10*
X33528000Y-93472000D03*
D11*
X62230000Y-149860000D03*
X64770000Y-149860000D03*
X67310000Y-149860000D03*
X69850000Y-149860000D03*
D10*
X72390000Y-149860000D03*
D14*
X34036000Y-102870000D03*
D15*
X34036000Y-105370000D03*
D16*
X33528000Y-126238000D03*
D17*
X34528000Y-125588000D03*
X33528000Y-124938000D03*
X34528000Y-124288000D03*
X33528000Y-123638000D03*
D18*
X33748000Y-128513000D03*
X33748000Y-121363000D03*
D15*
X34036000Y-115530000D03*
D14*
X34036000Y-113030000D03*
D19*
X39878000Y-148082000D03*
D13*
X33378000Y-148082000D03*
D10*
X34544000Y-86614000D03*
D11*
X37084000Y-86614000D03*
X39624000Y-86614000D03*
D10*
X51562000Y-86360000D03*
D11*
X54102000Y-86360000D03*
X56642000Y-86360000D03*
X59182000Y-86360000D03*
X61722000Y-86360000D03*
X64262000Y-86360000D03*
X66802000Y-86360000D03*
X69342000Y-86360000D03*
D20*
X34290000Y-132600000D03*
D21*
X34290000Y-135140000D03*
X34290000Y-137680000D03*
X34290000Y-140220000D03*
D10*
X45720000Y-149860000D03*
D11*
X48260000Y-149860000D03*
X50800000Y-149860000D03*
D10*
X72390000Y-136652000D03*
D11*
X72390000Y-139192000D03*
D22*
X38862000Y-116840000D03*
X38862000Y-120142000D03*
X61214000Y-91440000D03*
X72136000Y-88646000D03*
X46990000Y-136652000D03*
X62992000Y-103124000D03*
X45974000Y-129032000D03*
D23*
X38862000Y-116840000D02*
X38862000Y-120142000D01*
X69850000Y-145796000D02*
X69850000Y-149860000D01*
X36068000Y-96520000D02*
X36068000Y-93472000D01*
X52578000Y-93472000D02*
X54610000Y-91440000D01*
X54610000Y-91440000D02*
X61214000Y-91440000D01*
X67310000Y-145796000D02*
X67310000Y-149860000D01*
X67310000Y-145796000D02*
X67310000Y-144272000D01*
X67310000Y-144272000D02*
X69850000Y-141732000D01*
X69850000Y-141732000D02*
X69850000Y-134112000D01*
X69850000Y-134112000D02*
X70866000Y-133096000D01*
X70866000Y-133096000D02*
X71374000Y-133096000D01*
X72390000Y-132080000D02*
X72390000Y-129192000D01*
X71374000Y-133096000D02*
X72390000Y-132080000D01*
X52578000Y-117278081D02*
X52578000Y-116586000D01*
X50732081Y-119124000D02*
X52578000Y-117278081D01*
X49530000Y-119124000D02*
X50732081Y-119124000D01*
X52578000Y-117348000D02*
X52578000Y-116586000D01*
X52578000Y-116586000D02*
X52578000Y-93472000D01*
X42196000Y-93472000D02*
X42196000Y-89376000D01*
X42196000Y-89376000D02*
X47498000Y-84074000D01*
X47498000Y-84074000D02*
X64008000Y-84074000D01*
X64008000Y-84074000D02*
X71374000Y-84074000D01*
X71374000Y-84074000D02*
X72136000Y-84836000D01*
X72136000Y-84836000D02*
X72136000Y-88646000D01*
X38608000Y-96520000D02*
X38608000Y-93472000D01*
X38608000Y-93472000D02*
X42196000Y-93472000D01*
X32358000Y-126238000D02*
X30988000Y-126238000D01*
X33528000Y-126238000D02*
X32358000Y-126238000D01*
X32246000Y-115570000D02*
X30988000Y-115570000D01*
X32286000Y-115530000D02*
X32246000Y-115570000D01*
X34036000Y-115530000D02*
X32286000Y-115530000D01*
X30988000Y-126238000D02*
X30988000Y-115570000D01*
X32246000Y-105410000D02*
X30988000Y-105410000D01*
X32286000Y-105370000D02*
X32246000Y-105410000D01*
X34036000Y-105370000D02*
X32286000Y-105370000D01*
X30988000Y-115570000D02*
X30988000Y-105410000D01*
X30988000Y-105410000D02*
X30988000Y-96520000D01*
X72390000Y-145796000D02*
X72390000Y-149860000D01*
X46736000Y-136398000D02*
X46990000Y-136652000D01*
X46736000Y-130458081D02*
X46736000Y-136398000D01*
X49530000Y-129284000D02*
X47910081Y-129284000D01*
X47910081Y-129284000D02*
X46736000Y-130458081D01*
X40386000Y-139192000D02*
X42196000Y-139192000D01*
X36322000Y-143256000D02*
X40386000Y-139192000D01*
X33528000Y-143256000D02*
X36322000Y-143256000D01*
X30988000Y-126238000D02*
X30988000Y-140716000D01*
X30988000Y-140716000D02*
X33528000Y-143256000D01*
X33528000Y-96520000D02*
X33528000Y-93472000D01*
X33528000Y-96520000D02*
X30988000Y-96520000D01*
X37084000Y-89154000D02*
X37084000Y-86614000D01*
X33528000Y-93472000D02*
X33528000Y-92710000D01*
X33528000Y-92710000D02*
X37084000Y-89154000D01*
D24*
X67196000Y-131572000D02*
X70612000Y-131572000D01*
X70612000Y-120810000D02*
X72390000Y-119032000D01*
X70612000Y-131572000D02*
X70612000Y-120810000D01*
X70104000Y-118778000D02*
X72390000Y-116492000D01*
X70104000Y-128778000D02*
X70104000Y-118778000D01*
X67196000Y-129032000D02*
X69850000Y-129032000D01*
X69850000Y-129032000D02*
X70104000Y-128778000D01*
X69596000Y-116746000D02*
X72390000Y-113952000D01*
X69596000Y-123190000D02*
X69596000Y-116746000D01*
X67196000Y-123952000D02*
X68834000Y-123952000D01*
X68834000Y-123952000D02*
X69596000Y-123190000D01*
X67196000Y-121412000D02*
X69145990Y-119462010D01*
X71187919Y-111412000D02*
X71120000Y-111479919D01*
X72390000Y-111412000D02*
X71187919Y-111412000D01*
X71120000Y-111479919D02*
X71120000Y-113284000D01*
X70808010Y-113595990D02*
X70808010Y-113849990D01*
X71120000Y-113284000D02*
X70808010Y-113595990D01*
X70358000Y-114300000D02*
X70358000Y-115062000D01*
X70808010Y-113849990D02*
X70358000Y-114300000D01*
X70358000Y-115062000D02*
X69145990Y-116274010D01*
X69145990Y-119462010D02*
X69145990Y-116274010D01*
X69145990Y-116274010D02*
X69145990Y-116020010D01*
X69576000Y-93632000D02*
X67196000Y-96012000D01*
X72390000Y-93632000D02*
X69576000Y-93632000D01*
X43045999Y-129881999D02*
X43045999Y-129913999D01*
X42196000Y-129032000D02*
X43045999Y-129881999D01*
X43045999Y-129913999D02*
X43942000Y-130810000D01*
X43942000Y-142494000D02*
X43908000Y-142494000D01*
X36322000Y-102362000D02*
X38862000Y-99822000D01*
X36322000Y-132214000D02*
X36322000Y-102362000D01*
X35562792Y-137414000D02*
X37084000Y-135892792D01*
X37084000Y-124206000D02*
X38862000Y-122428000D01*
X37084000Y-135892792D02*
X37084000Y-124206000D01*
X54102000Y-88138000D02*
X54102000Y-86360000D01*
X53086000Y-89154000D02*
X54102000Y-88138000D01*
X43045999Y-97702001D02*
X43346001Y-97702001D01*
X42196000Y-98552000D02*
X43045999Y-97702001D01*
X43346001Y-97702001D02*
X44450000Y-96598002D01*
X44450000Y-96598002D02*
X44450000Y-90932000D01*
X44450000Y-90932000D02*
X46228000Y-89154000D01*
X46228000Y-89154000D02*
X53086000Y-89154000D01*
X43398081Y-101092000D02*
X45212000Y-99278081D01*
X42196000Y-101092000D02*
X43398081Y-101092000D01*
X45212000Y-99278081D02*
X45212000Y-91440000D01*
X45212000Y-91440000D02*
X46736000Y-89916000D01*
X46736000Y-89916000D02*
X55118000Y-89916000D01*
X56642000Y-88392000D02*
X56642000Y-86360000D01*
X55118000Y-89916000D02*
X56642000Y-88392000D01*
X43942000Y-130810000D02*
X43942000Y-142240000D01*
X43942000Y-142240000D02*
X43942000Y-142494000D01*
X43942000Y-144052000D02*
X43942000Y-142240000D01*
X39878000Y-148082000D02*
X39912000Y-148082000D01*
X39912000Y-148082000D02*
X43942000Y-144052000D01*
X35440000Y-132600000D02*
X35452000Y-132588000D01*
X34290000Y-132600000D02*
X35440000Y-132600000D01*
X35948000Y-132588000D02*
X36322000Y-132214000D01*
X35452000Y-132588000D02*
X35948000Y-132588000D01*
X34290000Y-137680000D02*
X35294000Y-137680000D01*
X35560000Y-137414000D02*
X35562792Y-137414000D01*
X35294000Y-137680000D02*
X35560000Y-137414000D01*
X38862000Y-138430000D02*
X38862000Y-136144000D01*
X34290000Y-140220000D02*
X37072000Y-140220000D01*
X37072000Y-140220000D02*
X38862000Y-138430000D01*
X62230000Y-149860000D02*
X62230000Y-145796000D01*
X62230000Y-145796000D02*
X62230000Y-103886000D01*
X62230000Y-103886000D02*
X62992000Y-103124000D01*
X51562000Y-87460000D02*
X51562000Y-86360000D01*
X50884000Y-88138000D02*
X51562000Y-87460000D01*
X42196000Y-96012000D02*
X43045999Y-95162001D01*
X43045999Y-95162001D02*
X43775999Y-95162001D01*
X43775999Y-95162001D02*
X43688000Y-95074002D01*
X43688000Y-95074002D02*
X43688000Y-90424000D01*
X43688000Y-90424000D02*
X45974000Y-88138000D01*
X45974000Y-88138000D02*
X50884000Y-88138000D01*
X71187919Y-103792000D02*
X71093919Y-103886000D01*
X72390000Y-103792000D02*
X71187919Y-103792000D01*
X71093919Y-103886000D02*
X70612000Y-103886000D01*
X70612000Y-103886000D02*
X70358000Y-104140000D01*
X70358000Y-104140000D02*
X70358000Y-113538000D01*
X69538010Y-114991580D02*
X68580000Y-115949590D01*
X70358000Y-113538000D02*
X69538010Y-114357990D01*
X69538010Y-114357990D02*
X69538010Y-114991580D01*
X68580000Y-115949590D02*
X68580000Y-117856000D01*
X68212000Y-117856000D02*
X67196000Y-118872000D01*
X68580000Y-117856000D02*
X68212000Y-117856000D01*
X71187919Y-101252000D02*
X71093919Y-101346000D01*
X72390000Y-101252000D02*
X71187919Y-101252000D01*
X71093919Y-101346000D02*
X69850000Y-101346000D01*
X69850000Y-101346000D02*
X69850000Y-113284000D01*
X69850000Y-113284000D02*
X69088000Y-114046000D01*
X69088000Y-114440000D02*
X67196000Y-116332000D01*
X69088000Y-114046000D02*
X69088000Y-114440000D01*
X71187919Y-98712000D02*
X71093919Y-98806000D01*
X72390000Y-98712000D02*
X71187919Y-98712000D01*
X71093919Y-98806000D02*
X69850000Y-98806000D01*
X68045999Y-112942001D02*
X67196000Y-113792000D01*
X69284010Y-111703990D02*
X68045999Y-112942001D01*
X69284010Y-99371990D02*
X69284010Y-111703990D01*
X69850000Y-98806000D02*
X69284010Y-99371990D01*
X68045999Y-110402001D02*
X67196000Y-111252000D01*
X68746001Y-110402001D02*
X68045999Y-110402001D01*
X72390000Y-96172000D02*
X71187919Y-96172000D01*
X71187919Y-96172000D02*
X71093919Y-96266000D01*
X71093919Y-96266000D02*
X70358000Y-96266000D01*
X70358000Y-96266000D02*
X68834000Y-97790000D01*
X68834000Y-97790000D02*
X68834000Y-110490000D01*
X68834000Y-110490000D02*
X68746001Y-110402001D01*
X40993919Y-111252000D02*
X40739919Y-110998000D01*
X42196000Y-111252000D02*
X40993919Y-111252000D01*
X39878000Y-110998000D02*
X38862000Y-109982000D01*
X40739919Y-110998000D02*
X39878000Y-110998000D01*
X40386000Y-113792000D02*
X38862000Y-112268000D01*
X42196000Y-113792000D02*
X40386000Y-113792000D01*
X40386000Y-118142000D02*
X42196000Y-116332000D01*
X38862000Y-125984000D02*
X40386000Y-124460000D01*
X40386000Y-124460000D02*
X40386000Y-118142000D01*
X45720000Y-148760000D02*
X45720000Y-149860000D01*
X45550000Y-148590000D02*
X45720000Y-148760000D01*
X45212000Y-148590000D02*
X45550000Y-148590000D01*
X45212000Y-124714000D02*
X45212000Y-148590000D01*
X44450000Y-123952000D02*
X45212000Y-124714000D01*
X42196000Y-123952000D02*
X44450000Y-123952000D01*
X42196000Y-121412000D02*
X45212000Y-121412000D01*
X45212000Y-121412000D02*
X45974000Y-122174000D01*
X45974000Y-122174000D02*
X45974000Y-129032000D01*
X64770000Y-149860000D02*
X64770000Y-145796000D01*
X64770000Y-145796000D02*
X64770000Y-106934000D01*
X65532000Y-106172000D02*
X67196000Y-106172000D01*
X64770000Y-106934000D02*
X65532000Y-106172000D01*
X69342000Y-86360000D02*
X69342000Y-87562081D01*
X69342000Y-87562081D02*
X68901919Y-87562081D01*
X68901919Y-87562081D02*
X65024000Y-91440000D01*
X65024000Y-98920000D02*
X67196000Y-101092000D01*
X65024000Y-91440000D02*
X65024000Y-98920000D01*
X65952001Y-87209999D02*
X65952001Y-87971999D01*
X66802000Y-86360000D02*
X65952001Y-87209999D01*
X65952001Y-87971999D02*
X63246000Y-90678000D01*
X63246000Y-99682000D02*
X67196000Y-103632000D01*
X63246000Y-90678000D02*
X63246000Y-99682000D01*
M02*
