G04 #@! TF.GenerationSoftware,KiCad,Pcbnew,8.0.8*
G04 #@! TF.CreationDate,2025-03-22T13:31:19+00:00*
G04 #@! TF.ProjectId,ESP32adapt_PCB03,45535033-3261-4646-9170-745f50434230,rev?*
G04 #@! TF.SameCoordinates,Original*
G04 #@! TF.FileFunction,Legend,Bot*
G04 #@! TF.FilePolarity,Positive*
%FSLAX46Y46*%
G04 Gerber Fmt 4.6, Leading zero omitted, Abs format (unit mm)*
G04 Created by KiCad (PCBNEW 8.0.8) date 2025-03-22 13:31:19*
%MOMM*%
%LPD*%
G01*
G04 APERTURE LIST*
G04 Aperture macros list*
%AMRoundRect*
0 Rectangle with rounded corners*
0 $1 Rounding radius*
0 $2 $3 $4 $5 $6 $7 $8 $9 X,Y pos of 4 corners*
0 Add a 4 corners polygon primitive as box body*
4,1,4,$2,$3,$4,$5,$6,$7,$8,$9,$2,$3,0*
0 Add four circle primitives for the rounded corners*
1,1,$1+$1,$2,$3*
1,1,$1+$1,$4,$5*
1,1,$1+$1,$6,$7*
1,1,$1+$1,$8,$9*
0 Add four rect primitives between the rounded corners*
20,1,$1+$1,$2,$3,$4,$5,0*
20,1,$1+$1,$4,$5,$6,$7,0*
20,1,$1+$1,$6,$7,$8,$9,0*
20,1,$1+$1,$8,$9,$2,$3,0*%
G04 Aperture macros list end*
%ADD10C,0.300000*%
%ADD11C,0.150000*%
%ADD12R,1.700000X1.700000*%
%ADD13O,1.700000X1.700000*%
%ADD14O,1.600000X1.600000*%
%ADD15C,1.600000*%
%ADD16RoundRect,0.250000X-0.750000X0.600000X-0.750000X-0.600000X0.750000X-0.600000X0.750000X0.600000X0*%
%ADD17O,2.000000X1.700000*%
%ADD18R,0.840000X0.840000*%
%ADD19C,0.840000*%
%ADD20O,1.850000X0.850000*%
%ADD21R,1.600000X1.600000*%
%ADD22R,1.800000X1.800000*%
%ADD23C,1.800000*%
G04 APERTURE END LIST*
D10*
X58640456Y-96481429D02*
X58735694Y-96262381D01*
X58735694Y-96262381D02*
X58735694Y-95824286D01*
X58735694Y-95824286D02*
X58640456Y-95605238D01*
X58640456Y-95605238D02*
X58545217Y-95495715D01*
X58545217Y-95495715D02*
X58354741Y-95386191D01*
X58354741Y-95386191D02*
X57783313Y-95386191D01*
X57783313Y-95386191D02*
X57592836Y-95495715D01*
X57592836Y-95495715D02*
X57497598Y-95605238D01*
X57497598Y-95605238D02*
X57402360Y-95824286D01*
X57402360Y-95824286D02*
X57402360Y-96262381D01*
X57402360Y-96262381D02*
X57497598Y-96481429D01*
X58735694Y-97795715D02*
X58640456Y-97576667D01*
X58640456Y-97576667D02*
X58545217Y-97467144D01*
X58545217Y-97467144D02*
X58354741Y-97357620D01*
X58354741Y-97357620D02*
X57783313Y-97357620D01*
X57783313Y-97357620D02*
X57592836Y-97467144D01*
X57592836Y-97467144D02*
X57497598Y-97576667D01*
X57497598Y-97576667D02*
X57402360Y-97795715D01*
X57402360Y-97795715D02*
X57402360Y-98124286D01*
X57402360Y-98124286D02*
X57497598Y-98343334D01*
X57497598Y-98343334D02*
X57592836Y-98452858D01*
X57592836Y-98452858D02*
X57783313Y-98562382D01*
X57783313Y-98562382D02*
X58354741Y-98562382D01*
X58354741Y-98562382D02*
X58545217Y-98452858D01*
X58545217Y-98452858D02*
X58640456Y-98343334D01*
X58640456Y-98343334D02*
X58735694Y-98124286D01*
X58735694Y-98124286D02*
X58735694Y-97795715D01*
X57402360Y-99548096D02*
X59402360Y-99548096D01*
X57497598Y-99548096D02*
X57402360Y-99767143D01*
X57402360Y-99767143D02*
X57402360Y-100205238D01*
X57402360Y-100205238D02*
X57497598Y-100424286D01*
X57497598Y-100424286D02*
X57592836Y-100533810D01*
X57592836Y-100533810D02*
X57783313Y-100643334D01*
X57783313Y-100643334D02*
X58354741Y-100643334D01*
X58354741Y-100643334D02*
X58545217Y-100533810D01*
X58545217Y-100533810D02*
X58640456Y-100424286D01*
X58640456Y-100424286D02*
X58735694Y-100205238D01*
X58735694Y-100205238D02*
X58735694Y-99767143D01*
X58735694Y-99767143D02*
X58640456Y-99548096D01*
X57402360Y-101410000D02*
X58735694Y-101957619D01*
X57402360Y-102505238D02*
X58735694Y-101957619D01*
X58735694Y-101957619D02*
X59211884Y-101738571D01*
X59211884Y-101738571D02*
X59307122Y-101629048D01*
X59307122Y-101629048D02*
X59402360Y-101410000D01*
X58735694Y-103381429D02*
X57402360Y-103381429D01*
X57783313Y-103381429D02*
X57592836Y-103490952D01*
X57592836Y-103490952D02*
X57497598Y-103600476D01*
X57497598Y-103600476D02*
X57402360Y-103819524D01*
X57402360Y-103819524D02*
X57402360Y-104038571D01*
X58735694Y-104805239D02*
X57402360Y-104805239D01*
X56735694Y-104805239D02*
X56830932Y-104695715D01*
X56830932Y-104695715D02*
X56926170Y-104805239D01*
X56926170Y-104805239D02*
X56830932Y-104914762D01*
X56830932Y-104914762D02*
X56735694Y-104805239D01*
X56735694Y-104805239D02*
X56926170Y-104805239D01*
X57402360Y-106886191D02*
X59021408Y-106886191D01*
X59021408Y-106886191D02*
X59211884Y-106776667D01*
X59211884Y-106776667D02*
X59307122Y-106667143D01*
X59307122Y-106667143D02*
X59402360Y-106448096D01*
X59402360Y-106448096D02*
X59402360Y-106119524D01*
X59402360Y-106119524D02*
X59307122Y-105900477D01*
X58640456Y-106886191D02*
X58735694Y-106667143D01*
X58735694Y-106667143D02*
X58735694Y-106229048D01*
X58735694Y-106229048D02*
X58640456Y-106010000D01*
X58640456Y-106010000D02*
X58545217Y-105900477D01*
X58545217Y-105900477D02*
X58354741Y-105790953D01*
X58354741Y-105790953D02*
X57783313Y-105790953D01*
X57783313Y-105790953D02*
X57592836Y-105900477D01*
X57592836Y-105900477D02*
X57497598Y-106010000D01*
X57497598Y-106010000D02*
X57402360Y-106229048D01*
X57402360Y-106229048D02*
X57402360Y-106667143D01*
X57402360Y-106667143D02*
X57497598Y-106886191D01*
X58735694Y-107981429D02*
X56735694Y-107981429D01*
X58735694Y-108967143D02*
X57688075Y-108967143D01*
X57688075Y-108967143D02*
X57497598Y-108857619D01*
X57497598Y-108857619D02*
X57402360Y-108638571D01*
X57402360Y-108638571D02*
X57402360Y-108310000D01*
X57402360Y-108310000D02*
X57497598Y-108090952D01*
X57497598Y-108090952D02*
X57592836Y-107981429D01*
X57402360Y-109733809D02*
X57402360Y-110610000D01*
X56735694Y-110062381D02*
X58449979Y-110062381D01*
X58449979Y-110062381D02*
X58640456Y-110171904D01*
X58640456Y-110171904D02*
X58735694Y-110390952D01*
X58735694Y-110390952D02*
X58735694Y-110610000D01*
X56926170Y-113019524D02*
X56830932Y-113129048D01*
X56830932Y-113129048D02*
X56735694Y-113348095D01*
X56735694Y-113348095D02*
X56735694Y-113895714D01*
X56735694Y-113895714D02*
X56830932Y-114114762D01*
X56830932Y-114114762D02*
X56926170Y-114224286D01*
X56926170Y-114224286D02*
X57116646Y-114333809D01*
X57116646Y-114333809D02*
X57307122Y-114333809D01*
X57307122Y-114333809D02*
X57592836Y-114224286D01*
X57592836Y-114224286D02*
X58735694Y-112910000D01*
X58735694Y-112910000D02*
X58735694Y-114333809D01*
X56735694Y-115757619D02*
X56735694Y-115976666D01*
X56735694Y-115976666D02*
X56830932Y-116195714D01*
X56830932Y-116195714D02*
X56926170Y-116305238D01*
X56926170Y-116305238D02*
X57116646Y-116414762D01*
X57116646Y-116414762D02*
X57497598Y-116524285D01*
X57497598Y-116524285D02*
X57973789Y-116524285D01*
X57973789Y-116524285D02*
X58354741Y-116414762D01*
X58354741Y-116414762D02*
X58545217Y-116305238D01*
X58545217Y-116305238D02*
X58640456Y-116195714D01*
X58640456Y-116195714D02*
X58735694Y-115976666D01*
X58735694Y-115976666D02*
X58735694Y-115757619D01*
X58735694Y-115757619D02*
X58640456Y-115538571D01*
X58640456Y-115538571D02*
X58545217Y-115429047D01*
X58545217Y-115429047D02*
X58354741Y-115319524D01*
X58354741Y-115319524D02*
X57973789Y-115210000D01*
X57973789Y-115210000D02*
X57497598Y-115210000D01*
X57497598Y-115210000D02*
X57116646Y-115319524D01*
X57116646Y-115319524D02*
X56926170Y-115429047D01*
X56926170Y-115429047D02*
X56830932Y-115538571D01*
X56830932Y-115538571D02*
X56735694Y-115757619D01*
X56926170Y-117400476D02*
X56830932Y-117510000D01*
X56830932Y-117510000D02*
X56735694Y-117729047D01*
X56735694Y-117729047D02*
X56735694Y-118276666D01*
X56735694Y-118276666D02*
X56830932Y-118495714D01*
X56830932Y-118495714D02*
X56926170Y-118605238D01*
X56926170Y-118605238D02*
X57116646Y-118714761D01*
X57116646Y-118714761D02*
X57307122Y-118714761D01*
X57307122Y-118714761D02*
X57592836Y-118605238D01*
X57592836Y-118605238D02*
X58735694Y-117290952D01*
X58735694Y-117290952D02*
X58735694Y-118714761D01*
X58735694Y-120905237D02*
X58735694Y-119590952D01*
X58735694Y-120248095D02*
X56735694Y-120248095D01*
X56735694Y-120248095D02*
X57021408Y-120029047D01*
X57021408Y-120029047D02*
X57211884Y-119809999D01*
X57211884Y-119809999D02*
X57307122Y-119590952D01*
X57973789Y-121890952D02*
X57973789Y-123643333D01*
X56926170Y-124629047D02*
X56830932Y-124738571D01*
X56830932Y-124738571D02*
X56735694Y-124957618D01*
X56735694Y-124957618D02*
X56735694Y-125505237D01*
X56735694Y-125505237D02*
X56830932Y-125724285D01*
X56830932Y-125724285D02*
X56926170Y-125833809D01*
X56926170Y-125833809D02*
X57116646Y-125943332D01*
X57116646Y-125943332D02*
X57307122Y-125943332D01*
X57307122Y-125943332D02*
X57592836Y-125833809D01*
X57592836Y-125833809D02*
X58735694Y-124519523D01*
X58735694Y-124519523D02*
X58735694Y-125943332D01*
X56735694Y-128024285D02*
X56735694Y-126929047D01*
X56735694Y-126929047D02*
X57688075Y-126819523D01*
X57688075Y-126819523D02*
X57592836Y-126929047D01*
X57592836Y-126929047D02*
X57497598Y-127148094D01*
X57497598Y-127148094D02*
X57497598Y-127695713D01*
X57497598Y-127695713D02*
X57592836Y-127914761D01*
X57592836Y-127914761D02*
X57688075Y-128024285D01*
X57688075Y-128024285D02*
X57878551Y-128133808D01*
X57878551Y-128133808D02*
X58354741Y-128133808D01*
X58354741Y-128133808D02*
X58545217Y-128024285D01*
X58545217Y-128024285D02*
X58640456Y-127914761D01*
X58640456Y-127914761D02*
X58735694Y-127695713D01*
X58735694Y-127695713D02*
X58735694Y-127148094D01*
X58735694Y-127148094D02*
X58640456Y-126929047D01*
X58640456Y-126929047D02*
X58545217Y-126819523D01*
X60050820Y-101629046D02*
X59955582Y-101409999D01*
X59955582Y-101409999D02*
X59955582Y-101081427D01*
X59955582Y-101081427D02*
X60050820Y-100752856D01*
X60050820Y-100752856D02*
X60241296Y-100533808D01*
X60241296Y-100533808D02*
X60431772Y-100424285D01*
X60431772Y-100424285D02*
X60812724Y-100314761D01*
X60812724Y-100314761D02*
X61098439Y-100314761D01*
X61098439Y-100314761D02*
X61479391Y-100424285D01*
X61479391Y-100424285D02*
X61669867Y-100533808D01*
X61669867Y-100533808D02*
X61860344Y-100752856D01*
X61860344Y-100752856D02*
X61955582Y-101081427D01*
X61955582Y-101081427D02*
X61955582Y-101300475D01*
X61955582Y-101300475D02*
X61860344Y-101629046D01*
X61860344Y-101629046D02*
X61765105Y-101738570D01*
X61765105Y-101738570D02*
X61098439Y-101738570D01*
X61098439Y-101738570D02*
X61098439Y-101300475D01*
X61860344Y-103600475D02*
X61955582Y-103381427D01*
X61955582Y-103381427D02*
X61955582Y-102943332D01*
X61955582Y-102943332D02*
X61860344Y-102724285D01*
X61860344Y-102724285D02*
X61669867Y-102614761D01*
X61669867Y-102614761D02*
X60907963Y-102614761D01*
X60907963Y-102614761D02*
X60717486Y-102724285D01*
X60717486Y-102724285D02*
X60622248Y-102943332D01*
X60622248Y-102943332D02*
X60622248Y-103381427D01*
X60622248Y-103381427D02*
X60717486Y-103600475D01*
X60717486Y-103600475D02*
X60907963Y-103709999D01*
X60907963Y-103709999D02*
X61098439Y-103709999D01*
X61098439Y-103709999D02*
X61288915Y-102614761D01*
X61955582Y-105024285D02*
X61860344Y-104805237D01*
X61860344Y-104805237D02*
X61765105Y-104695714D01*
X61765105Y-104695714D02*
X61574629Y-104586190D01*
X61574629Y-104586190D02*
X61003201Y-104586190D01*
X61003201Y-104586190D02*
X60812724Y-104695714D01*
X60812724Y-104695714D02*
X60717486Y-104805237D01*
X60717486Y-104805237D02*
X60622248Y-105024285D01*
X60622248Y-105024285D02*
X60622248Y-105352856D01*
X60622248Y-105352856D02*
X60717486Y-105571904D01*
X60717486Y-105571904D02*
X60812724Y-105681428D01*
X60812724Y-105681428D02*
X61003201Y-105790952D01*
X61003201Y-105790952D02*
X61574629Y-105790952D01*
X61574629Y-105790952D02*
X61765105Y-105681428D01*
X61765105Y-105681428D02*
X61860344Y-105571904D01*
X61860344Y-105571904D02*
X61955582Y-105352856D01*
X61955582Y-105352856D02*
X61955582Y-105024285D01*
X60622248Y-106448094D02*
X60622248Y-107324285D01*
X61955582Y-106776666D02*
X60241296Y-106776666D01*
X60241296Y-106776666D02*
X60050820Y-106886189D01*
X60050820Y-106886189D02*
X59955582Y-107105237D01*
X59955582Y-107105237D02*
X59955582Y-107324285D01*
X60622248Y-107762380D02*
X60622248Y-108638571D01*
X61955582Y-108090952D02*
X60241296Y-108090952D01*
X60241296Y-108090952D02*
X60050820Y-108200475D01*
X60050820Y-108200475D02*
X59955582Y-108419523D01*
X59955582Y-108419523D02*
X59955582Y-108638571D01*
X60907963Y-111924285D02*
X61003201Y-112252857D01*
X61003201Y-112252857D02*
X61098439Y-112362380D01*
X61098439Y-112362380D02*
X61288915Y-112471904D01*
X61288915Y-112471904D02*
X61574629Y-112471904D01*
X61574629Y-112471904D02*
X61765105Y-112362380D01*
X61765105Y-112362380D02*
X61860344Y-112252857D01*
X61860344Y-112252857D02*
X61955582Y-112033809D01*
X61955582Y-112033809D02*
X61955582Y-111157619D01*
X61955582Y-111157619D02*
X59955582Y-111157619D01*
X59955582Y-111157619D02*
X59955582Y-111924285D01*
X59955582Y-111924285D02*
X60050820Y-112143333D01*
X60050820Y-112143333D02*
X60146058Y-112252857D01*
X60146058Y-112252857D02*
X60336534Y-112362380D01*
X60336534Y-112362380D02*
X60527010Y-112362380D01*
X60527010Y-112362380D02*
X60717486Y-112252857D01*
X60717486Y-112252857D02*
X60812724Y-112143333D01*
X60812724Y-112143333D02*
X60907963Y-111924285D01*
X60907963Y-111924285D02*
X60907963Y-111157619D01*
X61955582Y-113457619D02*
X60622248Y-113457619D01*
X61003201Y-113457619D02*
X60812724Y-113567142D01*
X60812724Y-113567142D02*
X60717486Y-113676666D01*
X60717486Y-113676666D02*
X60622248Y-113895714D01*
X60622248Y-113895714D02*
X60622248Y-114114761D01*
X61955582Y-114881429D02*
X60622248Y-114881429D01*
X59955582Y-114881429D02*
X60050820Y-114771905D01*
X60050820Y-114771905D02*
X60146058Y-114881429D01*
X60146058Y-114881429D02*
X60050820Y-114990952D01*
X60050820Y-114990952D02*
X59955582Y-114881429D01*
X59955582Y-114881429D02*
X60146058Y-114881429D01*
X61860344Y-116962381D02*
X61955582Y-116743333D01*
X61955582Y-116743333D02*
X61955582Y-116305238D01*
X61955582Y-116305238D02*
X61860344Y-116086190D01*
X61860344Y-116086190D02*
X61765105Y-115976667D01*
X61765105Y-115976667D02*
X61574629Y-115867143D01*
X61574629Y-115867143D02*
X61003201Y-115867143D01*
X61003201Y-115867143D02*
X60812724Y-115976667D01*
X60812724Y-115976667D02*
X60717486Y-116086190D01*
X60717486Y-116086190D02*
X60622248Y-116305238D01*
X60622248Y-116305238D02*
X60622248Y-116743333D01*
X60622248Y-116743333D02*
X60717486Y-116962381D01*
X61955582Y-117948096D02*
X59955582Y-117948096D01*
X61193677Y-118167143D02*
X61955582Y-118824286D01*
X60622248Y-118824286D02*
X61384153Y-117948096D01*
X61860344Y-120686191D02*
X61955582Y-120467143D01*
X61955582Y-120467143D02*
X61955582Y-120029048D01*
X61955582Y-120029048D02*
X61860344Y-119810001D01*
X61860344Y-119810001D02*
X61669867Y-119700477D01*
X61669867Y-119700477D02*
X60907963Y-119700477D01*
X60907963Y-119700477D02*
X60717486Y-119810001D01*
X60717486Y-119810001D02*
X60622248Y-120029048D01*
X60622248Y-120029048D02*
X60622248Y-120467143D01*
X60622248Y-120467143D02*
X60717486Y-120686191D01*
X60717486Y-120686191D02*
X60907963Y-120795715D01*
X60907963Y-120795715D02*
X61098439Y-120795715D01*
X61098439Y-120795715D02*
X61288915Y-119700477D01*
X61955582Y-122110001D02*
X61860344Y-121890953D01*
X61860344Y-121890953D02*
X61669867Y-121781430D01*
X61669867Y-121781430D02*
X59955582Y-121781430D01*
X61955582Y-123314763D02*
X61860344Y-123095715D01*
X61860344Y-123095715D02*
X61669867Y-122986192D01*
X61669867Y-122986192D02*
X59955582Y-122986192D01*
D11*
X70812819Y-113230761D02*
X70146152Y-113230761D01*
X70241390Y-113230761D02*
X70193771Y-113278380D01*
X70193771Y-113278380D02*
X70146152Y-113373618D01*
X70146152Y-113373618D02*
X70146152Y-113516475D01*
X70146152Y-113516475D02*
X70193771Y-113611713D01*
X70193771Y-113611713D02*
X70289009Y-113659332D01*
X70289009Y-113659332D02*
X70812819Y-113659332D01*
X70289009Y-113659332D02*
X70193771Y-113706951D01*
X70193771Y-113706951D02*
X70146152Y-113802189D01*
X70146152Y-113802189D02*
X70146152Y-113945046D01*
X70146152Y-113945046D02*
X70193771Y-114040285D01*
X70193771Y-114040285D02*
X70289009Y-114087904D01*
X70289009Y-114087904D02*
X70812819Y-114087904D01*
X70812819Y-114706951D02*
X70765200Y-114611713D01*
X70765200Y-114611713D02*
X70717580Y-114564094D01*
X70717580Y-114564094D02*
X70622342Y-114516475D01*
X70622342Y-114516475D02*
X70336628Y-114516475D01*
X70336628Y-114516475D02*
X70241390Y-114564094D01*
X70241390Y-114564094D02*
X70193771Y-114611713D01*
X70193771Y-114611713D02*
X70146152Y-114706951D01*
X70146152Y-114706951D02*
X70146152Y-114849808D01*
X70146152Y-114849808D02*
X70193771Y-114945046D01*
X70193771Y-114945046D02*
X70241390Y-114992665D01*
X70241390Y-114992665D02*
X70336628Y-115040284D01*
X70336628Y-115040284D02*
X70622342Y-115040284D01*
X70622342Y-115040284D02*
X70717580Y-114992665D01*
X70717580Y-114992665D02*
X70765200Y-114945046D01*
X70765200Y-114945046D02*
X70812819Y-114849808D01*
X70812819Y-114849808D02*
X70812819Y-114706951D01*
X70146152Y-115325999D02*
X70146152Y-115706951D01*
X69812819Y-115468856D02*
X70669961Y-115468856D01*
X70669961Y-115468856D02*
X70765200Y-115516475D01*
X70765200Y-115516475D02*
X70812819Y-115611713D01*
X70812819Y-115611713D02*
X70812819Y-115706951D01*
X70812819Y-116183142D02*
X70765200Y-116087904D01*
X70765200Y-116087904D02*
X70717580Y-116040285D01*
X70717580Y-116040285D02*
X70622342Y-115992666D01*
X70622342Y-115992666D02*
X70336628Y-115992666D01*
X70336628Y-115992666D02*
X70241390Y-116040285D01*
X70241390Y-116040285D02*
X70193771Y-116087904D01*
X70193771Y-116087904D02*
X70146152Y-116183142D01*
X70146152Y-116183142D02*
X70146152Y-116325999D01*
X70146152Y-116325999D02*
X70193771Y-116421237D01*
X70193771Y-116421237D02*
X70241390Y-116468856D01*
X70241390Y-116468856D02*
X70336628Y-116516475D01*
X70336628Y-116516475D02*
X70622342Y-116516475D01*
X70622342Y-116516475D02*
X70717580Y-116468856D01*
X70717580Y-116468856D02*
X70765200Y-116421237D01*
X70765200Y-116421237D02*
X70812819Y-116325999D01*
X70812819Y-116325999D02*
X70812819Y-116183142D01*
X70812819Y-116945047D02*
X70146152Y-116945047D01*
X70336628Y-116945047D02*
X70241390Y-116992666D01*
X70241390Y-116992666D02*
X70193771Y-117040285D01*
X70193771Y-117040285D02*
X70146152Y-117135523D01*
X70146152Y-117135523D02*
X70146152Y-117230761D01*
X70765200Y-118278381D02*
X70812819Y-118373619D01*
X70812819Y-118373619D02*
X70812819Y-118564095D01*
X70812819Y-118564095D02*
X70765200Y-118659333D01*
X70765200Y-118659333D02*
X70669961Y-118706952D01*
X70669961Y-118706952D02*
X70622342Y-118706952D01*
X70622342Y-118706952D02*
X70527104Y-118659333D01*
X70527104Y-118659333D02*
X70479485Y-118564095D01*
X70479485Y-118564095D02*
X70479485Y-118421238D01*
X70479485Y-118421238D02*
X70431866Y-118326000D01*
X70431866Y-118326000D02*
X70336628Y-118278381D01*
X70336628Y-118278381D02*
X70289009Y-118278381D01*
X70289009Y-118278381D02*
X70193771Y-118326000D01*
X70193771Y-118326000D02*
X70146152Y-118421238D01*
X70146152Y-118421238D02*
X70146152Y-118564095D01*
X70146152Y-118564095D02*
X70193771Y-118659333D01*
X70812819Y-119135524D02*
X69812819Y-119135524D01*
X70812819Y-119564095D02*
X70289009Y-119564095D01*
X70289009Y-119564095D02*
X70193771Y-119516476D01*
X70193771Y-119516476D02*
X70146152Y-119421238D01*
X70146152Y-119421238D02*
X70146152Y-119278381D01*
X70146152Y-119278381D02*
X70193771Y-119183143D01*
X70193771Y-119183143D02*
X70241390Y-119135524D01*
X70812819Y-120040286D02*
X70146152Y-120040286D01*
X69812819Y-120040286D02*
X69860438Y-119992667D01*
X69860438Y-119992667D02*
X69908057Y-120040286D01*
X69908057Y-120040286D02*
X69860438Y-120087905D01*
X69860438Y-120087905D02*
X69812819Y-120040286D01*
X69812819Y-120040286D02*
X69908057Y-120040286D01*
X70765200Y-120897428D02*
X70812819Y-120802190D01*
X70812819Y-120802190D02*
X70812819Y-120611714D01*
X70812819Y-120611714D02*
X70765200Y-120516476D01*
X70765200Y-120516476D02*
X70669961Y-120468857D01*
X70669961Y-120468857D02*
X70289009Y-120468857D01*
X70289009Y-120468857D02*
X70193771Y-120516476D01*
X70193771Y-120516476D02*
X70146152Y-120611714D01*
X70146152Y-120611714D02*
X70146152Y-120802190D01*
X70146152Y-120802190D02*
X70193771Y-120897428D01*
X70193771Y-120897428D02*
X70289009Y-120945047D01*
X70289009Y-120945047D02*
X70384247Y-120945047D01*
X70384247Y-120945047D02*
X70479485Y-120468857D01*
X70812819Y-121516476D02*
X70765200Y-121421238D01*
X70765200Y-121421238D02*
X70669961Y-121373619D01*
X70669961Y-121373619D02*
X69812819Y-121373619D01*
X70812819Y-122326000D02*
X69812819Y-122326000D01*
X70765200Y-122326000D02*
X70812819Y-122230762D01*
X70812819Y-122230762D02*
X70812819Y-122040286D01*
X70812819Y-122040286D02*
X70765200Y-121945048D01*
X70765200Y-121945048D02*
X70717580Y-121897429D01*
X70717580Y-121897429D02*
X70622342Y-121849810D01*
X70622342Y-121849810D02*
X70336628Y-121849810D01*
X70336628Y-121849810D02*
X70241390Y-121897429D01*
X70241390Y-121897429D02*
X70193771Y-121945048D01*
X70193771Y-121945048D02*
X70146152Y-122040286D01*
X70146152Y-122040286D02*
X70146152Y-122230762D01*
X70146152Y-122230762D02*
X70193771Y-122326000D01*
X70812819Y-123564096D02*
X70146152Y-123564096D01*
X70336628Y-123564096D02*
X70241390Y-123611715D01*
X70241390Y-123611715D02*
X70193771Y-123659334D01*
X70193771Y-123659334D02*
X70146152Y-123754572D01*
X70146152Y-123754572D02*
X70146152Y-123849810D01*
X70812819Y-124183144D02*
X70146152Y-124183144D01*
X69812819Y-124183144D02*
X69860438Y-124135525D01*
X69860438Y-124135525D02*
X69908057Y-124183144D01*
X69908057Y-124183144D02*
X69860438Y-124230763D01*
X69860438Y-124230763D02*
X69812819Y-124183144D01*
X69812819Y-124183144D02*
X69908057Y-124183144D01*
X70146152Y-125087905D02*
X70955676Y-125087905D01*
X70955676Y-125087905D02*
X71050914Y-125040286D01*
X71050914Y-125040286D02*
X71098533Y-124992667D01*
X71098533Y-124992667D02*
X71146152Y-124897429D01*
X71146152Y-124897429D02*
X71146152Y-124754572D01*
X71146152Y-124754572D02*
X71098533Y-124659334D01*
X70765200Y-125087905D02*
X70812819Y-124992667D01*
X70812819Y-124992667D02*
X70812819Y-124802191D01*
X70812819Y-124802191D02*
X70765200Y-124706953D01*
X70765200Y-124706953D02*
X70717580Y-124659334D01*
X70717580Y-124659334D02*
X70622342Y-124611715D01*
X70622342Y-124611715D02*
X70336628Y-124611715D01*
X70336628Y-124611715D02*
X70241390Y-124659334D01*
X70241390Y-124659334D02*
X70193771Y-124706953D01*
X70193771Y-124706953D02*
X70146152Y-124802191D01*
X70146152Y-124802191D02*
X70146152Y-124992667D01*
X70146152Y-124992667D02*
X70193771Y-125087905D01*
X70812819Y-125564096D02*
X69812819Y-125564096D01*
X70812819Y-125992667D02*
X70289009Y-125992667D01*
X70289009Y-125992667D02*
X70193771Y-125945048D01*
X70193771Y-125945048D02*
X70146152Y-125849810D01*
X70146152Y-125849810D02*
X70146152Y-125706953D01*
X70146152Y-125706953D02*
X70193771Y-125611715D01*
X70193771Y-125611715D02*
X70241390Y-125564096D01*
X70146152Y-126326001D02*
X70146152Y-126706953D01*
X69812819Y-126468858D02*
X70669961Y-126468858D01*
X70669961Y-126468858D02*
X70765200Y-126516477D01*
X70765200Y-126516477D02*
X70812819Y-126611715D01*
X70812819Y-126611715D02*
X70812819Y-126706953D01*
X70146152Y-127802192D02*
X71146152Y-127802192D01*
X70193771Y-127802192D02*
X70146152Y-127897430D01*
X70146152Y-127897430D02*
X70146152Y-128087906D01*
X70146152Y-128087906D02*
X70193771Y-128183144D01*
X70193771Y-128183144D02*
X70241390Y-128230763D01*
X70241390Y-128230763D02*
X70336628Y-128278382D01*
X70336628Y-128278382D02*
X70622342Y-128278382D01*
X70622342Y-128278382D02*
X70717580Y-128230763D01*
X70717580Y-128230763D02*
X70765200Y-128183144D01*
X70765200Y-128183144D02*
X70812819Y-128087906D01*
X70812819Y-128087906D02*
X70812819Y-127897430D01*
X70812819Y-127897430D02*
X70765200Y-127802192D01*
X70812819Y-128706954D02*
X70146152Y-128706954D01*
X69812819Y-128706954D02*
X69860438Y-128659335D01*
X69860438Y-128659335D02*
X69908057Y-128706954D01*
X69908057Y-128706954D02*
X69860438Y-128754573D01*
X69860438Y-128754573D02*
X69812819Y-128706954D01*
X69812819Y-128706954D02*
X69908057Y-128706954D01*
X70146152Y-129183144D02*
X70812819Y-129183144D01*
X70241390Y-129183144D02*
X70193771Y-129230763D01*
X70193771Y-129230763D02*
X70146152Y-129326001D01*
X70146152Y-129326001D02*
X70146152Y-129468858D01*
X70146152Y-129468858D02*
X70193771Y-129564096D01*
X70193771Y-129564096D02*
X70289009Y-129611715D01*
X70289009Y-129611715D02*
X70812819Y-129611715D01*
X70765200Y-130040287D02*
X70812819Y-130135525D01*
X70812819Y-130135525D02*
X70812819Y-130326001D01*
X70812819Y-130326001D02*
X70765200Y-130421239D01*
X70765200Y-130421239D02*
X70669961Y-130468858D01*
X70669961Y-130468858D02*
X70622342Y-130468858D01*
X70622342Y-130468858D02*
X70527104Y-130421239D01*
X70527104Y-130421239D02*
X70479485Y-130326001D01*
X70479485Y-130326001D02*
X70479485Y-130183144D01*
X70479485Y-130183144D02*
X70431866Y-130087906D01*
X70431866Y-130087906D02*
X70336628Y-130040287D01*
X70336628Y-130040287D02*
X70289009Y-130040287D01*
X70289009Y-130040287D02*
X70193771Y-130087906D01*
X70193771Y-130087906D02*
X70146152Y-130183144D01*
X70146152Y-130183144D02*
X70146152Y-130326001D01*
X70146152Y-130326001D02*
X70193771Y-130421239D01*
X52016819Y-114308951D02*
X51350152Y-114308951D01*
X51445390Y-114308951D02*
X51397771Y-114356570D01*
X51397771Y-114356570D02*
X51350152Y-114451808D01*
X51350152Y-114451808D02*
X51350152Y-114594665D01*
X51350152Y-114594665D02*
X51397771Y-114689903D01*
X51397771Y-114689903D02*
X51493009Y-114737522D01*
X51493009Y-114737522D02*
X52016819Y-114737522D01*
X51493009Y-114737522D02*
X51397771Y-114785141D01*
X51397771Y-114785141D02*
X51350152Y-114880379D01*
X51350152Y-114880379D02*
X51350152Y-115023236D01*
X51350152Y-115023236D02*
X51397771Y-115118475D01*
X51397771Y-115118475D02*
X51493009Y-115166094D01*
X51493009Y-115166094D02*
X52016819Y-115166094D01*
X52016819Y-115785141D02*
X51969200Y-115689903D01*
X51969200Y-115689903D02*
X51921580Y-115642284D01*
X51921580Y-115642284D02*
X51826342Y-115594665D01*
X51826342Y-115594665D02*
X51540628Y-115594665D01*
X51540628Y-115594665D02*
X51445390Y-115642284D01*
X51445390Y-115642284D02*
X51397771Y-115689903D01*
X51397771Y-115689903D02*
X51350152Y-115785141D01*
X51350152Y-115785141D02*
X51350152Y-115927998D01*
X51350152Y-115927998D02*
X51397771Y-116023236D01*
X51397771Y-116023236D02*
X51445390Y-116070855D01*
X51445390Y-116070855D02*
X51540628Y-116118474D01*
X51540628Y-116118474D02*
X51826342Y-116118474D01*
X51826342Y-116118474D02*
X51921580Y-116070855D01*
X51921580Y-116070855D02*
X51969200Y-116023236D01*
X51969200Y-116023236D02*
X52016819Y-115927998D01*
X52016819Y-115927998D02*
X52016819Y-115785141D01*
X51350152Y-116404189D02*
X51350152Y-116785141D01*
X51016819Y-116547046D02*
X51873961Y-116547046D01*
X51873961Y-116547046D02*
X51969200Y-116594665D01*
X51969200Y-116594665D02*
X52016819Y-116689903D01*
X52016819Y-116689903D02*
X52016819Y-116785141D01*
X52016819Y-117261332D02*
X51969200Y-117166094D01*
X51969200Y-117166094D02*
X51921580Y-117118475D01*
X51921580Y-117118475D02*
X51826342Y-117070856D01*
X51826342Y-117070856D02*
X51540628Y-117070856D01*
X51540628Y-117070856D02*
X51445390Y-117118475D01*
X51445390Y-117118475D02*
X51397771Y-117166094D01*
X51397771Y-117166094D02*
X51350152Y-117261332D01*
X51350152Y-117261332D02*
X51350152Y-117404189D01*
X51350152Y-117404189D02*
X51397771Y-117499427D01*
X51397771Y-117499427D02*
X51445390Y-117547046D01*
X51445390Y-117547046D02*
X51540628Y-117594665D01*
X51540628Y-117594665D02*
X51826342Y-117594665D01*
X51826342Y-117594665D02*
X51921580Y-117547046D01*
X51921580Y-117547046D02*
X51969200Y-117499427D01*
X51969200Y-117499427D02*
X52016819Y-117404189D01*
X52016819Y-117404189D02*
X52016819Y-117261332D01*
X52016819Y-118023237D02*
X51350152Y-118023237D01*
X51540628Y-118023237D02*
X51445390Y-118070856D01*
X51445390Y-118070856D02*
X51397771Y-118118475D01*
X51397771Y-118118475D02*
X51350152Y-118213713D01*
X51350152Y-118213713D02*
X51350152Y-118308951D01*
X51969200Y-119356571D02*
X52016819Y-119451809D01*
X52016819Y-119451809D02*
X52016819Y-119642285D01*
X52016819Y-119642285D02*
X51969200Y-119737523D01*
X51969200Y-119737523D02*
X51873961Y-119785142D01*
X51873961Y-119785142D02*
X51826342Y-119785142D01*
X51826342Y-119785142D02*
X51731104Y-119737523D01*
X51731104Y-119737523D02*
X51683485Y-119642285D01*
X51683485Y-119642285D02*
X51683485Y-119499428D01*
X51683485Y-119499428D02*
X51635866Y-119404190D01*
X51635866Y-119404190D02*
X51540628Y-119356571D01*
X51540628Y-119356571D02*
X51493009Y-119356571D01*
X51493009Y-119356571D02*
X51397771Y-119404190D01*
X51397771Y-119404190D02*
X51350152Y-119499428D01*
X51350152Y-119499428D02*
X51350152Y-119642285D01*
X51350152Y-119642285D02*
X51397771Y-119737523D01*
X52016819Y-120213714D02*
X51016819Y-120213714D01*
X52016819Y-120642285D02*
X51493009Y-120642285D01*
X51493009Y-120642285D02*
X51397771Y-120594666D01*
X51397771Y-120594666D02*
X51350152Y-120499428D01*
X51350152Y-120499428D02*
X51350152Y-120356571D01*
X51350152Y-120356571D02*
X51397771Y-120261333D01*
X51397771Y-120261333D02*
X51445390Y-120213714D01*
X52016819Y-121118476D02*
X51350152Y-121118476D01*
X51016819Y-121118476D02*
X51064438Y-121070857D01*
X51064438Y-121070857D02*
X51112057Y-121118476D01*
X51112057Y-121118476D02*
X51064438Y-121166095D01*
X51064438Y-121166095D02*
X51016819Y-121118476D01*
X51016819Y-121118476D02*
X51112057Y-121118476D01*
X51969200Y-121975618D02*
X52016819Y-121880380D01*
X52016819Y-121880380D02*
X52016819Y-121689904D01*
X52016819Y-121689904D02*
X51969200Y-121594666D01*
X51969200Y-121594666D02*
X51873961Y-121547047D01*
X51873961Y-121547047D02*
X51493009Y-121547047D01*
X51493009Y-121547047D02*
X51397771Y-121594666D01*
X51397771Y-121594666D02*
X51350152Y-121689904D01*
X51350152Y-121689904D02*
X51350152Y-121880380D01*
X51350152Y-121880380D02*
X51397771Y-121975618D01*
X51397771Y-121975618D02*
X51493009Y-122023237D01*
X51493009Y-122023237D02*
X51588247Y-122023237D01*
X51588247Y-122023237D02*
X51683485Y-121547047D01*
X52016819Y-122594666D02*
X51969200Y-122499428D01*
X51969200Y-122499428D02*
X51873961Y-122451809D01*
X51873961Y-122451809D02*
X51016819Y-122451809D01*
X52016819Y-123404190D02*
X51016819Y-123404190D01*
X51969200Y-123404190D02*
X52016819Y-123308952D01*
X52016819Y-123308952D02*
X52016819Y-123118476D01*
X52016819Y-123118476D02*
X51969200Y-123023238D01*
X51969200Y-123023238D02*
X51921580Y-122975619D01*
X51921580Y-122975619D02*
X51826342Y-122928000D01*
X51826342Y-122928000D02*
X51540628Y-122928000D01*
X51540628Y-122928000D02*
X51445390Y-122975619D01*
X51445390Y-122975619D02*
X51397771Y-123023238D01*
X51397771Y-123023238D02*
X51350152Y-123118476D01*
X51350152Y-123118476D02*
X51350152Y-123308952D01*
X51350152Y-123308952D02*
X51397771Y-123404190D01*
X52016819Y-124785143D02*
X51969200Y-124689905D01*
X51969200Y-124689905D02*
X51873961Y-124642286D01*
X51873961Y-124642286D02*
X51016819Y-124642286D01*
X51969200Y-125547048D02*
X52016819Y-125451810D01*
X52016819Y-125451810D02*
X52016819Y-125261334D01*
X52016819Y-125261334D02*
X51969200Y-125166096D01*
X51969200Y-125166096D02*
X51873961Y-125118477D01*
X51873961Y-125118477D02*
X51493009Y-125118477D01*
X51493009Y-125118477D02*
X51397771Y-125166096D01*
X51397771Y-125166096D02*
X51350152Y-125261334D01*
X51350152Y-125261334D02*
X51350152Y-125451810D01*
X51350152Y-125451810D02*
X51397771Y-125547048D01*
X51397771Y-125547048D02*
X51493009Y-125594667D01*
X51493009Y-125594667D02*
X51588247Y-125594667D01*
X51588247Y-125594667D02*
X51683485Y-125118477D01*
X51350152Y-125880382D02*
X51350152Y-126261334D01*
X52016819Y-126023239D02*
X51159676Y-126023239D01*
X51159676Y-126023239D02*
X51064438Y-126070858D01*
X51064438Y-126070858D02*
X51016819Y-126166096D01*
X51016819Y-126166096D02*
X51016819Y-126261334D01*
X51350152Y-126451811D02*
X51350152Y-126832763D01*
X51016819Y-126594668D02*
X51873961Y-126594668D01*
X51873961Y-126594668D02*
X51969200Y-126642287D01*
X51969200Y-126642287D02*
X52016819Y-126737525D01*
X52016819Y-126737525D02*
X52016819Y-126832763D01*
X51350152Y-127928002D02*
X52350152Y-127928002D01*
X51397771Y-127928002D02*
X51350152Y-128023240D01*
X51350152Y-128023240D02*
X51350152Y-128213716D01*
X51350152Y-128213716D02*
X51397771Y-128308954D01*
X51397771Y-128308954D02*
X51445390Y-128356573D01*
X51445390Y-128356573D02*
X51540628Y-128404192D01*
X51540628Y-128404192D02*
X51826342Y-128404192D01*
X51826342Y-128404192D02*
X51921580Y-128356573D01*
X51921580Y-128356573D02*
X51969200Y-128308954D01*
X51969200Y-128308954D02*
X52016819Y-128213716D01*
X52016819Y-128213716D02*
X52016819Y-128023240D01*
X52016819Y-128023240D02*
X51969200Y-127928002D01*
X52016819Y-128832764D02*
X51350152Y-128832764D01*
X51016819Y-128832764D02*
X51064438Y-128785145D01*
X51064438Y-128785145D02*
X51112057Y-128832764D01*
X51112057Y-128832764D02*
X51064438Y-128880383D01*
X51064438Y-128880383D02*
X51016819Y-128832764D01*
X51016819Y-128832764D02*
X51112057Y-128832764D01*
X51350152Y-129308954D02*
X52016819Y-129308954D01*
X51445390Y-129308954D02*
X51397771Y-129356573D01*
X51397771Y-129356573D02*
X51350152Y-129451811D01*
X51350152Y-129451811D02*
X51350152Y-129594668D01*
X51350152Y-129594668D02*
X51397771Y-129689906D01*
X51397771Y-129689906D02*
X51493009Y-129737525D01*
X51493009Y-129737525D02*
X52016819Y-129737525D01*
X51969200Y-130166097D02*
X52016819Y-130261335D01*
X52016819Y-130261335D02*
X52016819Y-130451811D01*
X52016819Y-130451811D02*
X51969200Y-130547049D01*
X51969200Y-130547049D02*
X51873961Y-130594668D01*
X51873961Y-130594668D02*
X51826342Y-130594668D01*
X51826342Y-130594668D02*
X51731104Y-130547049D01*
X51731104Y-130547049D02*
X51683485Y-130451811D01*
X51683485Y-130451811D02*
X51683485Y-130308954D01*
X51683485Y-130308954D02*
X51635866Y-130213716D01*
X51635866Y-130213716D02*
X51540628Y-130166097D01*
X51540628Y-130166097D02*
X51493009Y-130166097D01*
X51493009Y-130166097D02*
X51397771Y-130213716D01*
X51397771Y-130213716D02*
X51350152Y-130308954D01*
X51350152Y-130308954D02*
X51350152Y-130451811D01*
X51350152Y-130451811D02*
X51397771Y-130547049D01*
%LPC*%
D12*
X42196000Y-93472000D03*
D13*
X42196000Y-96012000D03*
X42196000Y-98552000D03*
X42196000Y-101092000D03*
X42196000Y-103632000D03*
X42196000Y-106172000D03*
X42196000Y-108712000D03*
X42196000Y-111252000D03*
X42196000Y-113792000D03*
X42196000Y-116332000D03*
X42196000Y-118872000D03*
X42196000Y-121412000D03*
X42196000Y-123952000D03*
X42196000Y-126492000D03*
X42196000Y-129032000D03*
X42196000Y-131572000D03*
X42196000Y-134112000D03*
X42196000Y-136652000D03*
X42196000Y-139192000D03*
X72390000Y-129192000D03*
X72390000Y-126652000D03*
X72390000Y-124112000D03*
X72390000Y-121572000D03*
X72390000Y-119032000D03*
X72390000Y-116492000D03*
X72390000Y-113952000D03*
X72390000Y-111412000D03*
X72390000Y-108872000D03*
X72390000Y-106332000D03*
X72390000Y-103792000D03*
X72390000Y-101252000D03*
X72390000Y-98712000D03*
X72390000Y-96172000D03*
D12*
X72390000Y-93632000D03*
D14*
X38862000Y-122428000D03*
D15*
X38862000Y-112268000D03*
X38862000Y-109982000D03*
D14*
X38862000Y-99822000D03*
D15*
X38862000Y-125984000D03*
D14*
X38862000Y-136144000D03*
D13*
X67196000Y-139192000D03*
X67196000Y-136652000D03*
X67196000Y-134112000D03*
X67196000Y-131572000D03*
X67196000Y-129032000D03*
X67196000Y-126492000D03*
X67196000Y-123952000D03*
X67196000Y-121412000D03*
X67196000Y-118872000D03*
X67196000Y-116332000D03*
X67196000Y-113792000D03*
X67196000Y-111252000D03*
X67196000Y-108712000D03*
X67196000Y-106172000D03*
X67196000Y-103632000D03*
X67196000Y-101092000D03*
X67196000Y-98552000D03*
X67196000Y-96012000D03*
D12*
X67196000Y-93472000D03*
X72390000Y-145796000D03*
D13*
X69850000Y-145796000D03*
X67310000Y-145796000D03*
X64770000Y-145796000D03*
X62230000Y-145796000D03*
D12*
X49530000Y-93724000D03*
D13*
X49530000Y-96264000D03*
X49530000Y-98804000D03*
X49530000Y-101344000D03*
X49530000Y-103884000D03*
X49530000Y-106424000D03*
X49530000Y-108964000D03*
X49530000Y-111504000D03*
X49530000Y-114044000D03*
X49530000Y-116584000D03*
X49530000Y-119124000D03*
X49530000Y-121664000D03*
X49530000Y-124204000D03*
X49530000Y-126744000D03*
X49530000Y-129284000D03*
D12*
X33528000Y-96520000D03*
D13*
X36068000Y-96520000D03*
X38608000Y-96520000D03*
X38608000Y-93472000D03*
X36068000Y-93472000D03*
D12*
X33528000Y-93472000D03*
D13*
X62230000Y-149860000D03*
X64770000Y-149860000D03*
X67310000Y-149860000D03*
X69850000Y-149860000D03*
D12*
X72390000Y-149860000D03*
D16*
X34036000Y-102870000D03*
D17*
X34036000Y-105370000D03*
D18*
X33528000Y-126238000D03*
D19*
X34528000Y-125588000D03*
X33528000Y-124938000D03*
X34528000Y-124288000D03*
X33528000Y-123638000D03*
D20*
X33748000Y-128513000D03*
X33748000Y-121363000D03*
D17*
X34036000Y-115530000D03*
D16*
X34036000Y-113030000D03*
D21*
X39878000Y-148082000D03*
D15*
X33378000Y-148082000D03*
D12*
X34544000Y-86614000D03*
D13*
X37084000Y-86614000D03*
X39624000Y-86614000D03*
D12*
X51562000Y-86360000D03*
D13*
X54102000Y-86360000D03*
X56642000Y-86360000D03*
X59182000Y-86360000D03*
X61722000Y-86360000D03*
X64262000Y-86360000D03*
X66802000Y-86360000D03*
X69342000Y-86360000D03*
D22*
X34290000Y-132600000D03*
D23*
X34290000Y-135140000D03*
X34290000Y-137680000D03*
X34290000Y-140220000D03*
D12*
X45720000Y-149860000D03*
D13*
X48260000Y-149860000D03*
X50800000Y-149860000D03*
D12*
X72390000Y-136652000D03*
D13*
X72390000Y-139192000D03*
%LPD*%
M02*
