M48
; DRILL file {KiCad 8.0.8} date 2025-03-22T13:31:38+0000
; FORMAT={-:-/ absolute / metric / decimal}
; #@! TF.CreationDate,2025-03-22T13:31:38+00:00
; #@! TF.GenerationSoftware,Kicad,Pcbnew,8.0.8
; #@! TF.FileFunction,Plated,1,2,PTH
FMAT,2
METRIC
; #@! TA.AperFunction,Plated,PTH,ComponentDrill
T1C0.350
; #@! TA.AperFunction,Plated,PTH,ViaDrill
T2C0.400
; #@! TA.AperFunction,Plated,PTH,ComponentDrill
T3C0.440
; #@! TA.AperFunction,Plated,PTH,ComponentDrill
T4C0.800
; #@! TA.AperFunction,Plated,PTH,ComponentDrill
T5C0.900
; #@! TA.AperFunction,Plated,PTH,ComponentDrill
T6C1.000
%
G90
G05
T2
X38.862Y-116.84
X38.862Y-120.142
X45.974Y-129.032
X46.99Y-136.652
X61.214Y-91.44
X62.992Y-103.124
X72.136Y-88.646
T3
X33.528Y-123.638
X33.528Y-124.938
X33.528Y-126.238
X34.528Y-124.288
X34.528Y-125.588
T4
X38.862Y-99.822
X38.862Y-109.982
X38.862Y-112.268
X38.862Y-122.428
X38.862Y-125.984
X38.862Y-136.144
T5
X34.29Y-132.6
X34.29Y-135.14
X34.29Y-137.68
X34.29Y-140.22
T6
X33.378Y-148.082
X33.528Y-93.472
X33.528Y-96.52
X34.036Y-102.87
X34.036Y-105.37
X34.036Y-113.03
X34.036Y-115.53
X34.544Y-86.614
X36.068Y-93.472
X36.068Y-96.52
X37.084Y-86.614
X38.608Y-93.472
X38.608Y-96.52
X39.624Y-86.614
X39.878Y-148.082
X42.196Y-93.472
X42.196Y-96.012
X42.196Y-98.552
X42.196Y-101.092
X42.196Y-103.632
X42.196Y-106.172
X42.196Y-108.712
X42.196Y-111.252
X42.196Y-113.792
X42.196Y-116.332
X42.196Y-118.872
X42.196Y-121.412
X42.196Y-123.952
X42.196Y-126.492
X42.196Y-129.032
X42.196Y-131.572
X42.196Y-134.112
X42.196Y-136.652
X42.196Y-139.192
X45.72Y-149.86
X48.26Y-149.86
X49.53Y-93.724
X49.53Y-96.264
X49.53Y-98.804
X49.53Y-101.344
X49.53Y-103.884
X49.53Y-106.424
X49.53Y-108.964
X49.53Y-111.504
X49.53Y-114.044
X49.53Y-116.584
X49.53Y-119.124
X49.53Y-121.664
X49.53Y-124.204
X49.53Y-126.744
X49.53Y-129.284
X50.8Y-149.86
X51.562Y-86.36
X54.102Y-86.36
X56.642Y-86.36
X59.182Y-86.36
X61.722Y-86.36
X62.23Y-145.796
X62.23Y-149.86
X64.262Y-86.36
X64.77Y-145.796
X64.77Y-149.86
X66.802Y-86.36
X67.196Y-93.472
X67.196Y-96.012
X67.196Y-98.552
X67.196Y-101.092
X67.196Y-103.632
X67.196Y-106.172
X67.196Y-108.712
X67.196Y-111.252
X67.196Y-113.792
X67.196Y-116.332
X67.196Y-118.872
X67.196Y-121.412
X67.196Y-123.952
X67.196Y-126.492
X67.196Y-129.032
X67.196Y-131.572
X67.196Y-134.112
X67.196Y-136.652
X67.196Y-139.192
X67.31Y-145.796
X67.31Y-149.86
X69.342Y-86.36
X69.85Y-145.796
X69.85Y-149.86
X72.39Y-93.632
X72.39Y-96.172
X72.39Y-98.712
X72.39Y-101.252
X72.39Y-103.792
X72.39Y-106.332
X72.39Y-108.872
X72.39Y-111.412
X72.39Y-113.952
X72.39Y-116.492
X72.39Y-119.032
X72.39Y-121.572
X72.39Y-124.112
X72.39Y-126.652
X72.39Y-129.192
X72.39Y-136.652
X72.39Y-139.192
X72.39Y-145.796
X72.39Y-149.86
T1
X33.248Y-121.363G85X34.248Y-121.363
G05
X33.248Y-128.513G85X34.248Y-128.513
G05
M30
