G04 #@! TF.GenerationSoftware,KiCad,Pcbnew,8.0.8*
G04 #@! TF.CreationDate,2025-03-22T13:31:19+00:00*
G04 #@! TF.ProjectId,ESP32adapt_PCB03,45535033-3261-4646-9170-745f50434230,rev?*
G04 #@! TF.SameCoordinates,Original*
G04 #@! TF.FileFunction,Legend,Top*
G04 #@! TF.FilePolarity,Positive*
%FSLAX46Y46*%
G04 Gerber Fmt 4.6, Leading zero omitted, Abs format (unit mm)*
G04 Created by KiCad (PCBNEW 8.0.8) date 2025-03-22 13:31:19*
%MOMM*%
%LPD*%
G01*
G04 APERTURE LIST*
G04 Aperture macros list*
%AMRoundRect*
0 Rectangle with rounded corners*
0 $1 Rounding radius*
0 $2 $3 $4 $5 $6 $7 $8 $9 X,Y pos of 4 corners*
0 Add a 4 corners polygon primitive as box body*
4,1,4,$2,$3,$4,$5,$6,$7,$8,$9,$2,$3,0*
0 Add four circle primitives for the rounded corners*
1,1,$1+$1,$2,$3*
1,1,$1+$1,$4,$5*
1,1,$1+$1,$6,$7*
1,1,$1+$1,$8,$9*
0 Add four rect primitives between the rounded corners*
20,1,$1+$1,$2,$3,$4,$5,0*
20,1,$1+$1,$4,$5,$6,$7,0*
20,1,$1+$1,$6,$7,$8,$9,0*
20,1,$1+$1,$8,$9,$2,$3,0*%
G04 Aperture macros list end*
%ADD10C,0.300000*%
%ADD11C,0.175000*%
%ADD12C,0.225000*%
%ADD13C,0.400000*%
%ADD14C,0.150000*%
%ADD15C,0.120000*%
%ADD16R,1.700000X1.700000*%
%ADD17O,1.700000X1.700000*%
%ADD18O,1.600000X1.600000*%
%ADD19C,1.600000*%
%ADD20RoundRect,0.250000X-0.750000X0.600000X-0.750000X-0.600000X0.750000X-0.600000X0.750000X0.600000X0*%
%ADD21O,2.000000X1.700000*%
%ADD22R,0.840000X0.840000*%
%ADD23C,0.840000*%
%ADD24O,1.850000X0.850000*%
%ADD25R,1.600000X1.600000*%
%ADD26R,1.800000X1.800000*%
%ADD27C,1.800000*%
G04 APERTURE END LIST*
D10*
X47725142Y-91181757D02*
X48439428Y-91181757D01*
X47582285Y-91610328D02*
X48082285Y-90110328D01*
X48082285Y-90110328D02*
X48582285Y-91610328D01*
X49082284Y-91610328D02*
X49082284Y-90110328D01*
X49082284Y-90110328D02*
X49939427Y-91610328D01*
X49939427Y-91610328D02*
X49939427Y-90110328D01*
X50439428Y-90110328D02*
X51296571Y-90110328D01*
X50867999Y-91610328D02*
X50867999Y-90110328D01*
X51796570Y-90824614D02*
X52296570Y-90824614D01*
X52510856Y-91610328D02*
X51796570Y-91610328D01*
X51796570Y-91610328D02*
X51796570Y-90110328D01*
X51796570Y-90110328D02*
X52510856Y-90110328D01*
X53153713Y-91610328D02*
X53153713Y-90110328D01*
X53153713Y-90110328D02*
X54010856Y-91610328D01*
X54010856Y-91610328D02*
X54010856Y-90110328D01*
X54725142Y-91610328D02*
X54725142Y-90110328D01*
X54725142Y-90110328D02*
X55582285Y-91610328D01*
X55582285Y-91610328D02*
X55582285Y-90110328D01*
X56225143Y-91181757D02*
X56939429Y-91181757D01*
X56082286Y-91610328D02*
X56582286Y-90110328D01*
X56582286Y-90110328D02*
X57082286Y-91610328D01*
X58725142Y-90824614D02*
X59225142Y-90824614D01*
X59439428Y-91610328D02*
X58725142Y-91610328D01*
X58725142Y-91610328D02*
X58725142Y-90110328D01*
X58725142Y-90110328D02*
X59439428Y-90110328D01*
X60082285Y-91610328D02*
X60082285Y-90110328D01*
X60082285Y-90110328D02*
X60939428Y-91610328D01*
X60939428Y-91610328D02*
X60939428Y-90110328D01*
X61653714Y-91610328D02*
X61653714Y-90110328D01*
X61653714Y-90110328D02*
X62010857Y-90110328D01*
X62010857Y-90110328D02*
X62225143Y-90181757D01*
X62225143Y-90181757D02*
X62368000Y-90324614D01*
X62368000Y-90324614D02*
X62439429Y-90467471D01*
X62439429Y-90467471D02*
X62510857Y-90753185D01*
X62510857Y-90753185D02*
X62510857Y-90967471D01*
X62510857Y-90967471D02*
X62439429Y-91253185D01*
X62439429Y-91253185D02*
X62368000Y-91396042D01*
X62368000Y-91396042D02*
X62225143Y-91538900D01*
X62225143Y-91538900D02*
X62010857Y-91610328D01*
X62010857Y-91610328D02*
X61653714Y-91610328D01*
D11*
X50951995Y-84530066D02*
X51201995Y-84530066D01*
X51309138Y-84896733D02*
X50951995Y-84896733D01*
X50951995Y-84896733D02*
X50951995Y-84196733D01*
X50951995Y-84196733D02*
X51309138Y-84196733D01*
X51630566Y-84896733D02*
X51630566Y-84196733D01*
X51630566Y-84196733D02*
X52059137Y-84896733D01*
X52059137Y-84896733D02*
X52059137Y-84196733D01*
X53487709Y-84196733D02*
X53951995Y-84196733D01*
X53951995Y-84196733D02*
X53701995Y-84463400D01*
X53701995Y-84463400D02*
X53809138Y-84463400D01*
X53809138Y-84463400D02*
X53880567Y-84496733D01*
X53880567Y-84496733D02*
X53916281Y-84530066D01*
X53916281Y-84530066D02*
X53951995Y-84596733D01*
X53951995Y-84596733D02*
X53951995Y-84763400D01*
X53951995Y-84763400D02*
X53916281Y-84830066D01*
X53916281Y-84830066D02*
X53880567Y-84863400D01*
X53880567Y-84863400D02*
X53809138Y-84896733D01*
X53809138Y-84896733D02*
X53594852Y-84896733D01*
X53594852Y-84896733D02*
X53523424Y-84863400D01*
X53523424Y-84863400D02*
X53487709Y-84830066D01*
X54594853Y-84196733D02*
X54451995Y-84196733D01*
X54451995Y-84196733D02*
X54380567Y-84230066D01*
X54380567Y-84230066D02*
X54344853Y-84263400D01*
X54344853Y-84263400D02*
X54273424Y-84363400D01*
X54273424Y-84363400D02*
X54237710Y-84496733D01*
X54237710Y-84496733D02*
X54237710Y-84763400D01*
X54237710Y-84763400D02*
X54273424Y-84830066D01*
X54273424Y-84830066D02*
X54309138Y-84863400D01*
X54309138Y-84863400D02*
X54380567Y-84896733D01*
X54380567Y-84896733D02*
X54523424Y-84896733D01*
X54523424Y-84896733D02*
X54594853Y-84863400D01*
X54594853Y-84863400D02*
X54630567Y-84830066D01*
X54630567Y-84830066D02*
X54666281Y-84763400D01*
X54666281Y-84763400D02*
X54666281Y-84596733D01*
X54666281Y-84596733D02*
X54630567Y-84530066D01*
X54630567Y-84530066D02*
X54594853Y-84496733D01*
X54594853Y-84496733D02*
X54523424Y-84463400D01*
X54523424Y-84463400D02*
X54380567Y-84463400D01*
X54380567Y-84463400D02*
X54309138Y-84496733D01*
X54309138Y-84496733D02*
X54273424Y-84530066D01*
X54273424Y-84530066D02*
X54237710Y-84596733D01*
X56059139Y-84196733D02*
X56523425Y-84196733D01*
X56523425Y-84196733D02*
X56273425Y-84463400D01*
X56273425Y-84463400D02*
X56380568Y-84463400D01*
X56380568Y-84463400D02*
X56451997Y-84496733D01*
X56451997Y-84496733D02*
X56487711Y-84530066D01*
X56487711Y-84530066D02*
X56523425Y-84596733D01*
X56523425Y-84596733D02*
X56523425Y-84763400D01*
X56523425Y-84763400D02*
X56487711Y-84830066D01*
X56487711Y-84830066D02*
X56451997Y-84863400D01*
X56451997Y-84863400D02*
X56380568Y-84896733D01*
X56380568Y-84896733D02*
X56166282Y-84896733D01*
X56166282Y-84896733D02*
X56094854Y-84863400D01*
X56094854Y-84863400D02*
X56059139Y-84830066D01*
X56880568Y-84896733D02*
X57023425Y-84896733D01*
X57023425Y-84896733D02*
X57094854Y-84863400D01*
X57094854Y-84863400D02*
X57130568Y-84830066D01*
X57130568Y-84830066D02*
X57201997Y-84730066D01*
X57201997Y-84730066D02*
X57237711Y-84596733D01*
X57237711Y-84596733D02*
X57237711Y-84330066D01*
X57237711Y-84330066D02*
X57201997Y-84263400D01*
X57201997Y-84263400D02*
X57166283Y-84230066D01*
X57166283Y-84230066D02*
X57094854Y-84196733D01*
X57094854Y-84196733D02*
X56951997Y-84196733D01*
X56951997Y-84196733D02*
X56880568Y-84230066D01*
X56880568Y-84230066D02*
X56844854Y-84263400D01*
X56844854Y-84263400D02*
X56809140Y-84330066D01*
X56809140Y-84330066D02*
X56809140Y-84496733D01*
X56809140Y-84496733D02*
X56844854Y-84563400D01*
X56844854Y-84563400D02*
X56880568Y-84596733D01*
X56880568Y-84596733D02*
X56951997Y-84630066D01*
X56951997Y-84630066D02*
X57094854Y-84630066D01*
X57094854Y-84630066D02*
X57166283Y-84596733D01*
X57166283Y-84596733D02*
X57201997Y-84563400D01*
X57201997Y-84563400D02*
X57237711Y-84496733D01*
X58630569Y-84196733D02*
X59094855Y-84196733D01*
X59094855Y-84196733D02*
X58844855Y-84463400D01*
X58844855Y-84463400D02*
X58951998Y-84463400D01*
X58951998Y-84463400D02*
X59023427Y-84496733D01*
X59023427Y-84496733D02*
X59059141Y-84530066D01*
X59059141Y-84530066D02*
X59094855Y-84596733D01*
X59094855Y-84596733D02*
X59094855Y-84763400D01*
X59094855Y-84763400D02*
X59059141Y-84830066D01*
X59059141Y-84830066D02*
X59023427Y-84863400D01*
X59023427Y-84863400D02*
X58951998Y-84896733D01*
X58951998Y-84896733D02*
X58737712Y-84896733D01*
X58737712Y-84896733D02*
X58666284Y-84863400D01*
X58666284Y-84863400D02*
X58630569Y-84830066D01*
X59737713Y-84430066D02*
X59737713Y-84896733D01*
X59559141Y-84163400D02*
X59380570Y-84663400D01*
X59380570Y-84663400D02*
X59844855Y-84663400D01*
X61201999Y-84196733D02*
X61666285Y-84196733D01*
X61666285Y-84196733D02*
X61416285Y-84463400D01*
X61416285Y-84463400D02*
X61523428Y-84463400D01*
X61523428Y-84463400D02*
X61594857Y-84496733D01*
X61594857Y-84496733D02*
X61630571Y-84530066D01*
X61630571Y-84530066D02*
X61666285Y-84596733D01*
X61666285Y-84596733D02*
X61666285Y-84763400D01*
X61666285Y-84763400D02*
X61630571Y-84830066D01*
X61630571Y-84830066D02*
X61594857Y-84863400D01*
X61594857Y-84863400D02*
X61523428Y-84896733D01*
X61523428Y-84896733D02*
X61309142Y-84896733D01*
X61309142Y-84896733D02*
X61237714Y-84863400D01*
X61237714Y-84863400D02*
X61201999Y-84830066D01*
X62344857Y-84196733D02*
X61987714Y-84196733D01*
X61987714Y-84196733D02*
X61952000Y-84530066D01*
X61952000Y-84530066D02*
X61987714Y-84496733D01*
X61987714Y-84496733D02*
X62059143Y-84463400D01*
X62059143Y-84463400D02*
X62237714Y-84463400D01*
X62237714Y-84463400D02*
X62309143Y-84496733D01*
X62309143Y-84496733D02*
X62344857Y-84530066D01*
X62344857Y-84530066D02*
X62380571Y-84596733D01*
X62380571Y-84596733D02*
X62380571Y-84763400D01*
X62380571Y-84763400D02*
X62344857Y-84830066D01*
X62344857Y-84830066D02*
X62309143Y-84863400D01*
X62309143Y-84863400D02*
X62237714Y-84896733D01*
X62237714Y-84896733D02*
X62059143Y-84896733D01*
X62059143Y-84896733D02*
X61987714Y-84863400D01*
X61987714Y-84863400D02*
X61952000Y-84830066D01*
X63773429Y-84196733D02*
X64237715Y-84196733D01*
X64237715Y-84196733D02*
X63987715Y-84463400D01*
X63987715Y-84463400D02*
X64094858Y-84463400D01*
X64094858Y-84463400D02*
X64166287Y-84496733D01*
X64166287Y-84496733D02*
X64202001Y-84530066D01*
X64202001Y-84530066D02*
X64237715Y-84596733D01*
X64237715Y-84596733D02*
X64237715Y-84763400D01*
X64237715Y-84763400D02*
X64202001Y-84830066D01*
X64202001Y-84830066D02*
X64166287Y-84863400D01*
X64166287Y-84863400D02*
X64094858Y-84896733D01*
X64094858Y-84896733D02*
X63880572Y-84896733D01*
X63880572Y-84896733D02*
X63809144Y-84863400D01*
X63809144Y-84863400D02*
X63773429Y-84830066D01*
X64523430Y-84263400D02*
X64559144Y-84230066D01*
X64559144Y-84230066D02*
X64630573Y-84196733D01*
X64630573Y-84196733D02*
X64809144Y-84196733D01*
X64809144Y-84196733D02*
X64880573Y-84230066D01*
X64880573Y-84230066D02*
X64916287Y-84263400D01*
X64916287Y-84263400D02*
X64952001Y-84330066D01*
X64952001Y-84330066D02*
X64952001Y-84396733D01*
X64952001Y-84396733D02*
X64916287Y-84496733D01*
X64916287Y-84496733D02*
X64487715Y-84896733D01*
X64487715Y-84896733D02*
X64952001Y-84896733D01*
X66844859Y-84896733D02*
X66594859Y-84563400D01*
X66416288Y-84896733D02*
X66416288Y-84196733D01*
X66416288Y-84196733D02*
X66702002Y-84196733D01*
X66702002Y-84196733D02*
X66773431Y-84230066D01*
X66773431Y-84230066D02*
X66809145Y-84263400D01*
X66809145Y-84263400D02*
X66844859Y-84330066D01*
X66844859Y-84330066D02*
X66844859Y-84430066D01*
X66844859Y-84430066D02*
X66809145Y-84496733D01*
X66809145Y-84496733D02*
X66773431Y-84530066D01*
X66773431Y-84530066D02*
X66702002Y-84563400D01*
X66702002Y-84563400D02*
X66416288Y-84563400D01*
X67094859Y-84196733D02*
X67594859Y-84896733D01*
X67594859Y-84196733D02*
X67094859Y-84896733D01*
X68916289Y-84196733D02*
X69344861Y-84196733D01*
X69130575Y-84896733D02*
X69130575Y-84196733D01*
X69523432Y-84196733D02*
X70023432Y-84896733D01*
X70023432Y-84196733D02*
X69523432Y-84896733D01*
D12*
X39192286Y-88447514D02*
X39106572Y-88404657D01*
X39106572Y-88404657D02*
X38978000Y-88404657D01*
X38978000Y-88404657D02*
X38849429Y-88447514D01*
X38849429Y-88447514D02*
X38763714Y-88533228D01*
X38763714Y-88533228D02*
X38720857Y-88618942D01*
X38720857Y-88618942D02*
X38678000Y-88790371D01*
X38678000Y-88790371D02*
X38678000Y-88918942D01*
X38678000Y-88918942D02*
X38720857Y-89090371D01*
X38720857Y-89090371D02*
X38763714Y-89176085D01*
X38763714Y-89176085D02*
X38849429Y-89261800D01*
X38849429Y-89261800D02*
X38978000Y-89304657D01*
X38978000Y-89304657D02*
X39063714Y-89304657D01*
X39063714Y-89304657D02*
X39192286Y-89261800D01*
X39192286Y-89261800D02*
X39235143Y-89218942D01*
X39235143Y-89218942D02*
X39235143Y-88918942D01*
X39235143Y-88918942D02*
X39063714Y-88918942D01*
X39620857Y-89304657D02*
X39620857Y-88404657D01*
X39620857Y-88404657D02*
X40135143Y-89304657D01*
X40135143Y-89304657D02*
X40135143Y-88404657D01*
X40563714Y-89304657D02*
X40563714Y-88404657D01*
X40563714Y-88404657D02*
X40778000Y-88404657D01*
X40778000Y-88404657D02*
X40906571Y-88447514D01*
X40906571Y-88447514D02*
X40992286Y-88533228D01*
X40992286Y-88533228D02*
X41035143Y-88618942D01*
X41035143Y-88618942D02*
X41078000Y-88790371D01*
X41078000Y-88790371D02*
X41078000Y-88918942D01*
X41078000Y-88918942D02*
X41035143Y-89090371D01*
X41035143Y-89090371D02*
X40992286Y-89176085D01*
X40992286Y-89176085D02*
X40906571Y-89261800D01*
X40906571Y-89261800D02*
X40778000Y-89304657D01*
X40778000Y-89304657D02*
X40563714Y-89304657D01*
X36912571Y-88404657D02*
X36483999Y-88404657D01*
X36483999Y-88404657D02*
X36441142Y-88833228D01*
X36441142Y-88833228D02*
X36483999Y-88790371D01*
X36483999Y-88790371D02*
X36569714Y-88747514D01*
X36569714Y-88747514D02*
X36783999Y-88747514D01*
X36783999Y-88747514D02*
X36869714Y-88790371D01*
X36869714Y-88790371D02*
X36912571Y-88833228D01*
X36912571Y-88833228D02*
X36955428Y-88918942D01*
X36955428Y-88918942D02*
X36955428Y-89133228D01*
X36955428Y-89133228D02*
X36912571Y-89218942D01*
X36912571Y-89218942D02*
X36869714Y-89261800D01*
X36869714Y-89261800D02*
X36783999Y-89304657D01*
X36783999Y-89304657D02*
X36569714Y-89304657D01*
X36569714Y-89304657D02*
X36483999Y-89261800D01*
X36483999Y-89261800D02*
X36441142Y-89218942D01*
X37212571Y-88404657D02*
X37512571Y-89304657D01*
X37512571Y-89304657D02*
X37812571Y-88404657D01*
D10*
X49931428Y-141672328D02*
X49931428Y-142886614D01*
X49931428Y-142886614D02*
X50002857Y-143029471D01*
X50002857Y-143029471D02*
X50074286Y-143100900D01*
X50074286Y-143100900D02*
X50217143Y-143172328D01*
X50217143Y-143172328D02*
X50502857Y-143172328D01*
X50502857Y-143172328D02*
X50645714Y-143100900D01*
X50645714Y-143100900D02*
X50717143Y-143029471D01*
X50717143Y-143029471D02*
X50788571Y-142886614D01*
X50788571Y-142886614D02*
X50788571Y-141672328D01*
X51431429Y-143100900D02*
X51645715Y-143172328D01*
X51645715Y-143172328D02*
X52002857Y-143172328D01*
X52002857Y-143172328D02*
X52145715Y-143100900D01*
X52145715Y-143100900D02*
X52217143Y-143029471D01*
X52217143Y-143029471D02*
X52288572Y-142886614D01*
X52288572Y-142886614D02*
X52288572Y-142743757D01*
X52288572Y-142743757D02*
X52217143Y-142600900D01*
X52217143Y-142600900D02*
X52145715Y-142529471D01*
X52145715Y-142529471D02*
X52002857Y-142458042D01*
X52002857Y-142458042D02*
X51717143Y-142386614D01*
X51717143Y-142386614D02*
X51574286Y-142315185D01*
X51574286Y-142315185D02*
X51502857Y-142243757D01*
X51502857Y-142243757D02*
X51431429Y-142100900D01*
X51431429Y-142100900D02*
X51431429Y-141958042D01*
X51431429Y-141958042D02*
X51502857Y-141815185D01*
X51502857Y-141815185D02*
X51574286Y-141743757D01*
X51574286Y-141743757D02*
X51717143Y-141672328D01*
X51717143Y-141672328D02*
X52074286Y-141672328D01*
X52074286Y-141672328D02*
X52288572Y-141743757D01*
X53431428Y-142386614D02*
X53645714Y-142458042D01*
X53645714Y-142458042D02*
X53717143Y-142529471D01*
X53717143Y-142529471D02*
X53788571Y-142672328D01*
X53788571Y-142672328D02*
X53788571Y-142886614D01*
X53788571Y-142886614D02*
X53717143Y-143029471D01*
X53717143Y-143029471D02*
X53645714Y-143100900D01*
X53645714Y-143100900D02*
X53502857Y-143172328D01*
X53502857Y-143172328D02*
X52931428Y-143172328D01*
X52931428Y-143172328D02*
X52931428Y-141672328D01*
X52931428Y-141672328D02*
X53431428Y-141672328D01*
X53431428Y-141672328D02*
X53574286Y-141743757D01*
X53574286Y-141743757D02*
X53645714Y-141815185D01*
X53645714Y-141815185D02*
X53717143Y-141958042D01*
X53717143Y-141958042D02*
X53717143Y-142100900D01*
X53717143Y-142100900D02*
X53645714Y-142243757D01*
X53645714Y-142243757D02*
X53574286Y-142315185D01*
X53574286Y-142315185D02*
X53431428Y-142386614D01*
X53431428Y-142386614D02*
X52931428Y-142386614D01*
X55574285Y-142386614D02*
X56074285Y-142386614D01*
X56288571Y-143172328D02*
X55574285Y-143172328D01*
X55574285Y-143172328D02*
X55574285Y-141672328D01*
X55574285Y-141672328D02*
X56288571Y-141672328D01*
X56931428Y-143172328D02*
X56931428Y-141672328D01*
X56931428Y-141672328D02*
X57788571Y-143172328D01*
X57788571Y-143172328D02*
X57788571Y-141672328D01*
X58502857Y-143172328D02*
X58502857Y-141672328D01*
X58502857Y-141672328D02*
X58860000Y-141672328D01*
X58860000Y-141672328D02*
X59074286Y-141743757D01*
X59074286Y-141743757D02*
X59217143Y-141886614D01*
X59217143Y-141886614D02*
X59288572Y-142029471D01*
X59288572Y-142029471D02*
X59360000Y-142315185D01*
X59360000Y-142315185D02*
X59360000Y-142529471D01*
X59360000Y-142529471D02*
X59288572Y-142815185D01*
X59288572Y-142815185D02*
X59217143Y-142958042D01*
X59217143Y-142958042D02*
X59074286Y-143100900D01*
X59074286Y-143100900D02*
X58860000Y-143172328D01*
X58860000Y-143172328D02*
X58502857Y-143172328D01*
D13*
X56239642Y-133246000D02*
X56239642Y-132312667D01*
X57392023Y-131912667D02*
X57392023Y-133246000D01*
X57392023Y-133246000D02*
X55192023Y-133246000D01*
X55192023Y-133246000D02*
X55192023Y-131912667D01*
X57287262Y-130846000D02*
X57392023Y-130446000D01*
X57392023Y-130446000D02*
X57392023Y-129779334D01*
X57392023Y-129779334D02*
X57287262Y-129512667D01*
X57287262Y-129512667D02*
X57182500Y-129379334D01*
X57182500Y-129379334D02*
X56972976Y-129246000D01*
X56972976Y-129246000D02*
X56763452Y-129246000D01*
X56763452Y-129246000D02*
X56553928Y-129379334D01*
X56553928Y-129379334D02*
X56449166Y-129512667D01*
X56449166Y-129512667D02*
X56344404Y-129779334D01*
X56344404Y-129779334D02*
X56239642Y-130312667D01*
X56239642Y-130312667D02*
X56134881Y-130579334D01*
X56134881Y-130579334D02*
X56030119Y-130712667D01*
X56030119Y-130712667D02*
X55820595Y-130846000D01*
X55820595Y-130846000D02*
X55611071Y-130846000D01*
X55611071Y-130846000D02*
X55401547Y-130712667D01*
X55401547Y-130712667D02*
X55296785Y-130579334D01*
X55296785Y-130579334D02*
X55192023Y-130312667D01*
X55192023Y-130312667D02*
X55192023Y-129646000D01*
X55192023Y-129646000D02*
X55296785Y-129246000D01*
X57392023Y-128046000D02*
X55192023Y-128046000D01*
X55192023Y-128046000D02*
X55192023Y-126979333D01*
X55192023Y-126979333D02*
X55296785Y-126712667D01*
X55296785Y-126712667D02*
X55401547Y-126579333D01*
X55401547Y-126579333D02*
X55611071Y-126446000D01*
X55611071Y-126446000D02*
X55925357Y-126446000D01*
X55925357Y-126446000D02*
X56134881Y-126579333D01*
X56134881Y-126579333D02*
X56239642Y-126712667D01*
X56239642Y-126712667D02*
X56344404Y-126979333D01*
X56344404Y-126979333D02*
X56344404Y-128046000D01*
X56134881Y-124846000D02*
X56030119Y-125112667D01*
X56030119Y-125112667D02*
X55925357Y-125246000D01*
X55925357Y-125246000D02*
X55715833Y-125379333D01*
X55715833Y-125379333D02*
X55611071Y-125379333D01*
X55611071Y-125379333D02*
X55401547Y-125246000D01*
X55401547Y-125246000D02*
X55296785Y-125112667D01*
X55296785Y-125112667D02*
X55192023Y-124846000D01*
X55192023Y-124846000D02*
X55192023Y-124312667D01*
X55192023Y-124312667D02*
X55296785Y-124046000D01*
X55296785Y-124046000D02*
X55401547Y-123912667D01*
X55401547Y-123912667D02*
X55611071Y-123779333D01*
X55611071Y-123779333D02*
X55715833Y-123779333D01*
X55715833Y-123779333D02*
X55925357Y-123912667D01*
X55925357Y-123912667D02*
X56030119Y-124046000D01*
X56030119Y-124046000D02*
X56134881Y-124312667D01*
X56134881Y-124312667D02*
X56134881Y-124846000D01*
X56134881Y-124846000D02*
X56239642Y-125112667D01*
X56239642Y-125112667D02*
X56344404Y-125246000D01*
X56344404Y-125246000D02*
X56553928Y-125379333D01*
X56553928Y-125379333D02*
X56972976Y-125379333D01*
X56972976Y-125379333D02*
X57182500Y-125246000D01*
X57182500Y-125246000D02*
X57287262Y-125112667D01*
X57287262Y-125112667D02*
X57392023Y-124846000D01*
X57392023Y-124846000D02*
X57392023Y-124312667D01*
X57392023Y-124312667D02*
X57287262Y-124046000D01*
X57287262Y-124046000D02*
X57182500Y-123912667D01*
X57182500Y-123912667D02*
X56972976Y-123779333D01*
X56972976Y-123779333D02*
X56553928Y-123779333D01*
X56553928Y-123779333D02*
X56344404Y-123912667D01*
X56344404Y-123912667D02*
X56239642Y-124046000D01*
X56239642Y-124046000D02*
X56134881Y-124312667D01*
X55401547Y-122712666D02*
X55296785Y-122579333D01*
X55296785Y-122579333D02*
X55192023Y-122312666D01*
X55192023Y-122312666D02*
X55192023Y-121646000D01*
X55192023Y-121646000D02*
X55296785Y-121379333D01*
X55296785Y-121379333D02*
X55401547Y-121246000D01*
X55401547Y-121246000D02*
X55611071Y-121112666D01*
X55611071Y-121112666D02*
X55820595Y-121112666D01*
X55820595Y-121112666D02*
X56134881Y-121246000D01*
X56134881Y-121246000D02*
X57392023Y-122846000D01*
X57392023Y-122846000D02*
X57392023Y-121112666D01*
X55192023Y-118712666D02*
X55192023Y-119245999D01*
X55192023Y-119245999D02*
X55296785Y-119512666D01*
X55296785Y-119512666D02*
X55401547Y-119645999D01*
X55401547Y-119645999D02*
X55715833Y-119912666D01*
X55715833Y-119912666D02*
X56134881Y-120045999D01*
X56134881Y-120045999D02*
X56972976Y-120045999D01*
X56972976Y-120045999D02*
X57182500Y-119912666D01*
X57182500Y-119912666D02*
X57287262Y-119779333D01*
X57287262Y-119779333D02*
X57392023Y-119512666D01*
X57392023Y-119512666D02*
X57392023Y-118979333D01*
X57392023Y-118979333D02*
X57287262Y-118712666D01*
X57287262Y-118712666D02*
X57182500Y-118579333D01*
X57182500Y-118579333D02*
X56972976Y-118445999D01*
X56972976Y-118445999D02*
X56449166Y-118445999D01*
X56449166Y-118445999D02*
X56239642Y-118579333D01*
X56239642Y-118579333D02*
X56134881Y-118712666D01*
X56134881Y-118712666D02*
X56030119Y-118979333D01*
X56030119Y-118979333D02*
X56030119Y-119512666D01*
X56030119Y-119512666D02*
X56134881Y-119779333D01*
X56134881Y-119779333D02*
X56239642Y-119912666D01*
X56239642Y-119912666D02*
X56449166Y-120045999D01*
X55192023Y-116045999D02*
X55192023Y-116579332D01*
X55192023Y-116579332D02*
X55296785Y-116845999D01*
X55296785Y-116845999D02*
X55401547Y-116979332D01*
X55401547Y-116979332D02*
X55715833Y-117245999D01*
X55715833Y-117245999D02*
X56134881Y-117379332D01*
X56134881Y-117379332D02*
X56972976Y-117379332D01*
X56972976Y-117379332D02*
X57182500Y-117245999D01*
X57182500Y-117245999D02*
X57287262Y-117112666D01*
X57287262Y-117112666D02*
X57392023Y-116845999D01*
X57392023Y-116845999D02*
X57392023Y-116312666D01*
X57392023Y-116312666D02*
X57287262Y-116045999D01*
X57287262Y-116045999D02*
X57182500Y-115912666D01*
X57182500Y-115912666D02*
X56972976Y-115779332D01*
X56972976Y-115779332D02*
X56449166Y-115779332D01*
X56449166Y-115779332D02*
X56239642Y-115912666D01*
X56239642Y-115912666D02*
X56134881Y-116045999D01*
X56134881Y-116045999D02*
X56030119Y-116312666D01*
X56030119Y-116312666D02*
X56030119Y-116845999D01*
X56030119Y-116845999D02*
X56134881Y-117112666D01*
X56134881Y-117112666D02*
X56239642Y-117245999D01*
X56239642Y-117245999D02*
X56449166Y-117379332D01*
X56553928Y-112445999D02*
X56553928Y-110312666D01*
X56239642Y-106845999D02*
X56239642Y-105912666D01*
X57392023Y-105512666D02*
X57392023Y-106845999D01*
X57392023Y-106845999D02*
X55192023Y-106845999D01*
X55192023Y-106845999D02*
X55192023Y-105512666D01*
X57287262Y-104445999D02*
X57392023Y-104045999D01*
X57392023Y-104045999D02*
X57392023Y-103379333D01*
X57392023Y-103379333D02*
X57287262Y-103112666D01*
X57287262Y-103112666D02*
X57182500Y-102979333D01*
X57182500Y-102979333D02*
X56972976Y-102845999D01*
X56972976Y-102845999D02*
X56763452Y-102845999D01*
X56763452Y-102845999D02*
X56553928Y-102979333D01*
X56553928Y-102979333D02*
X56449166Y-103112666D01*
X56449166Y-103112666D02*
X56344404Y-103379333D01*
X56344404Y-103379333D02*
X56239642Y-103912666D01*
X56239642Y-103912666D02*
X56134881Y-104179333D01*
X56134881Y-104179333D02*
X56030119Y-104312666D01*
X56030119Y-104312666D02*
X55820595Y-104445999D01*
X55820595Y-104445999D02*
X55611071Y-104445999D01*
X55611071Y-104445999D02*
X55401547Y-104312666D01*
X55401547Y-104312666D02*
X55296785Y-104179333D01*
X55296785Y-104179333D02*
X55192023Y-103912666D01*
X55192023Y-103912666D02*
X55192023Y-103245999D01*
X55192023Y-103245999D02*
X55296785Y-102845999D01*
X57392023Y-101645999D02*
X55192023Y-101645999D01*
X55192023Y-101645999D02*
X55192023Y-100579332D01*
X55192023Y-100579332D02*
X55296785Y-100312666D01*
X55296785Y-100312666D02*
X55401547Y-100179332D01*
X55401547Y-100179332D02*
X55611071Y-100045999D01*
X55611071Y-100045999D02*
X55925357Y-100045999D01*
X55925357Y-100045999D02*
X56134881Y-100179332D01*
X56134881Y-100179332D02*
X56239642Y-100312666D01*
X56239642Y-100312666D02*
X56344404Y-100579332D01*
X56344404Y-100579332D02*
X56344404Y-101645999D01*
X55192023Y-99112666D02*
X55192023Y-97379332D01*
X55192023Y-97379332D02*
X56030119Y-98312666D01*
X56030119Y-98312666D02*
X56030119Y-97912666D01*
X56030119Y-97912666D02*
X56134881Y-97645999D01*
X56134881Y-97645999D02*
X56239642Y-97512666D01*
X56239642Y-97512666D02*
X56449166Y-97379332D01*
X56449166Y-97379332D02*
X56972976Y-97379332D01*
X56972976Y-97379332D02*
X57182500Y-97512666D01*
X57182500Y-97512666D02*
X57287262Y-97645999D01*
X57287262Y-97645999D02*
X57392023Y-97912666D01*
X57392023Y-97912666D02*
X57392023Y-98712666D01*
X57392023Y-98712666D02*
X57287262Y-98979332D01*
X57287262Y-98979332D02*
X57182500Y-99112666D01*
X55401547Y-96312665D02*
X55296785Y-96179332D01*
X55296785Y-96179332D02*
X55192023Y-95912665D01*
X55192023Y-95912665D02*
X55192023Y-95245999D01*
X55192023Y-95245999D02*
X55296785Y-94979332D01*
X55296785Y-94979332D02*
X55401547Y-94845999D01*
X55401547Y-94845999D02*
X55611071Y-94712665D01*
X55611071Y-94712665D02*
X55820595Y-94712665D01*
X55820595Y-94712665D02*
X56134881Y-94845999D01*
X56134881Y-94845999D02*
X57392023Y-96445999D01*
X57392023Y-96445999D02*
X57392023Y-94712665D01*
X60933900Y-133379331D02*
X59467234Y-133379331D01*
X59886281Y-133379331D02*
X59676758Y-133245998D01*
X59676758Y-133245998D02*
X59571996Y-133112664D01*
X59571996Y-133112664D02*
X59467234Y-132845998D01*
X59467234Y-132845998D02*
X59467234Y-132579331D01*
X60933900Y-131245998D02*
X60829139Y-131512665D01*
X60829139Y-131512665D02*
X60724377Y-131645998D01*
X60724377Y-131645998D02*
X60514853Y-131779331D01*
X60514853Y-131779331D02*
X59886281Y-131779331D01*
X59886281Y-131779331D02*
X59676758Y-131645998D01*
X59676758Y-131645998D02*
X59571996Y-131512665D01*
X59571996Y-131512665D02*
X59467234Y-131245998D01*
X59467234Y-131245998D02*
X59467234Y-130845998D01*
X59467234Y-130845998D02*
X59571996Y-130579331D01*
X59571996Y-130579331D02*
X59676758Y-130445998D01*
X59676758Y-130445998D02*
X59886281Y-130312665D01*
X59886281Y-130312665D02*
X60514853Y-130312665D01*
X60514853Y-130312665D02*
X60724377Y-130445998D01*
X60724377Y-130445998D02*
X60829139Y-130579331D01*
X60829139Y-130579331D02*
X60933900Y-130845998D01*
X60933900Y-130845998D02*
X60933900Y-131245998D01*
X60933900Y-129112665D02*
X58733900Y-129112665D01*
X59571996Y-129112665D02*
X59467234Y-128845998D01*
X59467234Y-128845998D02*
X59467234Y-128312665D01*
X59467234Y-128312665D02*
X59571996Y-128045998D01*
X59571996Y-128045998D02*
X59676758Y-127912665D01*
X59676758Y-127912665D02*
X59886281Y-127779332D01*
X59886281Y-127779332D02*
X60514853Y-127779332D01*
X60514853Y-127779332D02*
X60724377Y-127912665D01*
X60724377Y-127912665D02*
X60829139Y-128045998D01*
X60829139Y-128045998D02*
X60933900Y-128312665D01*
X60933900Y-128312665D02*
X60933900Y-128845998D01*
X60933900Y-128845998D02*
X60829139Y-129112665D01*
X60933900Y-126179332D02*
X60829139Y-126445999D01*
X60829139Y-126445999D02*
X60724377Y-126579332D01*
X60724377Y-126579332D02*
X60514853Y-126712665D01*
X60514853Y-126712665D02*
X59886281Y-126712665D01*
X59886281Y-126712665D02*
X59676758Y-126579332D01*
X59676758Y-126579332D02*
X59571996Y-126445999D01*
X59571996Y-126445999D02*
X59467234Y-126179332D01*
X59467234Y-126179332D02*
X59467234Y-125779332D01*
X59467234Y-125779332D02*
X59571996Y-125512665D01*
X59571996Y-125512665D02*
X59676758Y-125379332D01*
X59676758Y-125379332D02*
X59886281Y-125245999D01*
X59886281Y-125245999D02*
X60514853Y-125245999D01*
X60514853Y-125245999D02*
X60724377Y-125379332D01*
X60724377Y-125379332D02*
X60829139Y-125512665D01*
X60829139Y-125512665D02*
X60933900Y-125779332D01*
X60933900Y-125779332D02*
X60933900Y-126179332D01*
X59467234Y-124445999D02*
X59467234Y-123379332D01*
X58733900Y-124045999D02*
X60619615Y-124045999D01*
X60619615Y-124045999D02*
X60829139Y-123912666D01*
X60829139Y-123912666D02*
X60933900Y-123645999D01*
X60933900Y-123645999D02*
X60933900Y-123379332D01*
X60933900Y-119112666D02*
X59781519Y-119112666D01*
X59781519Y-119112666D02*
X59571996Y-119245999D01*
X59571996Y-119245999D02*
X59467234Y-119512666D01*
X59467234Y-119512666D02*
X59467234Y-120045999D01*
X59467234Y-120045999D02*
X59571996Y-120312666D01*
X60829139Y-119112666D02*
X60933900Y-119379333D01*
X60933900Y-119379333D02*
X60933900Y-120045999D01*
X60933900Y-120045999D02*
X60829139Y-120312666D01*
X60829139Y-120312666D02*
X60619615Y-120445999D01*
X60619615Y-120445999D02*
X60410091Y-120445999D01*
X60410091Y-120445999D02*
X60200567Y-120312666D01*
X60200567Y-120312666D02*
X60095805Y-120045999D01*
X60095805Y-120045999D02*
X60095805Y-119379333D01*
X60095805Y-119379333D02*
X59991043Y-119112666D01*
X60933900Y-116579333D02*
X58733900Y-116579333D01*
X60829139Y-116579333D02*
X60933900Y-116846000D01*
X60933900Y-116846000D02*
X60933900Y-117379333D01*
X60933900Y-117379333D02*
X60829139Y-117646000D01*
X60829139Y-117646000D02*
X60724377Y-117779333D01*
X60724377Y-117779333D02*
X60514853Y-117912666D01*
X60514853Y-117912666D02*
X59886281Y-117912666D01*
X59886281Y-117912666D02*
X59676758Y-117779333D01*
X59676758Y-117779333D02*
X59571996Y-117646000D01*
X59571996Y-117646000D02*
X59467234Y-117379333D01*
X59467234Y-117379333D02*
X59467234Y-116846000D01*
X59467234Y-116846000D02*
X59571996Y-116579333D01*
X60933900Y-114046000D02*
X59781519Y-114046000D01*
X59781519Y-114046000D02*
X59571996Y-114179333D01*
X59571996Y-114179333D02*
X59467234Y-114446000D01*
X59467234Y-114446000D02*
X59467234Y-114979333D01*
X59467234Y-114979333D02*
X59571996Y-115246000D01*
X60829139Y-114046000D02*
X60933900Y-114312667D01*
X60933900Y-114312667D02*
X60933900Y-114979333D01*
X60933900Y-114979333D02*
X60829139Y-115246000D01*
X60829139Y-115246000D02*
X60619615Y-115379333D01*
X60619615Y-115379333D02*
X60410091Y-115379333D01*
X60410091Y-115379333D02*
X60200567Y-115246000D01*
X60200567Y-115246000D02*
X60095805Y-114979333D01*
X60095805Y-114979333D02*
X60095805Y-114312667D01*
X60095805Y-114312667D02*
X59991043Y-114046000D01*
X59467234Y-112712667D02*
X61667234Y-112712667D01*
X59571996Y-112712667D02*
X59467234Y-112446000D01*
X59467234Y-112446000D02*
X59467234Y-111912667D01*
X59467234Y-111912667D02*
X59571996Y-111646000D01*
X59571996Y-111646000D02*
X59676758Y-111512667D01*
X59676758Y-111512667D02*
X59886281Y-111379334D01*
X59886281Y-111379334D02*
X60514853Y-111379334D01*
X60514853Y-111379334D02*
X60724377Y-111512667D01*
X60724377Y-111512667D02*
X60829139Y-111646000D01*
X60829139Y-111646000D02*
X60933900Y-111912667D01*
X60933900Y-111912667D02*
X60933900Y-112446000D01*
X60933900Y-112446000D02*
X60829139Y-112712667D01*
X59467234Y-110579334D02*
X59467234Y-109512667D01*
X58733900Y-110179334D02*
X60619615Y-110179334D01*
X60619615Y-110179334D02*
X60829139Y-110046001D01*
X60829139Y-110046001D02*
X60933900Y-109779334D01*
X60933900Y-109779334D02*
X60933900Y-109512667D01*
X60933900Y-108179334D02*
X60829139Y-108446001D01*
X60829139Y-108446001D02*
X60724377Y-108579334D01*
X60724377Y-108579334D02*
X60514853Y-108712667D01*
X60514853Y-108712667D02*
X59886281Y-108712667D01*
X59886281Y-108712667D02*
X59676758Y-108579334D01*
X59676758Y-108579334D02*
X59571996Y-108446001D01*
X59571996Y-108446001D02*
X59467234Y-108179334D01*
X59467234Y-108179334D02*
X59467234Y-107779334D01*
X59467234Y-107779334D02*
X59571996Y-107512667D01*
X59571996Y-107512667D02*
X59676758Y-107379334D01*
X59676758Y-107379334D02*
X59886281Y-107246001D01*
X59886281Y-107246001D02*
X60514853Y-107246001D01*
X60514853Y-107246001D02*
X60724377Y-107379334D01*
X60724377Y-107379334D02*
X60829139Y-107512667D01*
X60829139Y-107512667D02*
X60933900Y-107779334D01*
X60933900Y-107779334D02*
X60933900Y-108179334D01*
X60933900Y-106046001D02*
X59467234Y-106046001D01*
X59886281Y-106046001D02*
X59676758Y-105912668D01*
X59676758Y-105912668D02*
X59571996Y-105779334D01*
X59571996Y-105779334D02*
X59467234Y-105512668D01*
X59467234Y-105512668D02*
X59467234Y-105246001D01*
X59467234Y-102446002D02*
X60933900Y-101779335D01*
X60933900Y-101779335D02*
X59467234Y-101112668D01*
X58733900Y-100312669D02*
X58733900Y-98579335D01*
X58733900Y-98579335D02*
X59571996Y-99512669D01*
X59571996Y-99512669D02*
X59571996Y-99112669D01*
X59571996Y-99112669D02*
X59676758Y-98846002D01*
X59676758Y-98846002D02*
X59781519Y-98712669D01*
X59781519Y-98712669D02*
X59991043Y-98579335D01*
X59991043Y-98579335D02*
X60514853Y-98579335D01*
X60514853Y-98579335D02*
X60724377Y-98712669D01*
X60724377Y-98712669D02*
X60829139Y-98846002D01*
X60829139Y-98846002D02*
X60933900Y-99112669D01*
X60933900Y-99112669D02*
X60933900Y-99912669D01*
X60933900Y-99912669D02*
X60829139Y-100179335D01*
X60829139Y-100179335D02*
X60724377Y-100312669D01*
X60724377Y-97379335D02*
X60829139Y-97246002D01*
X60829139Y-97246002D02*
X60933900Y-97379335D01*
X60933900Y-97379335D02*
X60829139Y-97512668D01*
X60829139Y-97512668D02*
X60724377Y-97379335D01*
X60724377Y-97379335D02*
X60933900Y-97379335D01*
X58733900Y-95512669D02*
X58733900Y-95246002D01*
X58733900Y-95246002D02*
X58838662Y-94979335D01*
X58838662Y-94979335D02*
X58943424Y-94846002D01*
X58943424Y-94846002D02*
X59152948Y-94712669D01*
X59152948Y-94712669D02*
X59571996Y-94579335D01*
X59571996Y-94579335D02*
X60095805Y-94579335D01*
X60095805Y-94579335D02*
X60514853Y-94712669D01*
X60514853Y-94712669D02*
X60724377Y-94846002D01*
X60724377Y-94846002D02*
X60829139Y-94979335D01*
X60829139Y-94979335D02*
X60933900Y-95246002D01*
X60933900Y-95246002D02*
X60933900Y-95512669D01*
X60933900Y-95512669D02*
X60829139Y-95779335D01*
X60829139Y-95779335D02*
X60724377Y-95912669D01*
X60724377Y-95912669D02*
X60514853Y-96046002D01*
X60514853Y-96046002D02*
X60095805Y-96179335D01*
X60095805Y-96179335D02*
X59571996Y-96179335D01*
X59571996Y-96179335D02*
X59152948Y-96046002D01*
X59152948Y-96046002D02*
X58943424Y-95912669D01*
X58943424Y-95912669D02*
X58838662Y-95779335D01*
X58838662Y-95779335D02*
X58733900Y-95512669D01*
D12*
X36132285Y-140395228D02*
X36260857Y-140438085D01*
X36260857Y-140438085D02*
X36303714Y-140480942D01*
X36303714Y-140480942D02*
X36346571Y-140566657D01*
X36346571Y-140566657D02*
X36346571Y-140695228D01*
X36346571Y-140695228D02*
X36303714Y-140780942D01*
X36303714Y-140780942D02*
X36260857Y-140823800D01*
X36260857Y-140823800D02*
X36175142Y-140866657D01*
X36175142Y-140866657D02*
X35832285Y-140866657D01*
X35832285Y-140866657D02*
X35832285Y-139966657D01*
X35832285Y-139966657D02*
X36132285Y-139966657D01*
X36132285Y-139966657D02*
X36218000Y-140009514D01*
X36218000Y-140009514D02*
X36260857Y-140052371D01*
X36260857Y-140052371D02*
X36303714Y-140138085D01*
X36303714Y-140138085D02*
X36303714Y-140223800D01*
X36303714Y-140223800D02*
X36260857Y-140309514D01*
X36260857Y-140309514D02*
X36218000Y-140352371D01*
X36218000Y-140352371D02*
X36132285Y-140395228D01*
X36132285Y-140395228D02*
X35832285Y-140395228D01*
X36303714Y-137469514D02*
X36218000Y-137426657D01*
X36218000Y-137426657D02*
X36089428Y-137426657D01*
X36089428Y-137426657D02*
X35960857Y-137469514D01*
X35960857Y-137469514D02*
X35875142Y-137555228D01*
X35875142Y-137555228D02*
X35832285Y-137640942D01*
X35832285Y-137640942D02*
X35789428Y-137812371D01*
X35789428Y-137812371D02*
X35789428Y-137940942D01*
X35789428Y-137940942D02*
X35832285Y-138112371D01*
X35832285Y-138112371D02*
X35875142Y-138198085D01*
X35875142Y-138198085D02*
X35960857Y-138283800D01*
X35960857Y-138283800D02*
X36089428Y-138326657D01*
X36089428Y-138326657D02*
X36175142Y-138326657D01*
X36175142Y-138326657D02*
X36303714Y-138283800D01*
X36303714Y-138283800D02*
X36346571Y-138240942D01*
X36346571Y-138240942D02*
X36346571Y-137940942D01*
X36346571Y-137940942D02*
X36175142Y-137940942D01*
X36346571Y-132230657D02*
X36046571Y-131802085D01*
X35832285Y-132230657D02*
X35832285Y-131330657D01*
X35832285Y-131330657D02*
X36175142Y-131330657D01*
X36175142Y-131330657D02*
X36260857Y-131373514D01*
X36260857Y-131373514D02*
X36303714Y-131416371D01*
X36303714Y-131416371D02*
X36346571Y-131502085D01*
X36346571Y-131502085D02*
X36346571Y-131630657D01*
X36346571Y-131630657D02*
X36303714Y-131716371D01*
X36303714Y-131716371D02*
X36260857Y-131759228D01*
X36260857Y-131759228D02*
X36175142Y-131802085D01*
X36175142Y-131802085D02*
X35832285Y-131802085D01*
X33258285Y-119187800D02*
X33944000Y-119187800D01*
X33601142Y-119530657D02*
X33601142Y-118844942D01*
X34415428Y-118630657D02*
X34329714Y-118802085D01*
X34715428Y-118930657D02*
X34929714Y-119530657D01*
X34929714Y-119530657D02*
X35143999Y-118930657D01*
X35829713Y-119487800D02*
X35743999Y-119530657D01*
X35743999Y-119530657D02*
X35572571Y-119530657D01*
X35572571Y-119530657D02*
X35486856Y-119487800D01*
X35486856Y-119487800D02*
X35443999Y-119402085D01*
X35443999Y-119402085D02*
X35443999Y-119059228D01*
X35443999Y-119059228D02*
X35486856Y-118973514D01*
X35486856Y-118973514D02*
X35572571Y-118930657D01*
X35572571Y-118930657D02*
X35743999Y-118930657D01*
X35743999Y-118930657D02*
X35829713Y-118973514D01*
X35829713Y-118973514D02*
X35872571Y-119059228D01*
X35872571Y-119059228D02*
X35872571Y-119144942D01*
X35872571Y-119144942D02*
X35443999Y-119230657D01*
X33512285Y-108773800D02*
X34198000Y-108773800D01*
X33855142Y-109116657D02*
X33855142Y-108430942D01*
X34669428Y-108216657D02*
X34583714Y-108388085D01*
X34969428Y-108516657D02*
X35183714Y-109116657D01*
X35183714Y-109116657D02*
X35397999Y-108516657D01*
X36083713Y-109073800D02*
X35997999Y-109116657D01*
X35997999Y-109116657D02*
X35826571Y-109116657D01*
X35826571Y-109116657D02*
X35740856Y-109073800D01*
X35740856Y-109073800D02*
X35697999Y-108988085D01*
X35697999Y-108988085D02*
X35697999Y-108645228D01*
X35697999Y-108645228D02*
X35740856Y-108559514D01*
X35740856Y-108559514D02*
X35826571Y-108516657D01*
X35826571Y-108516657D02*
X35997999Y-108516657D01*
X35997999Y-108516657D02*
X36083713Y-108559514D01*
X36083713Y-108559514D02*
X36126571Y-108645228D01*
X36126571Y-108645228D02*
X36126571Y-108730942D01*
X36126571Y-108730942D02*
X35697999Y-108816657D01*
X32596571Y-90436657D02*
X32167999Y-90436657D01*
X32167999Y-90436657D02*
X32125142Y-90865228D01*
X32125142Y-90865228D02*
X32167999Y-90822371D01*
X32167999Y-90822371D02*
X32253714Y-90779514D01*
X32253714Y-90779514D02*
X32467999Y-90779514D01*
X32467999Y-90779514D02*
X32553714Y-90822371D01*
X32553714Y-90822371D02*
X32596571Y-90865228D01*
X32596571Y-90865228D02*
X32639428Y-90950942D01*
X32639428Y-90950942D02*
X32639428Y-91165228D01*
X32639428Y-91165228D02*
X32596571Y-91250942D01*
X32596571Y-91250942D02*
X32553714Y-91293800D01*
X32553714Y-91293800D02*
X32467999Y-91336657D01*
X32467999Y-91336657D02*
X32253714Y-91336657D01*
X32253714Y-91336657D02*
X32167999Y-91293800D01*
X32167999Y-91293800D02*
X32125142Y-91250942D01*
X32896571Y-90436657D02*
X33196571Y-91336657D01*
X33196571Y-91336657D02*
X33496571Y-90436657D01*
X34953714Y-90479514D02*
X34868000Y-90436657D01*
X34868000Y-90436657D02*
X34739428Y-90436657D01*
X34739428Y-90436657D02*
X34610857Y-90479514D01*
X34610857Y-90479514D02*
X34525142Y-90565228D01*
X34525142Y-90565228D02*
X34482285Y-90650942D01*
X34482285Y-90650942D02*
X34439428Y-90822371D01*
X34439428Y-90822371D02*
X34439428Y-90950942D01*
X34439428Y-90950942D02*
X34482285Y-91122371D01*
X34482285Y-91122371D02*
X34525142Y-91208085D01*
X34525142Y-91208085D02*
X34610857Y-91293800D01*
X34610857Y-91293800D02*
X34739428Y-91336657D01*
X34739428Y-91336657D02*
X34825142Y-91336657D01*
X34825142Y-91336657D02*
X34953714Y-91293800D01*
X34953714Y-91293800D02*
X34996571Y-91250942D01*
X34996571Y-91250942D02*
X34996571Y-90950942D01*
X34996571Y-90950942D02*
X34825142Y-90950942D01*
X35382285Y-91336657D02*
X35382285Y-90436657D01*
X35382285Y-90436657D02*
X35896571Y-91336657D01*
X35896571Y-91336657D02*
X35896571Y-90436657D01*
X36325142Y-91336657D02*
X36325142Y-90436657D01*
X36325142Y-90436657D02*
X36539428Y-90436657D01*
X36539428Y-90436657D02*
X36667999Y-90479514D01*
X36667999Y-90479514D02*
X36753714Y-90565228D01*
X36753714Y-90565228D02*
X36796571Y-90650942D01*
X36796571Y-90650942D02*
X36839428Y-90822371D01*
X36839428Y-90822371D02*
X36839428Y-90950942D01*
X36839428Y-90950942D02*
X36796571Y-91122371D01*
X36796571Y-91122371D02*
X36753714Y-91208085D01*
X36753714Y-91208085D02*
X36667999Y-91293800D01*
X36667999Y-91293800D02*
X36539428Y-91336657D01*
X36539428Y-91336657D02*
X36325142Y-91336657D01*
X37825142Y-90436657D02*
X38382285Y-90436657D01*
X38382285Y-90436657D02*
X38082285Y-90779514D01*
X38082285Y-90779514D02*
X38210856Y-90779514D01*
X38210856Y-90779514D02*
X38296571Y-90822371D01*
X38296571Y-90822371D02*
X38339428Y-90865228D01*
X38339428Y-90865228D02*
X38382285Y-90950942D01*
X38382285Y-90950942D02*
X38382285Y-91165228D01*
X38382285Y-91165228D02*
X38339428Y-91250942D01*
X38339428Y-91250942D02*
X38296571Y-91293800D01*
X38296571Y-91293800D02*
X38210856Y-91336657D01*
X38210856Y-91336657D02*
X37953713Y-91336657D01*
X37953713Y-91336657D02*
X37867999Y-91293800D01*
X37867999Y-91293800D02*
X37825142Y-91250942D01*
X38639428Y-90436657D02*
X38939428Y-91336657D01*
X38939428Y-91336657D02*
X39239428Y-90436657D01*
X39453714Y-90436657D02*
X40010857Y-90436657D01*
X40010857Y-90436657D02*
X39710857Y-90779514D01*
X39710857Y-90779514D02*
X39839428Y-90779514D01*
X39839428Y-90779514D02*
X39925143Y-90822371D01*
X39925143Y-90822371D02*
X39968000Y-90865228D01*
X39968000Y-90865228D02*
X40010857Y-90950942D01*
X40010857Y-90950942D02*
X40010857Y-91165228D01*
X40010857Y-91165228D02*
X39968000Y-91250942D01*
X39968000Y-91250942D02*
X39925143Y-91293800D01*
X39925143Y-91293800D02*
X39839428Y-91336657D01*
X39839428Y-91336657D02*
X39582285Y-91336657D01*
X39582285Y-91336657D02*
X39496571Y-91293800D01*
X39496571Y-91293800D02*
X39453714Y-91250942D01*
D11*
X60951000Y-148109400D02*
X61061000Y-148142733D01*
X61061000Y-148142733D02*
X61244334Y-148142733D01*
X61244334Y-148142733D02*
X61317667Y-148109400D01*
X61317667Y-148109400D02*
X61354334Y-148076066D01*
X61354334Y-148076066D02*
X61391000Y-148009400D01*
X61391000Y-148009400D02*
X61391000Y-147942733D01*
X61391000Y-147942733D02*
X61354334Y-147876066D01*
X61354334Y-147876066D02*
X61317667Y-147842733D01*
X61317667Y-147842733D02*
X61244334Y-147809400D01*
X61244334Y-147809400D02*
X61097667Y-147776066D01*
X61097667Y-147776066D02*
X61024334Y-147742733D01*
X61024334Y-147742733D02*
X60987667Y-147709400D01*
X60987667Y-147709400D02*
X60951000Y-147642733D01*
X60951000Y-147642733D02*
X60951000Y-147576066D01*
X60951000Y-147576066D02*
X60987667Y-147509400D01*
X60987667Y-147509400D02*
X61024334Y-147476066D01*
X61024334Y-147476066D02*
X61097667Y-147442733D01*
X61097667Y-147442733D02*
X61281000Y-147442733D01*
X61281000Y-147442733D02*
X61391000Y-147476066D01*
X62161000Y-148076066D02*
X62124333Y-148109400D01*
X62124333Y-148109400D02*
X62014333Y-148142733D01*
X62014333Y-148142733D02*
X61941000Y-148142733D01*
X61941000Y-148142733D02*
X61831000Y-148109400D01*
X61831000Y-148109400D02*
X61757667Y-148042733D01*
X61757667Y-148042733D02*
X61721000Y-147976066D01*
X61721000Y-147976066D02*
X61684333Y-147842733D01*
X61684333Y-147842733D02*
X61684333Y-147742733D01*
X61684333Y-147742733D02*
X61721000Y-147609400D01*
X61721000Y-147609400D02*
X61757667Y-147542733D01*
X61757667Y-147542733D02*
X61831000Y-147476066D01*
X61831000Y-147476066D02*
X61941000Y-147442733D01*
X61941000Y-147442733D02*
X62014333Y-147442733D01*
X62014333Y-147442733D02*
X62124333Y-147476066D01*
X62124333Y-147476066D02*
X62161000Y-147509400D01*
X62857667Y-148142733D02*
X62491000Y-148142733D01*
X62491000Y-148142733D02*
X62491000Y-147442733D01*
X63664333Y-148109400D02*
X63774333Y-148142733D01*
X63774333Y-148142733D02*
X63957667Y-148142733D01*
X63957667Y-148142733D02*
X64031000Y-148109400D01*
X64031000Y-148109400D02*
X64067667Y-148076066D01*
X64067667Y-148076066D02*
X64104333Y-148009400D01*
X64104333Y-148009400D02*
X64104333Y-147942733D01*
X64104333Y-147942733D02*
X64067667Y-147876066D01*
X64067667Y-147876066D02*
X64031000Y-147842733D01*
X64031000Y-147842733D02*
X63957667Y-147809400D01*
X63957667Y-147809400D02*
X63811000Y-147776066D01*
X63811000Y-147776066D02*
X63737667Y-147742733D01*
X63737667Y-147742733D02*
X63701000Y-147709400D01*
X63701000Y-147709400D02*
X63664333Y-147642733D01*
X63664333Y-147642733D02*
X63664333Y-147576066D01*
X63664333Y-147576066D02*
X63701000Y-147509400D01*
X63701000Y-147509400D02*
X63737667Y-147476066D01*
X63737667Y-147476066D02*
X63811000Y-147442733D01*
X63811000Y-147442733D02*
X63994333Y-147442733D01*
X63994333Y-147442733D02*
X64104333Y-147476066D01*
X64434333Y-148142733D02*
X64434333Y-147442733D01*
X64434333Y-147442733D02*
X64617666Y-147442733D01*
X64617666Y-147442733D02*
X64727666Y-147476066D01*
X64727666Y-147476066D02*
X64801000Y-147542733D01*
X64801000Y-147542733D02*
X64837666Y-147609400D01*
X64837666Y-147609400D02*
X64874333Y-147742733D01*
X64874333Y-147742733D02*
X64874333Y-147842733D01*
X64874333Y-147842733D02*
X64837666Y-147976066D01*
X64837666Y-147976066D02*
X64801000Y-148042733D01*
X64801000Y-148042733D02*
X64727666Y-148109400D01*
X64727666Y-148109400D02*
X64617666Y-148142733D01*
X64617666Y-148142733D02*
X64434333Y-148142733D01*
X65167666Y-147942733D02*
X65534333Y-147942733D01*
X65094333Y-148142733D02*
X65351000Y-147442733D01*
X65351000Y-147442733D02*
X65607666Y-148142733D01*
X66377667Y-147442733D02*
X66854333Y-147442733D01*
X66854333Y-147442733D02*
X66597667Y-147709400D01*
X66597667Y-147709400D02*
X66707667Y-147709400D01*
X66707667Y-147709400D02*
X66781000Y-147742733D01*
X66781000Y-147742733D02*
X66817667Y-147776066D01*
X66817667Y-147776066D02*
X66854333Y-147842733D01*
X66854333Y-147842733D02*
X66854333Y-148009400D01*
X66854333Y-148009400D02*
X66817667Y-148076066D01*
X66817667Y-148076066D02*
X66781000Y-148109400D01*
X66781000Y-148109400D02*
X66707667Y-148142733D01*
X66707667Y-148142733D02*
X66487667Y-148142733D01*
X66487667Y-148142733D02*
X66414333Y-148109400D01*
X66414333Y-148109400D02*
X66377667Y-148076066D01*
X67074333Y-147442733D02*
X67331000Y-148142733D01*
X67331000Y-148142733D02*
X67587666Y-147442733D01*
X67771000Y-147442733D02*
X68247666Y-147442733D01*
X68247666Y-147442733D02*
X67991000Y-147709400D01*
X67991000Y-147709400D02*
X68101000Y-147709400D01*
X68101000Y-147709400D02*
X68174333Y-147742733D01*
X68174333Y-147742733D02*
X68211000Y-147776066D01*
X68211000Y-147776066D02*
X68247666Y-147842733D01*
X68247666Y-147842733D02*
X68247666Y-148009400D01*
X68247666Y-148009400D02*
X68211000Y-148076066D01*
X68211000Y-148076066D02*
X68174333Y-148109400D01*
X68174333Y-148109400D02*
X68101000Y-148142733D01*
X68101000Y-148142733D02*
X67881000Y-148142733D01*
X67881000Y-148142733D02*
X67807666Y-148109400D01*
X67807666Y-148109400D02*
X67771000Y-148076066D01*
X69567666Y-147476066D02*
X69494333Y-147442733D01*
X69494333Y-147442733D02*
X69384333Y-147442733D01*
X69384333Y-147442733D02*
X69274333Y-147476066D01*
X69274333Y-147476066D02*
X69201000Y-147542733D01*
X69201000Y-147542733D02*
X69164333Y-147609400D01*
X69164333Y-147609400D02*
X69127666Y-147742733D01*
X69127666Y-147742733D02*
X69127666Y-147842733D01*
X69127666Y-147842733D02*
X69164333Y-147976066D01*
X69164333Y-147976066D02*
X69201000Y-148042733D01*
X69201000Y-148042733D02*
X69274333Y-148109400D01*
X69274333Y-148109400D02*
X69384333Y-148142733D01*
X69384333Y-148142733D02*
X69457666Y-148142733D01*
X69457666Y-148142733D02*
X69567666Y-148109400D01*
X69567666Y-148109400D02*
X69604333Y-148076066D01*
X69604333Y-148076066D02*
X69604333Y-147842733D01*
X69604333Y-147842733D02*
X69457666Y-147842733D01*
X69934333Y-148142733D02*
X69934333Y-147442733D01*
X69934333Y-147442733D02*
X70374333Y-148142733D01*
X70374333Y-148142733D02*
X70374333Y-147442733D01*
X70741000Y-148142733D02*
X70741000Y-147442733D01*
X70741000Y-147442733D02*
X70924333Y-147442733D01*
X70924333Y-147442733D02*
X71034333Y-147476066D01*
X71034333Y-147476066D02*
X71107667Y-147542733D01*
X71107667Y-147542733D02*
X71144333Y-147609400D01*
X71144333Y-147609400D02*
X71181000Y-147742733D01*
X71181000Y-147742733D02*
X71181000Y-147842733D01*
X71181000Y-147842733D02*
X71144333Y-147976066D01*
X71144333Y-147976066D02*
X71107667Y-148042733D01*
X71107667Y-148042733D02*
X71034333Y-148109400D01*
X71034333Y-148109400D02*
X70924333Y-148142733D01*
X70924333Y-148142733D02*
X70741000Y-148142733D01*
X72464334Y-147442733D02*
X72097667Y-147442733D01*
X72097667Y-147442733D02*
X72061000Y-147776066D01*
X72061000Y-147776066D02*
X72097667Y-147742733D01*
X72097667Y-147742733D02*
X72171000Y-147709400D01*
X72171000Y-147709400D02*
X72354334Y-147709400D01*
X72354334Y-147709400D02*
X72427667Y-147742733D01*
X72427667Y-147742733D02*
X72464334Y-147776066D01*
X72464334Y-147776066D02*
X72501000Y-147842733D01*
X72501000Y-147842733D02*
X72501000Y-148009400D01*
X72501000Y-148009400D02*
X72464334Y-148076066D01*
X72464334Y-148076066D02*
X72427667Y-148109400D01*
X72427667Y-148109400D02*
X72354334Y-148142733D01*
X72354334Y-148142733D02*
X72171000Y-148142733D01*
X72171000Y-148142733D02*
X72097667Y-148109400D01*
X72097667Y-148109400D02*
X72061000Y-148076066D01*
X72721000Y-147442733D02*
X72977667Y-148142733D01*
X72977667Y-148142733D02*
X73234333Y-147442733D01*
D14*
X44921009Y-109155619D02*
X44921009Y-108822286D01*
X45444819Y-108679429D02*
X45444819Y-109155619D01*
X45444819Y-109155619D02*
X44444819Y-109155619D01*
X44444819Y-109155619D02*
X44444819Y-108679429D01*
X45397200Y-108298476D02*
X45444819Y-108155619D01*
X45444819Y-108155619D02*
X45444819Y-107917524D01*
X45444819Y-107917524D02*
X45397200Y-107822286D01*
X45397200Y-107822286D02*
X45349580Y-107774667D01*
X45349580Y-107774667D02*
X45254342Y-107727048D01*
X45254342Y-107727048D02*
X45159104Y-107727048D01*
X45159104Y-107727048D02*
X45063866Y-107774667D01*
X45063866Y-107774667D02*
X45016247Y-107822286D01*
X45016247Y-107822286D02*
X44968628Y-107917524D01*
X44968628Y-107917524D02*
X44921009Y-108108000D01*
X44921009Y-108108000D02*
X44873390Y-108203238D01*
X44873390Y-108203238D02*
X44825771Y-108250857D01*
X44825771Y-108250857D02*
X44730533Y-108298476D01*
X44730533Y-108298476D02*
X44635295Y-108298476D01*
X44635295Y-108298476D02*
X44540057Y-108250857D01*
X44540057Y-108250857D02*
X44492438Y-108203238D01*
X44492438Y-108203238D02*
X44444819Y-108108000D01*
X44444819Y-108108000D02*
X44444819Y-107869905D01*
X44444819Y-107869905D02*
X44492438Y-107727048D01*
X45444819Y-107298476D02*
X44444819Y-107298476D01*
X44444819Y-107298476D02*
X44444819Y-106917524D01*
X44444819Y-106917524D02*
X44492438Y-106822286D01*
X44492438Y-106822286D02*
X44540057Y-106774667D01*
X44540057Y-106774667D02*
X44635295Y-106727048D01*
X44635295Y-106727048D02*
X44778152Y-106727048D01*
X44778152Y-106727048D02*
X44873390Y-106774667D01*
X44873390Y-106774667D02*
X44921009Y-106822286D01*
X44921009Y-106822286D02*
X44968628Y-106917524D01*
X44968628Y-106917524D02*
X44968628Y-107298476D01*
X44444819Y-106393714D02*
X44444819Y-105774667D01*
X44444819Y-105774667D02*
X44825771Y-106108000D01*
X44825771Y-106108000D02*
X44825771Y-105965143D01*
X44825771Y-105965143D02*
X44873390Y-105869905D01*
X44873390Y-105869905D02*
X44921009Y-105822286D01*
X44921009Y-105822286D02*
X45016247Y-105774667D01*
X45016247Y-105774667D02*
X45254342Y-105774667D01*
X45254342Y-105774667D02*
X45349580Y-105822286D01*
X45349580Y-105822286D02*
X45397200Y-105869905D01*
X45397200Y-105869905D02*
X45444819Y-105965143D01*
X45444819Y-105965143D02*
X45444819Y-106250857D01*
X45444819Y-106250857D02*
X45397200Y-106346095D01*
X45397200Y-106346095D02*
X45349580Y-106393714D01*
X44540057Y-105393714D02*
X44492438Y-105346095D01*
X44492438Y-105346095D02*
X44444819Y-105250857D01*
X44444819Y-105250857D02*
X44444819Y-105012762D01*
X44444819Y-105012762D02*
X44492438Y-104917524D01*
X44492438Y-104917524D02*
X44540057Y-104869905D01*
X44540057Y-104869905D02*
X44635295Y-104822286D01*
X44635295Y-104822286D02*
X44730533Y-104822286D01*
X44730533Y-104822286D02*
X44873390Y-104869905D01*
X44873390Y-104869905D02*
X45444819Y-105441333D01*
X45444819Y-105441333D02*
X45444819Y-104822286D01*
X45444819Y-103488952D02*
X45397200Y-103584190D01*
X45397200Y-103584190D02*
X45301961Y-103631809D01*
X45301961Y-103631809D02*
X44444819Y-103631809D01*
X45397200Y-102727047D02*
X45444819Y-102822285D01*
X45444819Y-102822285D02*
X45444819Y-103012761D01*
X45444819Y-103012761D02*
X45397200Y-103107999D01*
X45397200Y-103107999D02*
X45301961Y-103155618D01*
X45301961Y-103155618D02*
X44921009Y-103155618D01*
X44921009Y-103155618D02*
X44825771Y-103107999D01*
X44825771Y-103107999D02*
X44778152Y-103012761D01*
X44778152Y-103012761D02*
X44778152Y-102822285D01*
X44778152Y-102822285D02*
X44825771Y-102727047D01*
X44825771Y-102727047D02*
X44921009Y-102679428D01*
X44921009Y-102679428D02*
X45016247Y-102679428D01*
X45016247Y-102679428D02*
X45111485Y-103155618D01*
X44778152Y-102393713D02*
X44778152Y-102012761D01*
X45444819Y-102250856D02*
X44587676Y-102250856D01*
X44587676Y-102250856D02*
X44492438Y-102203237D01*
X44492438Y-102203237D02*
X44444819Y-102107999D01*
X44444819Y-102107999D02*
X44444819Y-102012761D01*
X44778152Y-101822284D02*
X44778152Y-101441332D01*
X44444819Y-101679427D02*
X45301961Y-101679427D01*
X45301961Y-101679427D02*
X45397200Y-101631808D01*
X45397200Y-101631808D02*
X45444819Y-101536570D01*
X45444819Y-101536570D02*
X45444819Y-101441332D01*
X45444819Y-99822284D02*
X45444819Y-100393712D01*
X45444819Y-100107998D02*
X44444819Y-100107998D01*
X44444819Y-100107998D02*
X44587676Y-100203236D01*
X44587676Y-100203236D02*
X44682914Y-100298474D01*
X44682914Y-100298474D02*
X44730533Y-100393712D01*
X45444819Y-99346093D02*
X45444819Y-99155617D01*
X45444819Y-99155617D02*
X45397200Y-99060379D01*
X45397200Y-99060379D02*
X45349580Y-99012760D01*
X45349580Y-99012760D02*
X45206723Y-98917522D01*
X45206723Y-98917522D02*
X45016247Y-98869903D01*
X45016247Y-98869903D02*
X44635295Y-98869903D01*
X44635295Y-98869903D02*
X44540057Y-98917522D01*
X44540057Y-98917522D02*
X44492438Y-98965141D01*
X44492438Y-98965141D02*
X44444819Y-99060379D01*
X44444819Y-99060379D02*
X44444819Y-99250855D01*
X44444819Y-99250855D02*
X44492438Y-99346093D01*
X44492438Y-99346093D02*
X44540057Y-99393712D01*
X44540057Y-99393712D02*
X44635295Y-99441331D01*
X44635295Y-99441331D02*
X44873390Y-99441331D01*
X44873390Y-99441331D02*
X44968628Y-99393712D01*
X44968628Y-99393712D02*
X45016247Y-99346093D01*
X45016247Y-99346093D02*
X45063866Y-99250855D01*
X45063866Y-99250855D02*
X45063866Y-99060379D01*
X45063866Y-99060379D02*
X45016247Y-98965141D01*
X45016247Y-98965141D02*
X44968628Y-98917522D01*
X44968628Y-98917522D02*
X44873390Y-98869903D01*
X44778152Y-97679426D02*
X45778152Y-97679426D01*
X44825771Y-97679426D02*
X44778152Y-97584188D01*
X44778152Y-97584188D02*
X44778152Y-97393712D01*
X44778152Y-97393712D02*
X44825771Y-97298474D01*
X44825771Y-97298474D02*
X44873390Y-97250855D01*
X44873390Y-97250855D02*
X44968628Y-97203236D01*
X44968628Y-97203236D02*
X45254342Y-97203236D01*
X45254342Y-97203236D02*
X45349580Y-97250855D01*
X45349580Y-97250855D02*
X45397200Y-97298474D01*
X45397200Y-97298474D02*
X45444819Y-97393712D01*
X45444819Y-97393712D02*
X45444819Y-97584188D01*
X45444819Y-97584188D02*
X45397200Y-97679426D01*
X45444819Y-96774664D02*
X44778152Y-96774664D01*
X44444819Y-96774664D02*
X44492438Y-96822283D01*
X44492438Y-96822283D02*
X44540057Y-96774664D01*
X44540057Y-96774664D02*
X44492438Y-96727045D01*
X44492438Y-96727045D02*
X44444819Y-96774664D01*
X44444819Y-96774664D02*
X44540057Y-96774664D01*
X44778152Y-96298474D02*
X45444819Y-96298474D01*
X44873390Y-96298474D02*
X44825771Y-96250855D01*
X44825771Y-96250855D02*
X44778152Y-96155617D01*
X44778152Y-96155617D02*
X44778152Y-96012760D01*
X44778152Y-96012760D02*
X44825771Y-95917522D01*
X44825771Y-95917522D02*
X44921009Y-95869903D01*
X44921009Y-95869903D02*
X45444819Y-95869903D01*
X45397200Y-95441331D02*
X45444819Y-95346093D01*
X45444819Y-95346093D02*
X45444819Y-95155617D01*
X45444819Y-95155617D02*
X45397200Y-95060379D01*
X45397200Y-95060379D02*
X45301961Y-95012760D01*
X45301961Y-95012760D02*
X45254342Y-95012760D01*
X45254342Y-95012760D02*
X45159104Y-95060379D01*
X45159104Y-95060379D02*
X45111485Y-95155617D01*
X45111485Y-95155617D02*
X45111485Y-95298474D01*
X45111485Y-95298474D02*
X45063866Y-95393712D01*
X45063866Y-95393712D02*
X44968628Y-95441331D01*
X44968628Y-95441331D02*
X44921009Y-95441331D01*
X44921009Y-95441331D02*
X44825771Y-95393712D01*
X44825771Y-95393712D02*
X44778152Y-95298474D01*
X44778152Y-95298474D02*
X44778152Y-95155617D01*
X44778152Y-95155617D02*
X44825771Y-95060379D01*
X64333009Y-109377809D02*
X64333009Y-109044476D01*
X64856819Y-108901619D02*
X64856819Y-109377809D01*
X64856819Y-109377809D02*
X63856819Y-109377809D01*
X63856819Y-109377809D02*
X63856819Y-108901619D01*
X64809200Y-108520666D02*
X64856819Y-108377809D01*
X64856819Y-108377809D02*
X64856819Y-108139714D01*
X64856819Y-108139714D02*
X64809200Y-108044476D01*
X64809200Y-108044476D02*
X64761580Y-107996857D01*
X64761580Y-107996857D02*
X64666342Y-107949238D01*
X64666342Y-107949238D02*
X64571104Y-107949238D01*
X64571104Y-107949238D02*
X64475866Y-107996857D01*
X64475866Y-107996857D02*
X64428247Y-108044476D01*
X64428247Y-108044476D02*
X64380628Y-108139714D01*
X64380628Y-108139714D02*
X64333009Y-108330190D01*
X64333009Y-108330190D02*
X64285390Y-108425428D01*
X64285390Y-108425428D02*
X64237771Y-108473047D01*
X64237771Y-108473047D02*
X64142533Y-108520666D01*
X64142533Y-108520666D02*
X64047295Y-108520666D01*
X64047295Y-108520666D02*
X63952057Y-108473047D01*
X63952057Y-108473047D02*
X63904438Y-108425428D01*
X63904438Y-108425428D02*
X63856819Y-108330190D01*
X63856819Y-108330190D02*
X63856819Y-108092095D01*
X63856819Y-108092095D02*
X63904438Y-107949238D01*
X64856819Y-107520666D02*
X63856819Y-107520666D01*
X63856819Y-107520666D02*
X63856819Y-107139714D01*
X63856819Y-107139714D02*
X63904438Y-107044476D01*
X63904438Y-107044476D02*
X63952057Y-106996857D01*
X63952057Y-106996857D02*
X64047295Y-106949238D01*
X64047295Y-106949238D02*
X64190152Y-106949238D01*
X64190152Y-106949238D02*
X64285390Y-106996857D01*
X64285390Y-106996857D02*
X64333009Y-107044476D01*
X64333009Y-107044476D02*
X64380628Y-107139714D01*
X64380628Y-107139714D02*
X64380628Y-107520666D01*
X63856819Y-106615904D02*
X63856819Y-105996857D01*
X63856819Y-105996857D02*
X64237771Y-106330190D01*
X64237771Y-106330190D02*
X64237771Y-106187333D01*
X64237771Y-106187333D02*
X64285390Y-106092095D01*
X64285390Y-106092095D02*
X64333009Y-106044476D01*
X64333009Y-106044476D02*
X64428247Y-105996857D01*
X64428247Y-105996857D02*
X64666342Y-105996857D01*
X64666342Y-105996857D02*
X64761580Y-106044476D01*
X64761580Y-106044476D02*
X64809200Y-106092095D01*
X64809200Y-106092095D02*
X64856819Y-106187333D01*
X64856819Y-106187333D02*
X64856819Y-106473047D01*
X64856819Y-106473047D02*
X64809200Y-106568285D01*
X64809200Y-106568285D02*
X64761580Y-106615904D01*
X63952057Y-105615904D02*
X63904438Y-105568285D01*
X63904438Y-105568285D02*
X63856819Y-105473047D01*
X63856819Y-105473047D02*
X63856819Y-105234952D01*
X63856819Y-105234952D02*
X63904438Y-105139714D01*
X63904438Y-105139714D02*
X63952057Y-105092095D01*
X63952057Y-105092095D02*
X64047295Y-105044476D01*
X64047295Y-105044476D02*
X64142533Y-105044476D01*
X64142533Y-105044476D02*
X64285390Y-105092095D01*
X64285390Y-105092095D02*
X64856819Y-105663523D01*
X64856819Y-105663523D02*
X64856819Y-105044476D01*
X64856819Y-103853999D02*
X64190152Y-103853999D01*
X64380628Y-103853999D02*
X64285390Y-103806380D01*
X64285390Y-103806380D02*
X64237771Y-103758761D01*
X64237771Y-103758761D02*
X64190152Y-103663523D01*
X64190152Y-103663523D02*
X64190152Y-103568285D01*
X64856819Y-103234951D02*
X64190152Y-103234951D01*
X63856819Y-103234951D02*
X63904438Y-103282570D01*
X63904438Y-103282570D02*
X63952057Y-103234951D01*
X63952057Y-103234951D02*
X63904438Y-103187332D01*
X63904438Y-103187332D02*
X63856819Y-103234951D01*
X63856819Y-103234951D02*
X63952057Y-103234951D01*
X64190152Y-102330190D02*
X64999676Y-102330190D01*
X64999676Y-102330190D02*
X65094914Y-102377809D01*
X65094914Y-102377809D02*
X65142533Y-102425428D01*
X65142533Y-102425428D02*
X65190152Y-102520666D01*
X65190152Y-102520666D02*
X65190152Y-102663523D01*
X65190152Y-102663523D02*
X65142533Y-102758761D01*
X64809200Y-102330190D02*
X64856819Y-102425428D01*
X64856819Y-102425428D02*
X64856819Y-102615904D01*
X64856819Y-102615904D02*
X64809200Y-102711142D01*
X64809200Y-102711142D02*
X64761580Y-102758761D01*
X64761580Y-102758761D02*
X64666342Y-102806380D01*
X64666342Y-102806380D02*
X64380628Y-102806380D01*
X64380628Y-102806380D02*
X64285390Y-102758761D01*
X64285390Y-102758761D02*
X64237771Y-102711142D01*
X64237771Y-102711142D02*
X64190152Y-102615904D01*
X64190152Y-102615904D02*
X64190152Y-102425428D01*
X64190152Y-102425428D02*
X64237771Y-102330190D01*
X64856819Y-101853999D02*
X63856819Y-101853999D01*
X64856819Y-101425428D02*
X64333009Y-101425428D01*
X64333009Y-101425428D02*
X64237771Y-101473047D01*
X64237771Y-101473047D02*
X64190152Y-101568285D01*
X64190152Y-101568285D02*
X64190152Y-101711142D01*
X64190152Y-101711142D02*
X64237771Y-101806380D01*
X64237771Y-101806380D02*
X64285390Y-101853999D01*
X64190152Y-101092094D02*
X64190152Y-100711142D01*
X63856819Y-100949237D02*
X64713961Y-100949237D01*
X64713961Y-100949237D02*
X64809200Y-100901618D01*
X64809200Y-100901618D02*
X64856819Y-100806380D01*
X64856819Y-100806380D02*
X64856819Y-100711142D01*
X64856819Y-99092094D02*
X64856819Y-99663522D01*
X64856819Y-99377808D02*
X63856819Y-99377808D01*
X63856819Y-99377808D02*
X63999676Y-99473046D01*
X63999676Y-99473046D02*
X64094914Y-99568284D01*
X64094914Y-99568284D02*
X64142533Y-99663522D01*
X64856819Y-98615903D02*
X64856819Y-98425427D01*
X64856819Y-98425427D02*
X64809200Y-98330189D01*
X64809200Y-98330189D02*
X64761580Y-98282570D01*
X64761580Y-98282570D02*
X64618723Y-98187332D01*
X64618723Y-98187332D02*
X64428247Y-98139713D01*
X64428247Y-98139713D02*
X64047295Y-98139713D01*
X64047295Y-98139713D02*
X63952057Y-98187332D01*
X63952057Y-98187332D02*
X63904438Y-98234951D01*
X63904438Y-98234951D02*
X63856819Y-98330189D01*
X63856819Y-98330189D02*
X63856819Y-98520665D01*
X63856819Y-98520665D02*
X63904438Y-98615903D01*
X63904438Y-98615903D02*
X63952057Y-98663522D01*
X63952057Y-98663522D02*
X64047295Y-98711141D01*
X64047295Y-98711141D02*
X64285390Y-98711141D01*
X64285390Y-98711141D02*
X64380628Y-98663522D01*
X64380628Y-98663522D02*
X64428247Y-98615903D01*
X64428247Y-98615903D02*
X64475866Y-98520665D01*
X64475866Y-98520665D02*
X64475866Y-98330189D01*
X64475866Y-98330189D02*
X64428247Y-98234951D01*
X64428247Y-98234951D02*
X64380628Y-98187332D01*
X64380628Y-98187332D02*
X64285390Y-98139713D01*
X64190152Y-96949236D02*
X65190152Y-96949236D01*
X64237771Y-96949236D02*
X64190152Y-96853998D01*
X64190152Y-96853998D02*
X64190152Y-96663522D01*
X64190152Y-96663522D02*
X64237771Y-96568284D01*
X64237771Y-96568284D02*
X64285390Y-96520665D01*
X64285390Y-96520665D02*
X64380628Y-96473046D01*
X64380628Y-96473046D02*
X64666342Y-96473046D01*
X64666342Y-96473046D02*
X64761580Y-96520665D01*
X64761580Y-96520665D02*
X64809200Y-96568284D01*
X64809200Y-96568284D02*
X64856819Y-96663522D01*
X64856819Y-96663522D02*
X64856819Y-96853998D01*
X64856819Y-96853998D02*
X64809200Y-96949236D01*
X64856819Y-96044474D02*
X64190152Y-96044474D01*
X63856819Y-96044474D02*
X63904438Y-96092093D01*
X63904438Y-96092093D02*
X63952057Y-96044474D01*
X63952057Y-96044474D02*
X63904438Y-95996855D01*
X63904438Y-95996855D02*
X63856819Y-96044474D01*
X63856819Y-96044474D02*
X63952057Y-96044474D01*
X64190152Y-95568284D02*
X64856819Y-95568284D01*
X64285390Y-95568284D02*
X64237771Y-95520665D01*
X64237771Y-95520665D02*
X64190152Y-95425427D01*
X64190152Y-95425427D02*
X64190152Y-95282570D01*
X64190152Y-95282570D02*
X64237771Y-95187332D01*
X64237771Y-95187332D02*
X64333009Y-95139713D01*
X64333009Y-95139713D02*
X64856819Y-95139713D01*
X64809200Y-94711141D02*
X64856819Y-94615903D01*
X64856819Y-94615903D02*
X64856819Y-94425427D01*
X64856819Y-94425427D02*
X64809200Y-94330189D01*
X64809200Y-94330189D02*
X64713961Y-94282570D01*
X64713961Y-94282570D02*
X64666342Y-94282570D01*
X64666342Y-94282570D02*
X64571104Y-94330189D01*
X64571104Y-94330189D02*
X64523485Y-94425427D01*
X64523485Y-94425427D02*
X64523485Y-94568284D01*
X64523485Y-94568284D02*
X64475866Y-94663522D01*
X64475866Y-94663522D02*
X64380628Y-94711141D01*
X64380628Y-94711141D02*
X64333009Y-94711141D01*
X64333009Y-94711141D02*
X64237771Y-94663522D01*
X64237771Y-94663522D02*
X64190152Y-94568284D01*
X64190152Y-94568284D02*
X64190152Y-94425427D01*
X64190152Y-94425427D02*
X64237771Y-94330189D01*
X59798295Y-147110284D02*
X58998295Y-147110284D01*
X59074485Y-146767428D02*
X59036390Y-146729332D01*
X59036390Y-146729332D02*
X58998295Y-146653142D01*
X58998295Y-146653142D02*
X58998295Y-146462666D01*
X58998295Y-146462666D02*
X59036390Y-146386475D01*
X59036390Y-146386475D02*
X59074485Y-146348380D01*
X59074485Y-146348380D02*
X59150676Y-146310285D01*
X59150676Y-146310285D02*
X59226866Y-146310285D01*
X59226866Y-146310285D02*
X59341152Y-146348380D01*
X59341152Y-146348380D02*
X59798295Y-146805523D01*
X59798295Y-146805523D02*
X59798295Y-146310285D01*
X59722104Y-145510284D02*
X59760200Y-145548380D01*
X59760200Y-145548380D02*
X59798295Y-145662665D01*
X59798295Y-145662665D02*
X59798295Y-145738856D01*
X59798295Y-145738856D02*
X59760200Y-145853142D01*
X59760200Y-145853142D02*
X59684009Y-145929332D01*
X59684009Y-145929332D02*
X59607819Y-145967427D01*
X59607819Y-145967427D02*
X59455438Y-146005523D01*
X59455438Y-146005523D02*
X59341152Y-146005523D01*
X59341152Y-146005523D02*
X59188771Y-145967427D01*
X59188771Y-145967427D02*
X59112580Y-145929332D01*
X59112580Y-145929332D02*
X59036390Y-145853142D01*
X59036390Y-145853142D02*
X58998295Y-145738856D01*
X58998295Y-145738856D02*
X58998295Y-145662665D01*
X58998295Y-145662665D02*
X59036390Y-145548380D01*
X59036390Y-145548380D02*
X59074485Y-145510284D01*
X59722104Y-145167427D02*
X59760200Y-145129332D01*
X59760200Y-145129332D02*
X59798295Y-145167427D01*
X59798295Y-145167427D02*
X59760200Y-145205523D01*
X59760200Y-145205523D02*
X59722104Y-145167427D01*
X59722104Y-145167427D02*
X59798295Y-145167427D01*
X59303057Y-145167427D02*
X59341152Y-145129332D01*
X59341152Y-145129332D02*
X59379247Y-145167427D01*
X59379247Y-145167427D02*
X59341152Y-145205523D01*
X59341152Y-145205523D02*
X59303057Y-145167427D01*
X59303057Y-145167427D02*
X59379247Y-145167427D01*
X59569723Y-144824571D02*
X59569723Y-144443618D01*
X59798295Y-144900761D02*
X58998295Y-144634094D01*
X58998295Y-144634094D02*
X59798295Y-144367428D01*
X31096295Y-98202570D02*
X30296295Y-98202570D01*
X30296295Y-98202570D02*
X30296295Y-97973999D01*
X30296295Y-97973999D02*
X30334390Y-97916856D01*
X30334390Y-97916856D02*
X30372485Y-97888285D01*
X30372485Y-97888285D02*
X30448676Y-97859713D01*
X30448676Y-97859713D02*
X30562961Y-97859713D01*
X30562961Y-97859713D02*
X30639152Y-97888285D01*
X30639152Y-97888285D02*
X30677247Y-97916856D01*
X30677247Y-97916856D02*
X30715342Y-97973999D01*
X30715342Y-97973999D02*
X30715342Y-98202570D01*
X30296295Y-97659713D02*
X31096295Y-97516856D01*
X31096295Y-97516856D02*
X30524866Y-97402570D01*
X30524866Y-97402570D02*
X31096295Y-97288285D01*
X31096295Y-97288285D02*
X30296295Y-97145428D01*
X31096295Y-96573999D02*
X30715342Y-96773999D01*
X31096295Y-96916856D02*
X30296295Y-96916856D01*
X30296295Y-96916856D02*
X30296295Y-96688285D01*
X30296295Y-96688285D02*
X30334390Y-96631142D01*
X30334390Y-96631142D02*
X30372485Y-96602571D01*
X30372485Y-96602571D02*
X30448676Y-96573999D01*
X30448676Y-96573999D02*
X30562961Y-96573999D01*
X30562961Y-96573999D02*
X30639152Y-96602571D01*
X30639152Y-96602571D02*
X30677247Y-96631142D01*
X30677247Y-96631142D02*
X30715342Y-96688285D01*
X30715342Y-96688285D02*
X30715342Y-96916856D01*
X30791533Y-96316856D02*
X30791533Y-95859714D01*
X30867723Y-95602571D02*
X30867723Y-95316857D01*
X31096295Y-95659714D02*
X30296295Y-95459714D01*
X30296295Y-95459714D02*
X31096295Y-95259714D01*
X31096295Y-94689427D02*
X30296295Y-94689427D01*
X30296295Y-94689427D02*
X30296295Y-94460856D01*
X30296295Y-94460856D02*
X30334390Y-94403713D01*
X30334390Y-94403713D02*
X30372485Y-94375142D01*
X30372485Y-94375142D02*
X30448676Y-94346570D01*
X30448676Y-94346570D02*
X30562961Y-94346570D01*
X30562961Y-94346570D02*
X30639152Y-94375142D01*
X30639152Y-94375142D02*
X30677247Y-94403713D01*
X30677247Y-94403713D02*
X30715342Y-94460856D01*
X30715342Y-94460856D02*
X30715342Y-94689427D01*
X30296295Y-94146570D02*
X31096295Y-94003713D01*
X31096295Y-94003713D02*
X30524866Y-93889427D01*
X30524866Y-93889427D02*
X31096295Y-93775142D01*
X31096295Y-93775142D02*
X30296295Y-93632285D01*
X31096295Y-93060856D02*
X30715342Y-93260856D01*
X31096295Y-93403713D02*
X30296295Y-93403713D01*
X30296295Y-93403713D02*
X30296295Y-93175142D01*
X30296295Y-93175142D02*
X30334390Y-93117999D01*
X30334390Y-93117999D02*
X30372485Y-93089428D01*
X30372485Y-93089428D02*
X30448676Y-93060856D01*
X30448676Y-93060856D02*
X30562961Y-93060856D01*
X30562961Y-93060856D02*
X30639152Y-93089428D01*
X30639152Y-93089428D02*
X30677247Y-93117999D01*
X30677247Y-93117999D02*
X30715342Y-93175142D01*
X30715342Y-93175142D02*
X30715342Y-93403713D01*
X30791533Y-92803713D02*
X30791533Y-92346571D01*
X30677247Y-91860856D02*
X30715342Y-91775142D01*
X30715342Y-91775142D02*
X30753438Y-91746571D01*
X30753438Y-91746571D02*
X30829628Y-91717999D01*
X30829628Y-91717999D02*
X30943914Y-91717999D01*
X30943914Y-91717999D02*
X31020104Y-91746571D01*
X31020104Y-91746571D02*
X31058200Y-91775142D01*
X31058200Y-91775142D02*
X31096295Y-91832285D01*
X31096295Y-91832285D02*
X31096295Y-92060856D01*
X31096295Y-92060856D02*
X30296295Y-92060856D01*
X30296295Y-92060856D02*
X30296295Y-91860856D01*
X30296295Y-91860856D02*
X30334390Y-91803714D01*
X30334390Y-91803714D02*
X30372485Y-91775142D01*
X30372485Y-91775142D02*
X30448676Y-91746571D01*
X30448676Y-91746571D02*
X30524866Y-91746571D01*
X30524866Y-91746571D02*
X30601057Y-91775142D01*
X30601057Y-91775142D02*
X30639152Y-91803714D01*
X30639152Y-91803714D02*
X30677247Y-91860856D01*
X30677247Y-91860856D02*
X30677247Y-92060856D01*
X59798295Y-151231427D02*
X58998295Y-151231427D01*
X59074485Y-150888571D02*
X59036390Y-150850475D01*
X59036390Y-150850475D02*
X58998295Y-150774285D01*
X58998295Y-150774285D02*
X58998295Y-150583809D01*
X58998295Y-150583809D02*
X59036390Y-150507618D01*
X59036390Y-150507618D02*
X59074485Y-150469523D01*
X59074485Y-150469523D02*
X59150676Y-150431428D01*
X59150676Y-150431428D02*
X59226866Y-150431428D01*
X59226866Y-150431428D02*
X59341152Y-150469523D01*
X59341152Y-150469523D02*
X59798295Y-150926666D01*
X59798295Y-150926666D02*
X59798295Y-150431428D01*
X59722104Y-149631427D02*
X59760200Y-149669523D01*
X59760200Y-149669523D02*
X59798295Y-149783808D01*
X59798295Y-149783808D02*
X59798295Y-149859999D01*
X59798295Y-149859999D02*
X59760200Y-149974285D01*
X59760200Y-149974285D02*
X59684009Y-150050475D01*
X59684009Y-150050475D02*
X59607819Y-150088570D01*
X59607819Y-150088570D02*
X59455438Y-150126666D01*
X59455438Y-150126666D02*
X59341152Y-150126666D01*
X59341152Y-150126666D02*
X59188771Y-150088570D01*
X59188771Y-150088570D02*
X59112580Y-150050475D01*
X59112580Y-150050475D02*
X59036390Y-149974285D01*
X59036390Y-149974285D02*
X58998295Y-149859999D01*
X58998295Y-149859999D02*
X58998295Y-149783808D01*
X58998295Y-149783808D02*
X59036390Y-149669523D01*
X59036390Y-149669523D02*
X59074485Y-149631427D01*
X59722104Y-149288570D02*
X59760200Y-149250475D01*
X59760200Y-149250475D02*
X59798295Y-149288570D01*
X59798295Y-149288570D02*
X59760200Y-149326666D01*
X59760200Y-149326666D02*
X59722104Y-149288570D01*
X59722104Y-149288570D02*
X59798295Y-149288570D01*
X59303057Y-149288570D02*
X59341152Y-149250475D01*
X59341152Y-149250475D02*
X59379247Y-149288570D01*
X59379247Y-149288570D02*
X59341152Y-149326666D01*
X59341152Y-149326666D02*
X59303057Y-149288570D01*
X59303057Y-149288570D02*
X59379247Y-149288570D01*
X59379247Y-148640952D02*
X59417342Y-148526666D01*
X59417342Y-148526666D02*
X59455438Y-148488571D01*
X59455438Y-148488571D02*
X59531628Y-148450475D01*
X59531628Y-148450475D02*
X59645914Y-148450475D01*
X59645914Y-148450475D02*
X59722104Y-148488571D01*
X59722104Y-148488571D02*
X59760200Y-148526666D01*
X59760200Y-148526666D02*
X59798295Y-148602856D01*
X59798295Y-148602856D02*
X59798295Y-148907618D01*
X59798295Y-148907618D02*
X58998295Y-148907618D01*
X58998295Y-148907618D02*
X58998295Y-148640952D01*
X58998295Y-148640952D02*
X59036390Y-148564761D01*
X59036390Y-148564761D02*
X59074485Y-148526666D01*
X59074485Y-148526666D02*
X59150676Y-148488571D01*
X59150676Y-148488571D02*
X59226866Y-148488571D01*
X59226866Y-148488571D02*
X59303057Y-148526666D01*
X59303057Y-148526666D02*
X59341152Y-148564761D01*
X59341152Y-148564761D02*
X59379247Y-148640952D01*
X59379247Y-148640952D02*
X59379247Y-148907618D01*
X36538819Y-105901904D02*
X37253104Y-105901904D01*
X37253104Y-105901904D02*
X37395961Y-105949523D01*
X37395961Y-105949523D02*
X37491200Y-106044761D01*
X37491200Y-106044761D02*
X37538819Y-106187618D01*
X37538819Y-106187618D02*
X37538819Y-106282856D01*
X37491200Y-105473332D02*
X37538819Y-105330475D01*
X37538819Y-105330475D02*
X37538819Y-105092380D01*
X37538819Y-105092380D02*
X37491200Y-104997142D01*
X37491200Y-104997142D02*
X37443580Y-104949523D01*
X37443580Y-104949523D02*
X37348342Y-104901904D01*
X37348342Y-104901904D02*
X37253104Y-104901904D01*
X37253104Y-104901904D02*
X37157866Y-104949523D01*
X37157866Y-104949523D02*
X37110247Y-104997142D01*
X37110247Y-104997142D02*
X37062628Y-105092380D01*
X37062628Y-105092380D02*
X37015009Y-105282856D01*
X37015009Y-105282856D02*
X36967390Y-105378094D01*
X36967390Y-105378094D02*
X36919771Y-105425713D01*
X36919771Y-105425713D02*
X36824533Y-105473332D01*
X36824533Y-105473332D02*
X36729295Y-105473332D01*
X36729295Y-105473332D02*
X36634057Y-105425713D01*
X36634057Y-105425713D02*
X36586438Y-105378094D01*
X36586438Y-105378094D02*
X36538819Y-105282856D01*
X36538819Y-105282856D02*
X36538819Y-105044761D01*
X36538819Y-105044761D02*
X36586438Y-104901904D01*
X36538819Y-104616189D02*
X36538819Y-104044761D01*
X37538819Y-104330475D02*
X36538819Y-104330475D01*
X37157866Y-103711427D02*
X37157866Y-102949523D01*
X37253104Y-102520951D02*
X37253104Y-102044761D01*
X37538819Y-102616189D02*
X36538819Y-102282856D01*
X36538819Y-102282856D02*
X37538819Y-101949523D01*
X35902819Y-127080856D02*
X36712342Y-127080856D01*
X36712342Y-127080856D02*
X36807580Y-127033237D01*
X36807580Y-127033237D02*
X36855200Y-126985618D01*
X36855200Y-126985618D02*
X36902819Y-126890380D01*
X36902819Y-126890380D02*
X36902819Y-126699904D01*
X36902819Y-126699904D02*
X36855200Y-126604666D01*
X36855200Y-126604666D02*
X36807580Y-126557047D01*
X36807580Y-126557047D02*
X36712342Y-126509428D01*
X36712342Y-126509428D02*
X35902819Y-126509428D01*
X36855200Y-126080856D02*
X36902819Y-125937999D01*
X36902819Y-125937999D02*
X36902819Y-125699904D01*
X36902819Y-125699904D02*
X36855200Y-125604666D01*
X36855200Y-125604666D02*
X36807580Y-125557047D01*
X36807580Y-125557047D02*
X36712342Y-125509428D01*
X36712342Y-125509428D02*
X36617104Y-125509428D01*
X36617104Y-125509428D02*
X36521866Y-125557047D01*
X36521866Y-125557047D02*
X36474247Y-125604666D01*
X36474247Y-125604666D02*
X36426628Y-125699904D01*
X36426628Y-125699904D02*
X36379009Y-125890380D01*
X36379009Y-125890380D02*
X36331390Y-125985618D01*
X36331390Y-125985618D02*
X36283771Y-126033237D01*
X36283771Y-126033237D02*
X36188533Y-126080856D01*
X36188533Y-126080856D02*
X36093295Y-126080856D01*
X36093295Y-126080856D02*
X35998057Y-126033237D01*
X35998057Y-126033237D02*
X35950438Y-125985618D01*
X35950438Y-125985618D02*
X35902819Y-125890380D01*
X35902819Y-125890380D02*
X35902819Y-125652285D01*
X35902819Y-125652285D02*
X35950438Y-125509428D01*
X36379009Y-124747523D02*
X36426628Y-124604666D01*
X36426628Y-124604666D02*
X36474247Y-124557047D01*
X36474247Y-124557047D02*
X36569485Y-124509428D01*
X36569485Y-124509428D02*
X36712342Y-124509428D01*
X36712342Y-124509428D02*
X36807580Y-124557047D01*
X36807580Y-124557047D02*
X36855200Y-124604666D01*
X36855200Y-124604666D02*
X36902819Y-124699904D01*
X36902819Y-124699904D02*
X36902819Y-125080856D01*
X36902819Y-125080856D02*
X35902819Y-125080856D01*
X35902819Y-125080856D02*
X35902819Y-124747523D01*
X35902819Y-124747523D02*
X35950438Y-124652285D01*
X35950438Y-124652285D02*
X35998057Y-124604666D01*
X35998057Y-124604666D02*
X36093295Y-124557047D01*
X36093295Y-124557047D02*
X36188533Y-124557047D01*
X36188533Y-124557047D02*
X36283771Y-124604666D01*
X36283771Y-124604666D02*
X36331390Y-124652285D01*
X36331390Y-124652285D02*
X36379009Y-124747523D01*
X36379009Y-124747523D02*
X36379009Y-125080856D01*
X36998057Y-124318952D02*
X36998057Y-123557047D01*
X36379009Y-122985618D02*
X36426628Y-122842761D01*
X36426628Y-122842761D02*
X36474247Y-122795142D01*
X36474247Y-122795142D02*
X36569485Y-122747523D01*
X36569485Y-122747523D02*
X36712342Y-122747523D01*
X36712342Y-122747523D02*
X36807580Y-122795142D01*
X36807580Y-122795142D02*
X36855200Y-122842761D01*
X36855200Y-122842761D02*
X36902819Y-122937999D01*
X36902819Y-122937999D02*
X36902819Y-123318951D01*
X36902819Y-123318951D02*
X35902819Y-123318951D01*
X35902819Y-123318951D02*
X35902819Y-122985618D01*
X35902819Y-122985618D02*
X35950438Y-122890380D01*
X35950438Y-122890380D02*
X35998057Y-122842761D01*
X35998057Y-122842761D02*
X36093295Y-122795142D01*
X36093295Y-122795142D02*
X36188533Y-122795142D01*
X36188533Y-122795142D02*
X36283771Y-122842761D01*
X36283771Y-122842761D02*
X36331390Y-122890380D01*
X36331390Y-122890380D02*
X36379009Y-122985618D01*
X36379009Y-122985618D02*
X36379009Y-123318951D01*
X36538819Y-116133333D02*
X37253104Y-116133333D01*
X37253104Y-116133333D02*
X37395961Y-116180952D01*
X37395961Y-116180952D02*
X37491200Y-116276190D01*
X37491200Y-116276190D02*
X37538819Y-116419047D01*
X37538819Y-116419047D02*
X37538819Y-116514285D01*
X37491200Y-115704761D02*
X37538819Y-115561904D01*
X37538819Y-115561904D02*
X37538819Y-115323809D01*
X37538819Y-115323809D02*
X37491200Y-115228571D01*
X37491200Y-115228571D02*
X37443580Y-115180952D01*
X37443580Y-115180952D02*
X37348342Y-115133333D01*
X37348342Y-115133333D02*
X37253104Y-115133333D01*
X37253104Y-115133333D02*
X37157866Y-115180952D01*
X37157866Y-115180952D02*
X37110247Y-115228571D01*
X37110247Y-115228571D02*
X37062628Y-115323809D01*
X37062628Y-115323809D02*
X37015009Y-115514285D01*
X37015009Y-115514285D02*
X36967390Y-115609523D01*
X36967390Y-115609523D02*
X36919771Y-115657142D01*
X36919771Y-115657142D02*
X36824533Y-115704761D01*
X36824533Y-115704761D02*
X36729295Y-115704761D01*
X36729295Y-115704761D02*
X36634057Y-115657142D01*
X36634057Y-115657142D02*
X36586438Y-115609523D01*
X36586438Y-115609523D02*
X36538819Y-115514285D01*
X36538819Y-115514285D02*
X36538819Y-115276190D01*
X36538819Y-115276190D02*
X36586438Y-115133333D01*
X36538819Y-114847618D02*
X36538819Y-114276190D01*
X37538819Y-114561904D02*
X36538819Y-114561904D01*
X37157866Y-113942856D02*
X37157866Y-113180952D01*
X37015009Y-112371428D02*
X37062628Y-112228571D01*
X37062628Y-112228571D02*
X37110247Y-112180952D01*
X37110247Y-112180952D02*
X37205485Y-112133333D01*
X37205485Y-112133333D02*
X37348342Y-112133333D01*
X37348342Y-112133333D02*
X37443580Y-112180952D01*
X37443580Y-112180952D02*
X37491200Y-112228571D01*
X37491200Y-112228571D02*
X37538819Y-112323809D01*
X37538819Y-112323809D02*
X37538819Y-112704761D01*
X37538819Y-112704761D02*
X36538819Y-112704761D01*
X36538819Y-112704761D02*
X36538819Y-112371428D01*
X36538819Y-112371428D02*
X36586438Y-112276190D01*
X36586438Y-112276190D02*
X36634057Y-112228571D01*
X36634057Y-112228571D02*
X36729295Y-112180952D01*
X36729295Y-112180952D02*
X36824533Y-112180952D01*
X36824533Y-112180952D02*
X36919771Y-112228571D01*
X36919771Y-112228571D02*
X36967390Y-112276190D01*
X36967390Y-112276190D02*
X37015009Y-112371428D01*
X37015009Y-112371428D02*
X37015009Y-112704761D01*
X34647428Y-144457009D02*
X34790285Y-144504628D01*
X34790285Y-144504628D02*
X34837904Y-144552247D01*
X34837904Y-144552247D02*
X34885523Y-144647485D01*
X34885523Y-144647485D02*
X34885523Y-144790342D01*
X34885523Y-144790342D02*
X34837904Y-144885580D01*
X34837904Y-144885580D02*
X34790285Y-144933200D01*
X34790285Y-144933200D02*
X34695047Y-144980819D01*
X34695047Y-144980819D02*
X34314095Y-144980819D01*
X34314095Y-144980819D02*
X34314095Y-143980819D01*
X34314095Y-143980819D02*
X34647428Y-143980819D01*
X34647428Y-143980819D02*
X34742666Y-144028438D01*
X34742666Y-144028438D02*
X34790285Y-144076057D01*
X34790285Y-144076057D02*
X34837904Y-144171295D01*
X34837904Y-144171295D02*
X34837904Y-144266533D01*
X34837904Y-144266533D02*
X34790285Y-144361771D01*
X34790285Y-144361771D02*
X34742666Y-144409390D01*
X34742666Y-144409390D02*
X34647428Y-144457009D01*
X34647428Y-144457009D02*
X34314095Y-144457009D01*
X35742666Y-144314152D02*
X35742666Y-144980819D01*
X35314095Y-144314152D02*
X35314095Y-144837961D01*
X35314095Y-144837961D02*
X35361714Y-144933200D01*
X35361714Y-144933200D02*
X35456952Y-144980819D01*
X35456952Y-144980819D02*
X35599809Y-144980819D01*
X35599809Y-144980819D02*
X35695047Y-144933200D01*
X35695047Y-144933200D02*
X35742666Y-144885580D01*
X36123619Y-144314152D02*
X36647428Y-144314152D01*
X36647428Y-144314152D02*
X36123619Y-144980819D01*
X36123619Y-144980819D02*
X36647428Y-144980819D01*
X36933143Y-144314152D02*
X37456952Y-144314152D01*
X37456952Y-144314152D02*
X36933143Y-144980819D01*
X36933143Y-144980819D02*
X37456952Y-144980819D01*
X38218857Y-144933200D02*
X38123619Y-144980819D01*
X38123619Y-144980819D02*
X37933143Y-144980819D01*
X37933143Y-144980819D02*
X37837905Y-144933200D01*
X37837905Y-144933200D02*
X37790286Y-144837961D01*
X37790286Y-144837961D02*
X37790286Y-144457009D01*
X37790286Y-144457009D02*
X37837905Y-144361771D01*
X37837905Y-144361771D02*
X37933143Y-144314152D01*
X37933143Y-144314152D02*
X38123619Y-144314152D01*
X38123619Y-144314152D02*
X38218857Y-144361771D01*
X38218857Y-144361771D02*
X38266476Y-144457009D01*
X38266476Y-144457009D02*
X38266476Y-144552247D01*
X38266476Y-144552247D02*
X37790286Y-144647485D01*
X38695048Y-144980819D02*
X38695048Y-144314152D01*
X38695048Y-144504628D02*
X38742667Y-144409390D01*
X38742667Y-144409390D02*
X38790286Y-144361771D01*
X38790286Y-144361771D02*
X38885524Y-144314152D01*
X38885524Y-144314152D02*
X38980762Y-144314152D01*
X39497048Y-149955866D02*
X40258953Y-149955866D01*
X39878000Y-150336819D02*
X39878000Y-149574914D01*
X32411200Y-88875904D02*
X32458819Y-88780666D01*
X32458819Y-88780666D02*
X32458819Y-88590190D01*
X32458819Y-88590190D02*
X32411200Y-88494952D01*
X32411200Y-88494952D02*
X32315961Y-88447333D01*
X32315961Y-88447333D02*
X32268342Y-88447333D01*
X32268342Y-88447333D02*
X32173104Y-88494952D01*
X32173104Y-88494952D02*
X32125485Y-88590190D01*
X32125485Y-88590190D02*
X32125485Y-88733047D01*
X32125485Y-88733047D02*
X32077866Y-88828285D01*
X32077866Y-88828285D02*
X31982628Y-88875904D01*
X31982628Y-88875904D02*
X31935009Y-88875904D01*
X31935009Y-88875904D02*
X31839771Y-88828285D01*
X31839771Y-88828285D02*
X31792152Y-88733047D01*
X31792152Y-88733047D02*
X31792152Y-88590190D01*
X31792152Y-88590190D02*
X31839771Y-88494952D01*
X32411200Y-87637809D02*
X32458819Y-87733047D01*
X32458819Y-87733047D02*
X32458819Y-87923523D01*
X32458819Y-87923523D02*
X32411200Y-88018761D01*
X32411200Y-88018761D02*
X32315961Y-88066380D01*
X32315961Y-88066380D02*
X31935009Y-88066380D01*
X31935009Y-88066380D02*
X31839771Y-88018761D01*
X31839771Y-88018761D02*
X31792152Y-87923523D01*
X31792152Y-87923523D02*
X31792152Y-87733047D01*
X31792152Y-87733047D02*
X31839771Y-87637809D01*
X31839771Y-87637809D02*
X31935009Y-87590190D01*
X31935009Y-87590190D02*
X32030247Y-87590190D01*
X32030247Y-87590190D02*
X32125485Y-88066380D01*
X32458819Y-87161618D02*
X31792152Y-87161618D01*
X31982628Y-87161618D02*
X31887390Y-87113999D01*
X31887390Y-87113999D02*
X31839771Y-87066380D01*
X31839771Y-87066380D02*
X31792152Y-86971142D01*
X31792152Y-86971142D02*
X31792152Y-86875904D01*
X31792152Y-86637808D02*
X32458819Y-86399713D01*
X32458819Y-86399713D02*
X31792152Y-86161618D01*
X32458819Y-85637808D02*
X32411200Y-85733046D01*
X32411200Y-85733046D02*
X32363580Y-85780665D01*
X32363580Y-85780665D02*
X32268342Y-85828284D01*
X32268342Y-85828284D02*
X31982628Y-85828284D01*
X31982628Y-85828284D02*
X31887390Y-85780665D01*
X31887390Y-85780665D02*
X31839771Y-85733046D01*
X31839771Y-85733046D02*
X31792152Y-85637808D01*
X31792152Y-85637808D02*
X31792152Y-85494951D01*
X31792152Y-85494951D02*
X31839771Y-85399713D01*
X31839771Y-85399713D02*
X31887390Y-85352094D01*
X31887390Y-85352094D02*
X31982628Y-85304475D01*
X31982628Y-85304475D02*
X32268342Y-85304475D01*
X32268342Y-85304475D02*
X32363580Y-85352094D01*
X32363580Y-85352094D02*
X32411200Y-85399713D01*
X32411200Y-85399713D02*
X32458819Y-85494951D01*
X32458819Y-85494951D02*
X32458819Y-85637808D01*
X32458819Y-84352094D02*
X32458819Y-84923522D01*
X32458819Y-84637808D02*
X31458819Y-84637808D01*
X31458819Y-84637808D02*
X31601676Y-84733046D01*
X31601676Y-84733046D02*
X31696914Y-84828284D01*
X31696914Y-84828284D02*
X31744533Y-84923522D01*
X56166285Y-89100819D02*
X56166285Y-88434152D01*
X56166285Y-88624628D02*
X56213904Y-88529390D01*
X56213904Y-88529390D02*
X56261523Y-88481771D01*
X56261523Y-88481771D02*
X56356761Y-88434152D01*
X56356761Y-88434152D02*
X56451999Y-88434152D01*
X57166285Y-89053200D02*
X57071047Y-89100819D01*
X57071047Y-89100819D02*
X56880571Y-89100819D01*
X56880571Y-89100819D02*
X56785333Y-89053200D01*
X56785333Y-89053200D02*
X56737714Y-88957961D01*
X56737714Y-88957961D02*
X56737714Y-88577009D01*
X56737714Y-88577009D02*
X56785333Y-88481771D01*
X56785333Y-88481771D02*
X56880571Y-88434152D01*
X56880571Y-88434152D02*
X57071047Y-88434152D01*
X57071047Y-88434152D02*
X57166285Y-88481771D01*
X57166285Y-88481771D02*
X57213904Y-88577009D01*
X57213904Y-88577009D02*
X57213904Y-88672247D01*
X57213904Y-88672247D02*
X56737714Y-88767485D01*
X57594857Y-89053200D02*
X57690095Y-89100819D01*
X57690095Y-89100819D02*
X57880571Y-89100819D01*
X57880571Y-89100819D02*
X57975809Y-89053200D01*
X57975809Y-89053200D02*
X58023428Y-88957961D01*
X58023428Y-88957961D02*
X58023428Y-88910342D01*
X58023428Y-88910342D02*
X57975809Y-88815104D01*
X57975809Y-88815104D02*
X57880571Y-88767485D01*
X57880571Y-88767485D02*
X57737714Y-88767485D01*
X57737714Y-88767485D02*
X57642476Y-88719866D01*
X57642476Y-88719866D02*
X57594857Y-88624628D01*
X57594857Y-88624628D02*
X57594857Y-88577009D01*
X57594857Y-88577009D02*
X57642476Y-88481771D01*
X57642476Y-88481771D02*
X57737714Y-88434152D01*
X57737714Y-88434152D02*
X57880571Y-88434152D01*
X57880571Y-88434152D02*
X57975809Y-88481771D01*
X58832952Y-89053200D02*
X58737714Y-89100819D01*
X58737714Y-89100819D02*
X58547238Y-89100819D01*
X58547238Y-89100819D02*
X58452000Y-89053200D01*
X58452000Y-89053200D02*
X58404381Y-88957961D01*
X58404381Y-88957961D02*
X58404381Y-88577009D01*
X58404381Y-88577009D02*
X58452000Y-88481771D01*
X58452000Y-88481771D02*
X58547238Y-88434152D01*
X58547238Y-88434152D02*
X58737714Y-88434152D01*
X58737714Y-88434152D02*
X58832952Y-88481771D01*
X58832952Y-88481771D02*
X58880571Y-88577009D01*
X58880571Y-88577009D02*
X58880571Y-88672247D01*
X58880571Y-88672247D02*
X58404381Y-88767485D01*
X59166286Y-88434152D02*
X59547238Y-88434152D01*
X59309143Y-88100819D02*
X59309143Y-88957961D01*
X59309143Y-88957961D02*
X59356762Y-89053200D01*
X59356762Y-89053200D02*
X59452000Y-89100819D01*
X59452000Y-89100819D02*
X59547238Y-89100819D01*
X59880572Y-88719866D02*
X60642477Y-88719866D01*
X61071048Y-89053200D02*
X61166286Y-89100819D01*
X61166286Y-89100819D02*
X61356762Y-89100819D01*
X61356762Y-89100819D02*
X61452000Y-89053200D01*
X61452000Y-89053200D02*
X61499619Y-88957961D01*
X61499619Y-88957961D02*
X61499619Y-88910342D01*
X61499619Y-88910342D02*
X61452000Y-88815104D01*
X61452000Y-88815104D02*
X61356762Y-88767485D01*
X61356762Y-88767485D02*
X61213905Y-88767485D01*
X61213905Y-88767485D02*
X61118667Y-88719866D01*
X61118667Y-88719866D02*
X61071048Y-88624628D01*
X61071048Y-88624628D02*
X61071048Y-88577009D01*
X61071048Y-88577009D02*
X61118667Y-88481771D01*
X61118667Y-88481771D02*
X61213905Y-88434152D01*
X61213905Y-88434152D02*
X61356762Y-88434152D01*
X61356762Y-88434152D02*
X61452000Y-88481771D01*
X61928191Y-88434152D02*
X61928191Y-89434152D01*
X61928191Y-88481771D02*
X62023429Y-88434152D01*
X62023429Y-88434152D02*
X62213905Y-88434152D01*
X62213905Y-88434152D02*
X62309143Y-88481771D01*
X62309143Y-88481771D02*
X62356762Y-88529390D01*
X62356762Y-88529390D02*
X62404381Y-88624628D01*
X62404381Y-88624628D02*
X62404381Y-88910342D01*
X62404381Y-88910342D02*
X62356762Y-89005580D01*
X62356762Y-89005580D02*
X62309143Y-89053200D01*
X62309143Y-89053200D02*
X62213905Y-89100819D01*
X62213905Y-89100819D02*
X62023429Y-89100819D01*
X62023429Y-89100819D02*
X61928191Y-89053200D01*
X63261524Y-89100819D02*
X63261524Y-88577009D01*
X63261524Y-88577009D02*
X63213905Y-88481771D01*
X63213905Y-88481771D02*
X63118667Y-88434152D01*
X63118667Y-88434152D02*
X62928191Y-88434152D01*
X62928191Y-88434152D02*
X62832953Y-88481771D01*
X63261524Y-89053200D02*
X63166286Y-89100819D01*
X63166286Y-89100819D02*
X62928191Y-89100819D01*
X62928191Y-89100819D02*
X62832953Y-89053200D01*
X62832953Y-89053200D02*
X62785334Y-88957961D01*
X62785334Y-88957961D02*
X62785334Y-88862723D01*
X62785334Y-88862723D02*
X62832953Y-88767485D01*
X62832953Y-88767485D02*
X62928191Y-88719866D01*
X62928191Y-88719866D02*
X63166286Y-88719866D01*
X63166286Y-88719866D02*
X63261524Y-88672247D01*
X63737715Y-89100819D02*
X63737715Y-88434152D01*
X63737715Y-88624628D02*
X63785334Y-88529390D01*
X63785334Y-88529390D02*
X63832953Y-88481771D01*
X63832953Y-88481771D02*
X63928191Y-88434152D01*
X63928191Y-88434152D02*
X64023429Y-88434152D01*
X64737715Y-89053200D02*
X64642477Y-89100819D01*
X64642477Y-89100819D02*
X64452001Y-89100819D01*
X64452001Y-89100819D02*
X64356763Y-89053200D01*
X64356763Y-89053200D02*
X64309144Y-88957961D01*
X64309144Y-88957961D02*
X64309144Y-88577009D01*
X64309144Y-88577009D02*
X64356763Y-88481771D01*
X64356763Y-88481771D02*
X64452001Y-88434152D01*
X64452001Y-88434152D02*
X64642477Y-88434152D01*
X64642477Y-88434152D02*
X64737715Y-88481771D01*
X64737715Y-88481771D02*
X64785334Y-88577009D01*
X64785334Y-88577009D02*
X64785334Y-88672247D01*
X64785334Y-88672247D02*
X64309144Y-88767485D01*
X30784819Y-138763071D02*
X30308628Y-139096404D01*
X30784819Y-139334499D02*
X29784819Y-139334499D01*
X29784819Y-139334499D02*
X29784819Y-138953547D01*
X29784819Y-138953547D02*
X29832438Y-138858309D01*
X29832438Y-138858309D02*
X29880057Y-138810690D01*
X29880057Y-138810690D02*
X29975295Y-138763071D01*
X29975295Y-138763071D02*
X30118152Y-138763071D01*
X30118152Y-138763071D02*
X30213390Y-138810690D01*
X30213390Y-138810690D02*
X30261009Y-138858309D01*
X30261009Y-138858309D02*
X30308628Y-138953547D01*
X30308628Y-138953547D02*
X30308628Y-139334499D01*
X29832438Y-137810690D02*
X29784819Y-137905928D01*
X29784819Y-137905928D02*
X29784819Y-138048785D01*
X29784819Y-138048785D02*
X29832438Y-138191642D01*
X29832438Y-138191642D02*
X29927676Y-138286880D01*
X29927676Y-138286880D02*
X30022914Y-138334499D01*
X30022914Y-138334499D02*
X30213390Y-138382118D01*
X30213390Y-138382118D02*
X30356247Y-138382118D01*
X30356247Y-138382118D02*
X30546723Y-138334499D01*
X30546723Y-138334499D02*
X30641961Y-138286880D01*
X30641961Y-138286880D02*
X30737200Y-138191642D01*
X30737200Y-138191642D02*
X30784819Y-138048785D01*
X30784819Y-138048785D02*
X30784819Y-137953547D01*
X30784819Y-137953547D02*
X30737200Y-137810690D01*
X30737200Y-137810690D02*
X30689580Y-137763071D01*
X30689580Y-137763071D02*
X30356247Y-137763071D01*
X30356247Y-137763071D02*
X30356247Y-137953547D01*
X30261009Y-137001166D02*
X30308628Y-136858309D01*
X30308628Y-136858309D02*
X30356247Y-136810690D01*
X30356247Y-136810690D02*
X30451485Y-136763071D01*
X30451485Y-136763071D02*
X30594342Y-136763071D01*
X30594342Y-136763071D02*
X30689580Y-136810690D01*
X30689580Y-136810690D02*
X30737200Y-136858309D01*
X30737200Y-136858309D02*
X30784819Y-136953547D01*
X30784819Y-136953547D02*
X30784819Y-137334499D01*
X30784819Y-137334499D02*
X29784819Y-137334499D01*
X29784819Y-137334499D02*
X29784819Y-137001166D01*
X29784819Y-137001166D02*
X29832438Y-136905928D01*
X29832438Y-136905928D02*
X29880057Y-136858309D01*
X29880057Y-136858309D02*
X29975295Y-136810690D01*
X29975295Y-136810690D02*
X30070533Y-136810690D01*
X30070533Y-136810690D02*
X30165771Y-136858309D01*
X30165771Y-136858309D02*
X30213390Y-136905928D01*
X30213390Y-136905928D02*
X30261009Y-137001166D01*
X30261009Y-137001166D02*
X30261009Y-137334499D01*
X30784819Y-135096404D02*
X30784819Y-135572594D01*
X30784819Y-135572594D02*
X29784819Y-135572594D01*
X30261009Y-134763070D02*
X30261009Y-134429737D01*
X30784819Y-134286880D02*
X30784819Y-134763070D01*
X30784819Y-134763070D02*
X29784819Y-134763070D01*
X29784819Y-134763070D02*
X29784819Y-134286880D01*
X30784819Y-133858308D02*
X29784819Y-133858308D01*
X29784819Y-133858308D02*
X29784819Y-133620213D01*
X29784819Y-133620213D02*
X29832438Y-133477356D01*
X29832438Y-133477356D02*
X29927676Y-133382118D01*
X29927676Y-133382118D02*
X30022914Y-133334499D01*
X30022914Y-133334499D02*
X30213390Y-133286880D01*
X30213390Y-133286880D02*
X30356247Y-133286880D01*
X30356247Y-133286880D02*
X30546723Y-133334499D01*
X30546723Y-133334499D02*
X30641961Y-133382118D01*
X30641961Y-133382118D02*
X30737200Y-133477356D01*
X30737200Y-133477356D02*
X30784819Y-133620213D01*
X30784819Y-133620213D02*
X30784819Y-133858308D01*
X46704475Y-147431700D02*
X46780666Y-147474557D01*
X46780666Y-147474557D02*
X46933047Y-147474557D01*
X46933047Y-147474557D02*
X47009237Y-147431700D01*
X47009237Y-147431700D02*
X47047333Y-147345985D01*
X47047333Y-147345985D02*
X47047333Y-147303128D01*
X47047333Y-147303128D02*
X47009237Y-147217414D01*
X47009237Y-147217414D02*
X46933047Y-147174557D01*
X46933047Y-147174557D02*
X46818761Y-147174557D01*
X46818761Y-147174557D02*
X46742571Y-147131700D01*
X46742571Y-147131700D02*
X46704475Y-147045985D01*
X46704475Y-147045985D02*
X46704475Y-147003128D01*
X46704475Y-147003128D02*
X46742571Y-146917414D01*
X46742571Y-146917414D02*
X46818761Y-146874557D01*
X46818761Y-146874557D02*
X46933047Y-146874557D01*
X46933047Y-146874557D02*
X47009237Y-146917414D01*
X47694952Y-147431700D02*
X47618761Y-147474557D01*
X47618761Y-147474557D02*
X47466380Y-147474557D01*
X47466380Y-147474557D02*
X47390190Y-147431700D01*
X47390190Y-147431700D02*
X47352094Y-147345985D01*
X47352094Y-147345985D02*
X47352094Y-147003128D01*
X47352094Y-147003128D02*
X47390190Y-146917414D01*
X47390190Y-146917414D02*
X47466380Y-146874557D01*
X47466380Y-146874557D02*
X47618761Y-146874557D01*
X47618761Y-146874557D02*
X47694952Y-146917414D01*
X47694952Y-146917414D02*
X47733047Y-147003128D01*
X47733047Y-147003128D02*
X47733047Y-147088842D01*
X47733047Y-147088842D02*
X47352094Y-147174557D01*
X48075904Y-147474557D02*
X48075904Y-146874557D01*
X48075904Y-147045985D02*
X48113999Y-146960271D01*
X48113999Y-146960271D02*
X48152094Y-146917414D01*
X48152094Y-146917414D02*
X48228285Y-146874557D01*
X48228285Y-146874557D02*
X48304475Y-146874557D01*
X48494951Y-146874557D02*
X48685427Y-147474557D01*
X48685427Y-147474557D02*
X48875904Y-146874557D01*
X49294951Y-147474557D02*
X49218761Y-147431700D01*
X49218761Y-147431700D02*
X49180666Y-147388842D01*
X49180666Y-147388842D02*
X49142570Y-147303128D01*
X49142570Y-147303128D02*
X49142570Y-147045985D01*
X49142570Y-147045985D02*
X49180666Y-146960271D01*
X49180666Y-146960271D02*
X49218761Y-146917414D01*
X49218761Y-146917414D02*
X49294951Y-146874557D01*
X49294951Y-146874557D02*
X49409237Y-146874557D01*
X49409237Y-146874557D02*
X49485428Y-146917414D01*
X49485428Y-146917414D02*
X49523523Y-146960271D01*
X49523523Y-146960271D02*
X49561618Y-147045985D01*
X49561618Y-147045985D02*
X49561618Y-147303128D01*
X49561618Y-147303128D02*
X49523523Y-147388842D01*
X49523523Y-147388842D02*
X49485428Y-147431700D01*
X49485428Y-147431700D02*
X49409237Y-147474557D01*
X49409237Y-147474557D02*
X49294951Y-147474557D01*
X49866380Y-146660271D02*
X49904476Y-146617414D01*
X49904476Y-146617414D02*
X49980666Y-146574557D01*
X49980666Y-146574557D02*
X50171142Y-146574557D01*
X50171142Y-146574557D02*
X50247333Y-146617414D01*
X50247333Y-146617414D02*
X50285428Y-146660271D01*
X50285428Y-146660271D02*
X50323523Y-146745985D01*
X50323523Y-146745985D02*
X50323523Y-146831700D01*
X50323523Y-146831700D02*
X50285428Y-146960271D01*
X50285428Y-146960271D02*
X49828285Y-147474557D01*
X49828285Y-147474557D02*
X50323523Y-147474557D01*
X70961428Y-142370557D02*
X70961428Y-141470557D01*
X70961428Y-141813414D02*
X71037618Y-141770557D01*
X71037618Y-141770557D02*
X71189999Y-141770557D01*
X71189999Y-141770557D02*
X71266190Y-141813414D01*
X71266190Y-141813414D02*
X71304285Y-141856271D01*
X71304285Y-141856271D02*
X71342380Y-141941985D01*
X71342380Y-141941985D02*
X71342380Y-142199128D01*
X71342380Y-142199128D02*
X71304285Y-142284842D01*
X71304285Y-142284842D02*
X71266190Y-142327700D01*
X71266190Y-142327700D02*
X71189999Y-142370557D01*
X71189999Y-142370557D02*
X71037618Y-142370557D01*
X71037618Y-142370557D02*
X70961428Y-142327700D01*
X72028095Y-141770557D02*
X72028095Y-142370557D01*
X71685238Y-141770557D02*
X71685238Y-142241985D01*
X71685238Y-142241985D02*
X71723333Y-142327700D01*
X71723333Y-142327700D02*
X71799523Y-142370557D01*
X71799523Y-142370557D02*
X71913809Y-142370557D01*
X71913809Y-142370557D02*
X71990000Y-142327700D01*
X71990000Y-142327700D02*
X72028095Y-142284842D01*
X72409048Y-142370557D02*
X72409048Y-141770557D01*
X72409048Y-141856271D02*
X72447143Y-141813414D01*
X72447143Y-141813414D02*
X72523333Y-141770557D01*
X72523333Y-141770557D02*
X72637619Y-141770557D01*
X72637619Y-141770557D02*
X72713810Y-141813414D01*
X72713810Y-141813414D02*
X72751905Y-141899128D01*
X72751905Y-141899128D02*
X72751905Y-142370557D01*
X72751905Y-141899128D02*
X72790000Y-141813414D01*
X72790000Y-141813414D02*
X72866191Y-141770557D01*
X72866191Y-141770557D02*
X72980476Y-141770557D01*
X72980476Y-141770557D02*
X73056667Y-141813414D01*
X73056667Y-141813414D02*
X73094762Y-141899128D01*
X73094762Y-141899128D02*
X73094762Y-142370557D01*
X73475715Y-141770557D02*
X73475715Y-142670557D01*
X73475715Y-141813414D02*
X73551905Y-141770557D01*
X73551905Y-141770557D02*
X73704286Y-141770557D01*
X73704286Y-141770557D02*
X73780477Y-141813414D01*
X73780477Y-141813414D02*
X73818572Y-141856271D01*
X73818572Y-141856271D02*
X73856667Y-141941985D01*
X73856667Y-141941985D02*
X73856667Y-142199128D01*
X73856667Y-142199128D02*
X73818572Y-142284842D01*
X73818572Y-142284842D02*
X73780477Y-142327700D01*
X73780477Y-142327700D02*
X73704286Y-142370557D01*
X73704286Y-142370557D02*
X73551905Y-142370557D01*
X73551905Y-142370557D02*
X73475715Y-142327700D01*
D15*
X40866000Y-94742000D02*
X43526000Y-94742000D01*
X40866000Y-94742000D02*
X40866000Y-140522000D01*
X40866000Y-140522000D02*
X43526000Y-140522000D01*
X43526000Y-94742000D02*
X43526000Y-140522000D01*
X43526000Y-92142000D02*
X43526000Y-93472000D01*
X42196000Y-92142000D02*
X43526000Y-92142000D01*
X72390000Y-92302000D02*
X73720000Y-92302000D01*
X73720000Y-92302000D02*
X73720000Y-93632000D01*
X73720000Y-94902000D02*
X73720000Y-130522000D01*
X71060000Y-130522000D02*
X73720000Y-130522000D01*
X71060000Y-94902000D02*
X71060000Y-130522000D01*
X71060000Y-94902000D02*
X73720000Y-94902000D01*
X38862000Y-121388000D02*
X38862000Y-120618000D01*
X38862000Y-113308000D02*
X38862000Y-114078000D01*
X40232000Y-120618000D02*
X40232000Y-114078000D01*
X37492000Y-120618000D02*
X40232000Y-120618000D01*
X37492000Y-114078000D02*
X37492000Y-120618000D01*
X40232000Y-114078000D02*
X37492000Y-114078000D01*
X37492000Y-108172000D02*
X40232000Y-108172000D01*
X40232000Y-108172000D02*
X40232000Y-101632000D01*
X40232000Y-101632000D02*
X37492000Y-101632000D01*
X37492000Y-101632000D02*
X37492000Y-108172000D01*
X38862000Y-108942000D02*
X38862000Y-108172000D01*
X38862000Y-100862000D02*
X38862000Y-101632000D01*
X40232000Y-127794000D02*
X37492000Y-127794000D01*
X37492000Y-127794000D02*
X37492000Y-134334000D01*
X37492000Y-134334000D02*
X40232000Y-134334000D01*
X40232000Y-134334000D02*
X40232000Y-127794000D01*
X38862000Y-127024000D02*
X38862000Y-127794000D01*
X38862000Y-135104000D02*
X38862000Y-134334000D01*
X67196000Y-92142000D02*
X68526000Y-92142000D01*
X68526000Y-92142000D02*
X68526000Y-93472000D01*
X68526000Y-94742000D02*
X68526000Y-140522000D01*
X65866000Y-140522000D02*
X68526000Y-140522000D01*
X65866000Y-94742000D02*
X65866000Y-140522000D01*
X65866000Y-94742000D02*
X68526000Y-94742000D01*
X71120000Y-144466000D02*
X71120000Y-147126000D01*
X71120000Y-144466000D02*
X60900000Y-144466000D01*
X60900000Y-144466000D02*
X60900000Y-147126000D01*
X71120000Y-147126000D02*
X60900000Y-147126000D01*
X73720000Y-147126000D02*
X72390000Y-147126000D01*
X73720000Y-145796000D02*
X73720000Y-147126000D01*
X48200000Y-94994000D02*
X50860000Y-94994000D01*
X48200000Y-94994000D02*
X48200000Y-130614000D01*
X48200000Y-130614000D02*
X50860000Y-130614000D01*
X50860000Y-94994000D02*
X50860000Y-130614000D01*
X50860000Y-92394000D02*
X50860000Y-93724000D01*
X49530000Y-92394000D02*
X50860000Y-92394000D01*
X34798000Y-97850000D02*
X34798000Y-95190000D01*
X34798000Y-97850000D02*
X39938000Y-97850000D01*
X39938000Y-97850000D02*
X39938000Y-95190000D01*
X34798000Y-95190000D02*
X39938000Y-95190000D01*
X32198000Y-95190000D02*
X33528000Y-95190000D01*
X32198000Y-96520000D02*
X32198000Y-95190000D01*
X32198000Y-93472000D02*
X32198000Y-92142000D01*
X32198000Y-92142000D02*
X33528000Y-92142000D01*
X34798000Y-92142000D02*
X39938000Y-92142000D01*
X39938000Y-94802000D02*
X39938000Y-92142000D01*
X34798000Y-94802000D02*
X39938000Y-94802000D01*
X34798000Y-94802000D02*
X34798000Y-92142000D01*
X73720000Y-149860000D02*
X73720000Y-151190000D01*
X73720000Y-151190000D02*
X72390000Y-151190000D01*
X71120000Y-151190000D02*
X60900000Y-151190000D01*
X60900000Y-148530000D02*
X60900000Y-151190000D01*
X71120000Y-148530000D02*
X60900000Y-148530000D01*
X71120000Y-148530000D02*
X71120000Y-151190000D01*
X36496000Y-100310000D02*
X30526000Y-100310000D01*
X30526000Y-100310000D02*
X30526000Y-107930000D01*
X30526000Y-107930000D02*
X36496000Y-107930000D01*
X36496000Y-107930000D02*
X36496000Y-100310000D01*
X36486000Y-103620000D02*
X35736000Y-103620000D01*
X35736000Y-103620000D02*
X35736000Y-104620000D01*
X35736000Y-104620000D02*
X36486000Y-104620000D01*
X36486000Y-104620000D02*
X36486000Y-103620000D01*
X36486000Y-100320000D02*
X35736000Y-100320000D01*
X35736000Y-100320000D02*
X35736000Y-102120000D01*
X35736000Y-102120000D02*
X36486000Y-102120000D01*
X36486000Y-102120000D02*
X36486000Y-100320000D01*
X36486000Y-106120000D02*
X35736000Y-106120000D01*
X35736000Y-106120000D02*
X35736000Y-107920000D01*
X35736000Y-107920000D02*
X36486000Y-107920000D01*
X36486000Y-107920000D02*
X36486000Y-106120000D01*
X34236000Y-100320000D02*
X34236000Y-101070000D01*
X34236000Y-101070000D02*
X31286000Y-101070000D01*
X31286000Y-101070000D02*
X31286000Y-104120000D01*
X34236000Y-107920000D02*
X34236000Y-107170000D01*
X34236000Y-107170000D02*
X31286000Y-107170000D01*
X31286000Y-107170000D02*
X31286000Y-104120000D01*
X36786000Y-101270000D02*
X36786000Y-100020000D01*
X36786000Y-100020000D02*
X35536000Y-100020000D01*
D14*
X32623000Y-129088000D02*
X32148000Y-129088000D01*
X32148000Y-129088000D02*
X32148000Y-120788000D01*
X32148000Y-120788000D02*
X32623000Y-120788000D01*
X34873000Y-129088000D02*
X35348000Y-129088000D01*
X35348000Y-129088000D02*
X35348000Y-120788000D01*
X35348000Y-120788000D02*
X34873000Y-120788000D01*
X31848000Y-127238000D02*
X31848000Y-125238000D01*
D15*
X36786000Y-110180000D02*
X35536000Y-110180000D01*
X36786000Y-111430000D02*
X36786000Y-110180000D01*
X31286000Y-117330000D02*
X31286000Y-114280000D01*
X34236000Y-117330000D02*
X31286000Y-117330000D01*
X34236000Y-118080000D02*
X34236000Y-117330000D01*
X31286000Y-111230000D02*
X31286000Y-114280000D01*
X34236000Y-111230000D02*
X31286000Y-111230000D01*
X34236000Y-110480000D02*
X34236000Y-111230000D01*
X36486000Y-118080000D02*
X36486000Y-116280000D01*
X35736000Y-118080000D02*
X36486000Y-118080000D01*
X35736000Y-116280000D02*
X35736000Y-118080000D01*
X36486000Y-116280000D02*
X35736000Y-116280000D01*
X36486000Y-112280000D02*
X36486000Y-110480000D01*
X35736000Y-112280000D02*
X36486000Y-112280000D01*
X35736000Y-110480000D02*
X35736000Y-112280000D01*
X36486000Y-110480000D02*
X35736000Y-110480000D01*
X36486000Y-114780000D02*
X36486000Y-113780000D01*
X35736000Y-114780000D02*
X36486000Y-114780000D01*
X35736000Y-113780000D02*
X35736000Y-114780000D01*
X36486000Y-113780000D02*
X35736000Y-113780000D01*
X36496000Y-118090000D02*
X36496000Y-110470000D01*
X30526000Y-118090000D02*
X36496000Y-118090000D01*
X30526000Y-110470000D02*
X30526000Y-118090000D01*
X36496000Y-110470000D02*
X30526000Y-110470000D01*
X42728000Y-148082000D02*
G75*
G02*
X30528000Y-148082000I-6100000J0D01*
G01*
X30528000Y-148082000D02*
G75*
G02*
X42728000Y-148082000I6100000J0D01*
G01*
X35814000Y-87944000D02*
X35814000Y-85284000D01*
X35814000Y-87944000D02*
X40954000Y-87944000D01*
X40954000Y-87944000D02*
X40954000Y-85284000D01*
X35814000Y-85284000D02*
X40954000Y-85284000D01*
X33214000Y-85284000D02*
X34544000Y-85284000D01*
X33214000Y-86614000D02*
X33214000Y-85284000D01*
X52832000Y-87690000D02*
X52832000Y-85030000D01*
X52832000Y-87690000D02*
X70672000Y-87690000D01*
X70672000Y-87690000D02*
X70672000Y-85030000D01*
X52832000Y-85030000D02*
X70672000Y-85030000D01*
X50232000Y-85030000D02*
X51562000Y-85030000D01*
X50232000Y-86360000D02*
X50232000Y-85030000D01*
X35834830Y-133774500D02*
G75*
G02*
X35370827Y-139122315I-1544830J-2560000D01*
G01*
X33209173Y-139122315D02*
G75*
G02*
X32745170Y-133774500I1080827J2787815D01*
G01*
X35370000Y-134079816D02*
G75*
G02*
X35370429Y-138588979I-1080000J-2254684D01*
G01*
X33209571Y-138588979D02*
G75*
G02*
X33210000Y-134079816I1080429J2254479D01*
G01*
X35835000Y-133774500D02*
X35370000Y-133774500D01*
X33210000Y-133774500D02*
X32745000Y-133774500D01*
X46990000Y-151190000D02*
X46990000Y-148530000D01*
X46990000Y-151190000D02*
X52130000Y-151190000D01*
X52130000Y-151190000D02*
X52130000Y-148530000D01*
X46990000Y-148530000D02*
X52130000Y-148530000D01*
X44390000Y-148530000D02*
X45720000Y-148530000D01*
X44390000Y-149860000D02*
X44390000Y-148530000D01*
X71060000Y-137922000D02*
X73720000Y-137922000D01*
X71060000Y-137922000D02*
X71060000Y-140522000D01*
X71060000Y-140522000D02*
X73720000Y-140522000D01*
X73720000Y-137922000D02*
X73720000Y-140522000D01*
X73720000Y-135322000D02*
X73720000Y-136652000D01*
X72390000Y-135322000D02*
X73720000Y-135322000D01*
%LPC*%
D16*
X42196000Y-93472000D03*
D17*
X42196000Y-96012000D03*
X42196000Y-98552000D03*
X42196000Y-101092000D03*
X42196000Y-103632000D03*
X42196000Y-106172000D03*
X42196000Y-108712000D03*
X42196000Y-111252000D03*
X42196000Y-113792000D03*
X42196000Y-116332000D03*
X42196000Y-118872000D03*
X42196000Y-121412000D03*
X42196000Y-123952000D03*
X42196000Y-126492000D03*
X42196000Y-129032000D03*
X42196000Y-131572000D03*
X42196000Y-134112000D03*
X42196000Y-136652000D03*
X42196000Y-139192000D03*
X72390000Y-129192000D03*
X72390000Y-126652000D03*
X72390000Y-124112000D03*
X72390000Y-121572000D03*
X72390000Y-119032000D03*
X72390000Y-116492000D03*
X72390000Y-113952000D03*
X72390000Y-111412000D03*
X72390000Y-108872000D03*
X72390000Y-106332000D03*
X72390000Y-103792000D03*
X72390000Y-101252000D03*
X72390000Y-98712000D03*
X72390000Y-96172000D03*
D16*
X72390000Y-93632000D03*
D18*
X38862000Y-122428000D03*
D19*
X38862000Y-112268000D03*
X38862000Y-109982000D03*
D18*
X38862000Y-99822000D03*
D19*
X38862000Y-125984000D03*
D18*
X38862000Y-136144000D03*
D17*
X67196000Y-139192000D03*
X67196000Y-136652000D03*
X67196000Y-134112000D03*
X67196000Y-131572000D03*
X67196000Y-129032000D03*
X67196000Y-126492000D03*
X67196000Y-123952000D03*
X67196000Y-121412000D03*
X67196000Y-118872000D03*
X67196000Y-116332000D03*
X67196000Y-113792000D03*
X67196000Y-111252000D03*
X67196000Y-108712000D03*
X67196000Y-106172000D03*
X67196000Y-103632000D03*
X67196000Y-101092000D03*
X67196000Y-98552000D03*
X67196000Y-96012000D03*
D16*
X67196000Y-93472000D03*
X72390000Y-145796000D03*
D17*
X69850000Y-145796000D03*
X67310000Y-145796000D03*
X64770000Y-145796000D03*
X62230000Y-145796000D03*
D16*
X49530000Y-93724000D03*
D17*
X49530000Y-96264000D03*
X49530000Y-98804000D03*
X49530000Y-101344000D03*
X49530000Y-103884000D03*
X49530000Y-106424000D03*
X49530000Y-108964000D03*
X49530000Y-111504000D03*
X49530000Y-114044000D03*
X49530000Y-116584000D03*
X49530000Y-119124000D03*
X49530000Y-121664000D03*
X49530000Y-124204000D03*
X49530000Y-126744000D03*
X49530000Y-129284000D03*
D16*
X33528000Y-96520000D03*
D17*
X36068000Y-96520000D03*
X38608000Y-96520000D03*
X38608000Y-93472000D03*
X36068000Y-93472000D03*
D16*
X33528000Y-93472000D03*
D17*
X62230000Y-149860000D03*
X64770000Y-149860000D03*
X67310000Y-149860000D03*
X69850000Y-149860000D03*
D16*
X72390000Y-149860000D03*
D20*
X34036000Y-102870000D03*
D21*
X34036000Y-105370000D03*
D22*
X33528000Y-126238000D03*
D23*
X34528000Y-125588000D03*
X33528000Y-124938000D03*
X34528000Y-124288000D03*
X33528000Y-123638000D03*
D24*
X33748000Y-128513000D03*
X33748000Y-121363000D03*
D21*
X34036000Y-115530000D03*
D20*
X34036000Y-113030000D03*
D25*
X39878000Y-148082000D03*
D19*
X33378000Y-148082000D03*
D16*
X34544000Y-86614000D03*
D17*
X37084000Y-86614000D03*
X39624000Y-86614000D03*
D16*
X51562000Y-86360000D03*
D17*
X54102000Y-86360000D03*
X56642000Y-86360000D03*
X59182000Y-86360000D03*
X61722000Y-86360000D03*
X64262000Y-86360000D03*
X66802000Y-86360000D03*
X69342000Y-86360000D03*
D26*
X34290000Y-132600000D03*
D27*
X34290000Y-135140000D03*
X34290000Y-137680000D03*
X34290000Y-140220000D03*
D16*
X45720000Y-149860000D03*
D17*
X48260000Y-149860000D03*
X50800000Y-149860000D03*
D16*
X72390000Y-136652000D03*
D17*
X72390000Y-139192000D03*
%LPD*%
M02*
