G04 #@! TF.GenerationSoftware,KiCad,Pcbnew,8.0.8*
G04 #@! TF.CreationDate,2025-03-22T13:31:19+00:00*
G04 #@! TF.ProjectId,ESP32adapt_PCB03,45535033-3261-4646-9170-745f50434230,rev?*
G04 #@! TF.SameCoordinates,Original*
G04 #@! TF.FileFunction,Copper,L2,Bot*
G04 #@! TF.FilePolarity,Positive*
%FSLAX46Y46*%
G04 Gerber Fmt 4.6, Leading zero omitted, Abs format (unit mm)*
G04 Created by KiCad (PCBNEW 8.0.8) date 2025-03-22 13:31:19*
%MOMM*%
%LPD*%
G01*
G04 APERTURE LIST*
G04 Aperture macros list*
%AMRoundRect*
0 Rectangle with rounded corners*
0 $1 Rounding radius*
0 $2 $3 $4 $5 $6 $7 $8 $9 X,Y pos of 4 corners*
0 Add a 4 corners polygon primitive as box body*
4,1,4,$2,$3,$4,$5,$6,$7,$8,$9,$2,$3,0*
0 Add four circle primitives for the rounded corners*
1,1,$1+$1,$2,$3*
1,1,$1+$1,$4,$5*
1,1,$1+$1,$6,$7*
1,1,$1+$1,$8,$9*
0 Add four rect primitives between the rounded corners*
20,1,$1+$1,$2,$3,$4,$5,0*
20,1,$1+$1,$4,$5,$6,$7,0*
20,1,$1+$1,$6,$7,$8,$9,0*
20,1,$1+$1,$8,$9,$2,$3,0*%
G04 Aperture macros list end*
G04 #@! TA.AperFunction,ComponentPad*
%ADD10R,1.700000X1.700000*%
G04 #@! TD*
G04 #@! TA.AperFunction,ComponentPad*
%ADD11O,1.700000X1.700000*%
G04 #@! TD*
G04 #@! TA.AperFunction,ComponentPad*
%ADD12O,1.600000X1.600000*%
G04 #@! TD*
G04 #@! TA.AperFunction,ComponentPad*
%ADD13C,1.600000*%
G04 #@! TD*
G04 #@! TA.AperFunction,ComponentPad*
%ADD14RoundRect,0.250000X-0.750000X0.600000X-0.750000X-0.600000X0.750000X-0.600000X0.750000X0.600000X0*%
G04 #@! TD*
G04 #@! TA.AperFunction,ComponentPad*
%ADD15O,2.000000X1.700000*%
G04 #@! TD*
G04 #@! TA.AperFunction,ComponentPad*
%ADD16R,0.840000X0.840000*%
G04 #@! TD*
G04 #@! TA.AperFunction,ComponentPad*
%ADD17C,0.840000*%
G04 #@! TD*
G04 #@! TA.AperFunction,ComponentPad*
%ADD18O,1.850000X0.850000*%
G04 #@! TD*
G04 #@! TA.AperFunction,ComponentPad*
%ADD19R,1.600000X1.600000*%
G04 #@! TD*
G04 #@! TA.AperFunction,ComponentPad*
%ADD20R,1.800000X1.800000*%
G04 #@! TD*
G04 #@! TA.AperFunction,ComponentPad*
%ADD21C,1.800000*%
G04 #@! TD*
G04 #@! TA.AperFunction,ViaPad*
%ADD22C,0.800000*%
G04 #@! TD*
G04 #@! TA.AperFunction,Conductor*
%ADD23C,0.500000*%
G04 #@! TD*
G04 #@! TA.AperFunction,Conductor*
%ADD24C,0.750000*%
G04 #@! TD*
G04 #@! TA.AperFunction,Conductor*
%ADD25C,0.250000*%
G04 #@! TD*
G04 APERTURE END LIST*
D10*
X42196000Y-93472000D03*
D11*
X42196000Y-96012000D03*
X42196000Y-98552000D03*
X42196000Y-101092000D03*
X42196000Y-103632000D03*
X42196000Y-106172000D03*
X42196000Y-108712000D03*
X42196000Y-111252000D03*
X42196000Y-113792000D03*
X42196000Y-116332000D03*
X42196000Y-118872000D03*
X42196000Y-121412000D03*
X42196000Y-123952000D03*
X42196000Y-126492000D03*
X42196000Y-129032000D03*
X42196000Y-131572000D03*
X42196000Y-134112000D03*
X42196000Y-136652000D03*
X42196000Y-139192000D03*
X72390000Y-129192000D03*
X72390000Y-126652000D03*
X72390000Y-124112000D03*
X72390000Y-121572000D03*
X72390000Y-119032000D03*
X72390000Y-116492000D03*
X72390000Y-113952000D03*
X72390000Y-111412000D03*
X72390000Y-108872000D03*
X72390000Y-106332000D03*
X72390000Y-103792000D03*
X72390000Y-101252000D03*
X72390000Y-98712000D03*
X72390000Y-96172000D03*
D10*
X72390000Y-93632000D03*
D12*
X38862000Y-122428000D03*
D13*
X38862000Y-112268000D03*
X38862000Y-109982000D03*
D12*
X38862000Y-99822000D03*
D13*
X38862000Y-125984000D03*
D12*
X38862000Y-136144000D03*
D11*
X67196000Y-139192000D03*
X67196000Y-136652000D03*
X67196000Y-134112000D03*
X67196000Y-131572000D03*
X67196000Y-129032000D03*
X67196000Y-126492000D03*
X67196000Y-123952000D03*
X67196000Y-121412000D03*
X67196000Y-118872000D03*
X67196000Y-116332000D03*
X67196000Y-113792000D03*
X67196000Y-111252000D03*
X67196000Y-108712000D03*
X67196000Y-106172000D03*
X67196000Y-103632000D03*
X67196000Y-101092000D03*
X67196000Y-98552000D03*
X67196000Y-96012000D03*
D10*
X67196000Y-93472000D03*
X72390000Y-145796000D03*
D11*
X69850000Y-145796000D03*
X67310000Y-145796000D03*
X64770000Y-145796000D03*
X62230000Y-145796000D03*
D10*
X49530000Y-93724000D03*
D11*
X49530000Y-96264000D03*
X49530000Y-98804000D03*
X49530000Y-101344000D03*
X49530000Y-103884000D03*
X49530000Y-106424000D03*
X49530000Y-108964000D03*
X49530000Y-111504000D03*
X49530000Y-114044000D03*
X49530000Y-116584000D03*
X49530000Y-119124000D03*
X49530000Y-121664000D03*
X49530000Y-124204000D03*
X49530000Y-126744000D03*
X49530000Y-129284000D03*
D10*
X33528000Y-96520000D03*
D11*
X36068000Y-96520000D03*
X38608000Y-96520000D03*
X38608000Y-93472000D03*
X36068000Y-93472000D03*
D10*
X33528000Y-93472000D03*
D11*
X62230000Y-149860000D03*
X64770000Y-149860000D03*
X67310000Y-149860000D03*
X69850000Y-149860000D03*
D10*
X72390000Y-149860000D03*
D14*
X34036000Y-102870000D03*
D15*
X34036000Y-105370000D03*
D16*
X33528000Y-126238000D03*
D17*
X34528000Y-125588000D03*
X33528000Y-124938000D03*
X34528000Y-124288000D03*
X33528000Y-123638000D03*
D18*
X33748000Y-128513000D03*
X33748000Y-121363000D03*
D15*
X34036000Y-115530000D03*
D14*
X34036000Y-113030000D03*
D19*
X39878000Y-148082000D03*
D13*
X33378000Y-148082000D03*
D10*
X34544000Y-86614000D03*
D11*
X37084000Y-86614000D03*
X39624000Y-86614000D03*
D10*
X51562000Y-86360000D03*
D11*
X54102000Y-86360000D03*
X56642000Y-86360000D03*
X59182000Y-86360000D03*
X61722000Y-86360000D03*
X64262000Y-86360000D03*
X66802000Y-86360000D03*
X69342000Y-86360000D03*
D20*
X34290000Y-132600000D03*
D21*
X34290000Y-135140000D03*
X34290000Y-137680000D03*
X34290000Y-140220000D03*
D10*
X45720000Y-149860000D03*
D11*
X48260000Y-149860000D03*
X50800000Y-149860000D03*
D10*
X72390000Y-136652000D03*
D11*
X72390000Y-139192000D03*
D22*
X38862000Y-116840000D03*
X38862000Y-120142000D03*
X61214000Y-91440000D03*
X72136000Y-88646000D03*
X46990000Y-136652000D03*
X62992000Y-103124000D03*
X45974000Y-129032000D03*
D23*
X33528000Y-123638000D02*
X32572000Y-122682000D01*
X32572000Y-122682000D02*
X32004000Y-122682000D01*
X33528000Y-123638000D02*
X34230000Y-122936000D01*
X34230000Y-122936000D02*
X35814000Y-122936000D01*
D24*
X34036000Y-113030000D02*
X35136000Y-113030000D01*
X35136000Y-113030000D02*
X36322000Y-113030000D01*
X36322000Y-113030000D02*
X36830000Y-113538000D01*
X36830000Y-113538000D02*
X36830000Y-114046000D01*
X36830000Y-114046000D02*
X38862000Y-116078000D01*
X38862000Y-116078000D02*
X38862000Y-116840000D01*
X38296315Y-120142000D02*
X37788315Y-120650000D01*
X38862000Y-120142000D02*
X38296315Y-120142000D01*
X37788315Y-120650000D02*
X37084000Y-120650000D01*
X40993919Y-126492000D02*
X40806001Y-126679918D01*
X42196000Y-126492000D02*
X40993919Y-126492000D01*
X40806001Y-126679918D02*
X40806001Y-127341999D01*
X40806001Y-127341999D02*
X36830000Y-131318000D01*
X36830000Y-131318000D02*
X36830000Y-134874000D01*
X37084000Y-121666000D02*
X35814000Y-122936000D01*
X37084000Y-120650000D02*
X37084000Y-121666000D01*
X42196000Y-126492000D02*
X43398081Y-126492000D01*
X43650081Y-126744000D02*
X49530000Y-126744000D01*
X43398081Y-126492000D02*
X43650081Y-126744000D01*
D23*
X73533000Y-134159000D02*
X73533000Y-131445000D01*
X72390000Y-135302000D02*
X73533000Y-134159000D01*
X72390000Y-136652000D02*
X72390000Y-135302000D01*
X73533000Y-131445000D02*
X73914000Y-131064000D01*
X73914000Y-131064000D02*
X74168000Y-130810000D01*
X74168000Y-130810000D02*
X74168000Y-129286000D01*
X74168000Y-129286000D02*
X74168000Y-129032000D01*
X74168000Y-129032000D02*
X74168000Y-84328000D01*
X74168000Y-84328000D02*
X73914000Y-84074000D01*
X73914000Y-84074000D02*
X50038000Y-84074000D01*
X50038000Y-84074000D02*
X49276000Y-84836000D01*
X73740000Y-136652000D02*
X72390000Y-136652000D01*
X69596000Y-147828000D02*
X73914000Y-147828000D01*
X73914000Y-147828000D02*
X74168000Y-147574000D01*
X74168000Y-147574000D02*
X74168000Y-137080000D01*
X74168000Y-137080000D02*
X73740000Y-136652000D01*
X69850000Y-148082000D02*
X69596000Y-147828000D01*
X69850000Y-149860000D02*
X69850000Y-148082000D01*
X69596000Y-147828000D02*
X60198000Y-147828000D01*
X69850000Y-145796000D02*
X69850000Y-144272000D01*
X69850000Y-144272000D02*
X69596000Y-144018000D01*
X69596000Y-144018000D02*
X60706000Y-144018000D01*
D24*
X73686081Y-108966000D02*
X74075990Y-108966000D01*
X72390000Y-108872000D02*
X73592081Y-108872000D01*
X73592081Y-108872000D02*
X73686081Y-108966000D01*
X73752081Y-126492000D02*
X74075990Y-126492000D01*
X72390000Y-126652000D02*
X73592081Y-126652000D01*
X73592081Y-126652000D02*
X73752081Y-126492000D01*
X36564000Y-135140000D02*
X36830000Y-134874000D01*
X34290000Y-135140000D02*
X36564000Y-135140000D01*
X36068000Y-96520000D02*
X36068000Y-98298000D01*
X34036000Y-100330000D02*
X34036000Y-102870000D01*
X36068000Y-98298000D02*
X34036000Y-100330000D01*
X42672000Y-93472000D02*
X42196000Y-93472000D01*
X61214000Y-91440000D02*
X63754000Y-91440000D01*
X63754000Y-91440000D02*
X65151000Y-90043000D01*
X71187919Y-106332000D02*
X71093919Y-106426000D01*
X72390000Y-106332000D02*
X71187919Y-106332000D01*
X69596000Y-90170000D02*
X69723000Y-90043000D01*
X69596000Y-104928081D02*
X69596000Y-90170000D01*
X71093919Y-106426000D02*
X69596000Y-104928081D01*
X65151000Y-90043000D02*
X69723000Y-90043000D01*
X69723000Y-90043000D02*
X70485000Y-90043000D01*
X69596000Y-104928081D02*
X69596000Y-128016000D01*
X70772000Y-129192000D02*
X72390000Y-129192000D01*
X69596000Y-128016000D02*
X70772000Y-129192000D01*
X70739000Y-90043000D02*
X70485000Y-90043000D01*
X72136000Y-88646000D02*
X70739000Y-90043000D01*
X45720000Y-139192000D02*
X42196000Y-139192000D01*
X57404000Y-140716000D02*
X57150000Y-140462000D01*
X47244000Y-140462000D02*
X45847000Y-139065000D01*
X46800000Y-138112000D02*
X45847000Y-139065000D01*
X45847000Y-139065000D02*
X45720000Y-139192000D01*
X46590001Y-137902001D02*
X46800000Y-138112000D01*
X46590001Y-137051999D02*
X46590001Y-137902001D01*
X46990000Y-136652000D02*
X46590001Y-137051999D01*
X48260000Y-149860000D02*
X48260000Y-140462000D01*
X57150000Y-140462000D02*
X48260000Y-140462000D01*
X48260000Y-140462000D02*
X47244000Y-140462000D01*
X59436000Y-142748000D02*
X57150000Y-140462000D01*
X71628000Y-142748000D02*
X59436000Y-142748000D01*
X72390000Y-145796000D02*
X72390000Y-143510000D01*
X72390000Y-143510000D02*
X71628000Y-142748000D01*
D25*
X43398081Y-103632000D02*
X43434000Y-103596081D01*
X42196000Y-103632000D02*
X43398081Y-103632000D01*
X43434000Y-103596081D02*
X43469919Y-103596081D01*
X59182000Y-87884000D02*
X59182000Y-86360000D01*
X58420000Y-88646000D02*
X59182000Y-87884000D01*
X50038000Y-88646000D02*
X58420000Y-88646000D01*
X43434000Y-103632000D02*
X43942000Y-103124000D01*
X43398081Y-103632000D02*
X43434000Y-103632000D01*
X43942000Y-103124000D02*
X43942000Y-91694000D01*
X43942000Y-91694000D02*
X45974000Y-89662000D01*
X45974000Y-89662000D02*
X49022000Y-89662000D01*
X49022000Y-89662000D02*
X50038000Y-88646000D01*
X61722000Y-88646000D02*
X61722000Y-86360000D01*
X60960000Y-89408000D02*
X61722000Y-88646000D01*
X51562000Y-89408000D02*
X60960000Y-89408000D01*
X43688000Y-106172000D02*
X44450000Y-105410000D01*
X42196000Y-106172000D02*
X43688000Y-106172000D01*
X44450000Y-91948000D02*
X46228000Y-90170000D01*
X46228000Y-90170000D02*
X50800000Y-90170000D01*
X44450000Y-105410000D02*
X44450000Y-91948000D01*
X50800000Y-90170000D02*
X51562000Y-89408000D01*
X62992000Y-103124000D02*
X65278000Y-100838000D01*
X65278000Y-100470000D02*
X67196000Y-98552000D01*
X65278000Y-100838000D02*
X65278000Y-100470000D01*
X31242000Y-118872000D02*
X42196000Y-118872000D01*
X30988000Y-118618000D02*
X31242000Y-118872000D01*
X30988000Y-91186000D02*
X30988000Y-91440000D01*
X63412001Y-87209999D02*
X64262000Y-86360000D01*
X63500000Y-88138000D02*
X63412001Y-88050001D01*
X63412001Y-88050001D02*
X63412001Y-87209999D01*
X61468000Y-90170000D02*
X63500000Y-88138000D01*
X44196000Y-108712000D02*
X44958000Y-107950000D01*
X53340000Y-90170000D02*
X61468000Y-90170000D01*
X44958000Y-107950000D02*
X44958000Y-92456000D01*
X42196000Y-108712000D02*
X44196000Y-108712000D01*
X44958000Y-92456000D02*
X46482000Y-90932000D01*
X46482000Y-90932000D02*
X52578000Y-90932000D01*
X52578000Y-90932000D02*
X53340000Y-90170000D01*
X34544000Y-86614000D02*
X32258000Y-86614000D01*
X32258000Y-86614000D02*
X30988000Y-87884000D01*
X30988000Y-87884000D02*
X30988000Y-91694000D01*
X30988000Y-91440000D02*
X30988000Y-91694000D01*
X30988000Y-91694000D02*
X30988000Y-118618000D01*
X72390000Y-140970000D02*
X72390000Y-139192000D01*
X45974000Y-129032000D02*
X45974000Y-132334000D01*
X49784000Y-136144000D02*
X58928000Y-136144000D01*
X58928000Y-136144000D02*
X64262000Y-141478000D01*
X45974000Y-132334000D02*
X49784000Y-136144000D01*
X64262000Y-141478000D02*
X71882000Y-141478000D01*
X71882000Y-141478000D02*
X72390000Y-140970000D01*
G04 #@! TA.AperFunction,Conductor*
G36*
X34289329Y-134522715D02*
G01*
X34294646Y-134522144D01*
X34313639Y-134522144D01*
X34385199Y-134532433D01*
X34450962Y-134562466D01*
X34493244Y-134596539D01*
X34842958Y-134946253D01*
X34886283Y-135004129D01*
X34911548Y-135071866D01*
X34916706Y-135143978D01*
X34915183Y-135150976D01*
X34916706Y-135172263D01*
X34901338Y-135242907D01*
X34866690Y-135306360D01*
X34842958Y-135333748D01*
X34487100Y-135689605D01*
X34429224Y-135732931D01*
X34361486Y-135758195D01*
X34307495Y-135764000D01*
X34300790Y-135764000D01*
X34291557Y-135762672D01*
X34279210Y-135764000D01*
X34272505Y-135764000D01*
X34200945Y-135753711D01*
X34135182Y-135723678D01*
X34092900Y-135689605D01*
X33737043Y-135333748D01*
X33693718Y-135275872D01*
X33668453Y-135208135D01*
X33663295Y-135136023D01*
X33664817Y-135129024D01*
X33663295Y-135107738D01*
X33678663Y-135037094D01*
X33713311Y-134973641D01*
X33737043Y-134946253D01*
X34086756Y-134596539D01*
X34144631Y-134553214D01*
X34212369Y-134527949D01*
X34266361Y-134522144D01*
X34285354Y-134522144D01*
X34289329Y-134522715D01*
G37*
G04 #@! TD.AperFunction*
G04 #@! TA.AperFunction,Conductor*
G36*
X30832732Y-119940191D02*
G01*
X31018324Y-119996490D01*
X31198363Y-120014222D01*
X31198381Y-120014223D01*
X31241999Y-120018518D01*
X31285617Y-120014223D01*
X31310513Y-120013000D01*
X31954738Y-120013000D01*
X32026298Y-120023289D01*
X32092061Y-120053322D01*
X32146698Y-120100665D01*
X32185785Y-120161485D01*
X32206153Y-120230852D01*
X32206153Y-120303148D01*
X32185785Y-120372515D01*
X32151083Y-120428136D01*
X32044054Y-120558550D01*
X31910247Y-120808884D01*
X31827851Y-121080514D01*
X31800028Y-121363000D01*
X31827851Y-121645485D01*
X31910247Y-121917115D01*
X32044054Y-122167449D01*
X32224129Y-122386870D01*
X32462888Y-122582815D01*
X32462339Y-122583483D01*
X32488153Y-122602450D01*
X32531994Y-122659936D01*
X32557864Y-122727445D01*
X32563667Y-122799508D01*
X32548932Y-122870286D01*
X32514853Y-122934046D01*
X32464192Y-122985622D01*
X32401052Y-123020837D01*
X32330548Y-123036836D01*
X32305287Y-123037608D01*
X32224252Y-123036052D01*
X32164819Y-123164883D01*
X32098712Y-123439918D01*
X32087530Y-123722562D01*
X32131707Y-124001960D01*
X32205496Y-124202140D01*
X32220593Y-124272842D01*
X32215158Y-124344933D01*
X32201838Y-124387190D01*
X32147183Y-124519137D01*
X32092000Y-124796564D01*
X32092000Y-125079435D01*
X32150211Y-125372080D01*
X32154081Y-125444272D01*
X32144155Y-125495366D01*
X32106701Y-125618831D01*
X32085856Y-125830479D01*
X32085856Y-126645520D01*
X32106701Y-126857170D01*
X32164797Y-127048685D01*
X32250762Y-127209516D01*
X32275421Y-127277477D01*
X32279934Y-127349632D01*
X32263936Y-127420136D01*
X32228723Y-127483276D01*
X32223098Y-127490386D01*
X32044054Y-127708550D01*
X31910247Y-127958884D01*
X31827851Y-128230514D01*
X31800028Y-128513000D01*
X31827851Y-128795485D01*
X31910247Y-129067115D01*
X32044054Y-129317449D01*
X32224129Y-129536870D01*
X32443550Y-129716945D01*
X32693884Y-129850752D01*
X32965514Y-129933148D01*
X33177215Y-129954000D01*
X34318785Y-129954000D01*
X34530485Y-129933148D01*
X34802115Y-129850752D01*
X35052449Y-129716945D01*
X35271870Y-129536870D01*
X35451945Y-129317449D01*
X35585752Y-129067115D01*
X35668148Y-128795485D01*
X35695971Y-128513000D01*
X35668148Y-128230514D01*
X35585752Y-127958884D01*
X35451945Y-127708550D01*
X35271867Y-127489126D01*
X35069094Y-127322713D01*
X35020304Y-127269363D01*
X34988522Y-127204427D01*
X34976321Y-127133168D01*
X34984691Y-127061359D01*
X35012952Y-126994815D01*
X35058816Y-126938930D01*
X35118567Y-126898230D01*
X35133028Y-126891704D01*
X35208199Y-126860566D01*
X35443397Y-126703413D01*
X35643413Y-126503397D01*
X35800566Y-126268199D01*
X35908815Y-126006864D01*
X35964000Y-125729435D01*
X35964000Y-125446564D01*
X35908815Y-125169133D01*
X35853339Y-125035201D01*
X35835459Y-124965151D01*
X35838040Y-124892901D01*
X35853339Y-124840799D01*
X35908815Y-124706866D01*
X35964000Y-124429435D01*
X35964000Y-124146564D01*
X35908815Y-123869135D01*
X35800566Y-123607800D01*
X35643413Y-123372602D01*
X35443397Y-123172586D01*
X35208199Y-123015433D01*
X35133028Y-122984296D01*
X35070853Y-122947406D01*
X35021589Y-122894493D01*
X34989228Y-122829844D01*
X34976392Y-122758697D01*
X34984120Y-122686815D01*
X35011786Y-122620022D01*
X35057150Y-122563730D01*
X35069094Y-122553287D01*
X35271867Y-122386873D01*
X35451945Y-122167449D01*
X35585752Y-121917115D01*
X35668148Y-121645485D01*
X35695971Y-121363000D01*
X35668148Y-121080514D01*
X35585752Y-120808884D01*
X35451945Y-120558550D01*
X35344917Y-120428136D01*
X35307473Y-120366292D01*
X35288970Y-120296404D01*
X35290905Y-120224134D01*
X35313123Y-120155337D01*
X35353824Y-120095586D01*
X35409709Y-120049722D01*
X35476252Y-120021460D01*
X35541262Y-120013000D01*
X40404174Y-120013000D01*
X40475734Y-120023289D01*
X40541497Y-120053322D01*
X40596134Y-120100665D01*
X40635221Y-120161485D01*
X40655589Y-120230852D01*
X40655589Y-120303148D01*
X40635221Y-120372515D01*
X40628182Y-120386735D01*
X40463700Y-120694457D01*
X40404330Y-120890173D01*
X40373711Y-120955665D01*
X40325881Y-121009878D01*
X40264715Y-121048419D01*
X40195169Y-121068167D01*
X40122876Y-121067522D01*
X40053693Y-121046535D01*
X40000131Y-121012785D01*
X39875795Y-120910745D01*
X39560316Y-120742118D01*
X39217996Y-120638276D01*
X38951205Y-120612000D01*
X38772795Y-120612000D01*
X38506003Y-120638276D01*
X38163683Y-120742118D01*
X37848201Y-120910747D01*
X37571680Y-121137680D01*
X37344747Y-121414201D01*
X37176118Y-121729683D01*
X37072276Y-122072003D01*
X37037214Y-122428000D01*
X37072276Y-122783996D01*
X37176118Y-123126316D01*
X37344747Y-123441798D01*
X37571680Y-123718319D01*
X37848203Y-123945253D01*
X37916859Y-123981951D01*
X37975120Y-124024758D01*
X38018960Y-124082244D01*
X38044828Y-124149754D01*
X38050630Y-124221817D01*
X38035893Y-124292595D01*
X38001813Y-124356354D01*
X37951151Y-124407929D01*
X37938240Y-124417152D01*
X37704367Y-124573420D01*
X37451420Y-124826367D01*
X37252681Y-125123801D01*
X37115787Y-125454293D01*
X37046000Y-125805137D01*
X37046000Y-126162862D01*
X37115787Y-126513706D01*
X37252681Y-126844198D01*
X37451420Y-127141632D01*
X37704367Y-127394579D01*
X38001801Y-127593318D01*
X38332293Y-127730212D01*
X38683138Y-127800000D01*
X39040862Y-127800000D01*
X39391706Y-127730212D01*
X39722198Y-127593318D01*
X40019632Y-127394579D01*
X40135802Y-127278410D01*
X40193678Y-127235085D01*
X40261415Y-127209820D01*
X40333527Y-127204662D01*
X40404171Y-127220030D01*
X40467624Y-127254678D01*
X40518744Y-127305798D01*
X40548350Y-127356756D01*
X40566905Y-127399442D01*
X40711776Y-127608321D01*
X40744104Y-127672986D01*
X40756905Y-127744139D01*
X40749140Y-127816017D01*
X40721440Y-127882796D01*
X40699407Y-127914213D01*
X40636970Y-127990291D01*
X40463699Y-128314458D01*
X40356999Y-128666199D01*
X40320972Y-129032000D01*
X40356999Y-129397800D01*
X40463699Y-129749541D01*
X40636970Y-130073708D01*
X40692084Y-130140864D01*
X40729528Y-130202708D01*
X40748031Y-130272596D01*
X40746096Y-130344866D01*
X40723878Y-130413663D01*
X40692084Y-130463136D01*
X40636970Y-130530291D01*
X40463699Y-130854458D01*
X40356999Y-131206199D01*
X40320972Y-131572000D01*
X40356999Y-131937800D01*
X40463699Y-132289541D01*
X40636970Y-132613708D01*
X40692084Y-132680864D01*
X40729528Y-132742708D01*
X40748031Y-132812596D01*
X40746096Y-132884866D01*
X40723878Y-132953663D01*
X40692084Y-133003136D01*
X40636970Y-133070291D01*
X40463699Y-133394458D01*
X40356999Y-133746199D01*
X40320972Y-134111999D01*
X40355171Y-134459228D01*
X40351946Y-134531452D01*
X40328503Y-134599841D01*
X40286743Y-134658856D01*
X40230048Y-134703716D01*
X40163011Y-134730785D01*
X40091063Y-134737871D01*
X40020033Y-134724400D01*
X39955676Y-134691464D01*
X39941259Y-134680469D01*
X39875798Y-134626747D01*
X39560316Y-134458118D01*
X39217996Y-134354276D01*
X38951205Y-134328000D01*
X38772795Y-134328000D01*
X38506003Y-134354276D01*
X38163683Y-134458118D01*
X37848201Y-134626747D01*
X37571680Y-134853680D01*
X37344747Y-135130201D01*
X37176118Y-135445683D01*
X37072276Y-135788003D01*
X37037214Y-136144000D01*
X37072276Y-136499996D01*
X37176118Y-136842316D01*
X37344747Y-137157798D01*
X37571680Y-137434319D01*
X37848201Y-137661252D01*
X38163683Y-137829881D01*
X38506003Y-137933723D01*
X38772795Y-137960000D01*
X38951205Y-137960000D01*
X39217996Y-137933723D01*
X39560316Y-137829881D01*
X39875798Y-137661252D01*
X40153578Y-137433286D01*
X40215422Y-137395842D01*
X40285309Y-137377339D01*
X40357579Y-137379274D01*
X40426377Y-137401492D01*
X40486128Y-137442193D01*
X40531992Y-137498079D01*
X40538721Y-137509896D01*
X40636970Y-137693708D01*
X40692084Y-137760864D01*
X40729528Y-137822708D01*
X40748031Y-137892596D01*
X40746096Y-137964866D01*
X40723878Y-138033663D01*
X40692084Y-138083136D01*
X40636970Y-138150291D01*
X40463699Y-138474458D01*
X40356999Y-138826199D01*
X40320972Y-139192000D01*
X40356999Y-139557800D01*
X40463699Y-139909541D01*
X40636970Y-140233708D01*
X40870155Y-140517844D01*
X41154291Y-140751029D01*
X41478458Y-140924300D01*
X41830199Y-141031000D01*
X42104337Y-141058000D01*
X42287663Y-141058000D01*
X42561800Y-141031000D01*
X42913541Y-140924300D01*
X43237708Y-140751029D01*
X43372200Y-140640655D01*
X43434044Y-140603211D01*
X43503932Y-140584708D01*
X43533336Y-140583000D01*
X45292619Y-140583000D01*
X45364179Y-140593289D01*
X45429942Y-140623322D01*
X45472224Y-140657395D01*
X46203273Y-141388445D01*
X46220013Y-141406914D01*
X46255657Y-141450347D01*
X46467460Y-141624168D01*
X46731175Y-141765127D01*
X46730376Y-141766620D01*
X46754213Y-141777763D01*
X46808429Y-141825589D01*
X46846974Y-141886753D01*
X46866726Y-141956298D01*
X46869001Y-141990215D01*
X46869000Y-147738288D01*
X46858711Y-147809848D01*
X46828678Y-147875611D01*
X46781335Y-147930248D01*
X46720515Y-147969335D01*
X46651148Y-147989703D01*
X46590104Y-147991065D01*
X46557522Y-147987856D01*
X44882480Y-147987856D01*
X44670829Y-148008701D01*
X44479310Y-148066798D01*
X44302809Y-148161140D01*
X44148103Y-148288103D01*
X44021140Y-148442809D01*
X43926798Y-148619310D01*
X43868701Y-148810829D01*
X43847856Y-149022479D01*
X43847856Y-150697521D01*
X43860520Y-150826104D01*
X43857295Y-150898328D01*
X43833852Y-150966718D01*
X43792092Y-151025733D01*
X43735396Y-151070592D01*
X43668359Y-151097661D01*
X43607743Y-151105000D01*
X30759000Y-151105000D01*
X30687440Y-151094711D01*
X30621677Y-151064678D01*
X30567040Y-151017335D01*
X30527953Y-150956515D01*
X30507585Y-150887148D01*
X30505000Y-150851000D01*
X30505000Y-149588021D01*
X32590398Y-149588021D01*
X32605990Y-149726706D01*
X32822115Y-149820057D01*
X33171878Y-149895108D01*
X33529553Y-149900483D01*
X33881414Y-149835972D01*
X34149690Y-149729542D01*
X34165601Y-149588021D01*
X33378000Y-148800420D01*
X32590398Y-149588021D01*
X30505000Y-149588021D01*
X30505000Y-148233553D01*
X31559516Y-148233553D01*
X31624027Y-148585414D01*
X31730457Y-148853690D01*
X31871978Y-148869601D01*
X32659580Y-148082000D01*
X34096420Y-148082000D01*
X34884021Y-148869601D01*
X35022706Y-148854009D01*
X35116057Y-148637884D01*
X35191108Y-148288121D01*
X35196483Y-147930446D01*
X35131972Y-147578584D01*
X35051471Y-147375666D01*
X35025542Y-147310309D01*
X34884741Y-147294479D01*
X38055856Y-147294479D01*
X38055856Y-148869520D01*
X38076701Y-149081170D01*
X38134798Y-149272689D01*
X38229140Y-149449190D01*
X38356103Y-149603896D01*
X38510809Y-149730859D01*
X38687310Y-149825201D01*
X38878829Y-149883298D01*
X39090480Y-149904144D01*
X40665520Y-149904144D01*
X40877170Y-149883298D01*
X41068689Y-149825201D01*
X41245190Y-149730859D01*
X41399896Y-149603896D01*
X41526859Y-149449190D01*
X41621201Y-149272689D01*
X41679298Y-149081170D01*
X41700144Y-148869520D01*
X41700144Y-147294479D01*
X41679298Y-147082829D01*
X41621201Y-146891310D01*
X41526859Y-146714809D01*
X41399896Y-146560103D01*
X41245190Y-146433140D01*
X41068689Y-146338798D01*
X40877170Y-146280701D01*
X40665520Y-146259856D01*
X39090480Y-146259856D01*
X38878829Y-146280701D01*
X38687310Y-146338798D01*
X38510809Y-146433140D01*
X38356103Y-146560103D01*
X38229140Y-146714809D01*
X38134798Y-146891310D01*
X38076701Y-147082829D01*
X38055856Y-147294479D01*
X34884741Y-147294479D01*
X34884021Y-147294398D01*
X34096420Y-148082000D01*
X32659580Y-148082000D01*
X31871978Y-147294398D01*
X31733293Y-147309990D01*
X31639942Y-147526115D01*
X31564891Y-147875878D01*
X31559516Y-148233553D01*
X30505000Y-148233553D01*
X30505000Y-146575978D01*
X32590398Y-146575978D01*
X33378000Y-147363580D01*
X34165601Y-146575978D01*
X34150009Y-146437293D01*
X33933884Y-146343942D01*
X33584121Y-146268891D01*
X33226446Y-146263516D01*
X32874585Y-146328027D01*
X32606309Y-146434457D01*
X32590398Y-146575978D01*
X30505000Y-146575978D01*
X30505000Y-131712479D01*
X32367856Y-131712479D01*
X32367856Y-133487520D01*
X32388701Y-133699170D01*
X32446797Y-133890686D01*
X32552864Y-134089123D01*
X32577523Y-134157084D01*
X32582037Y-134229239D01*
X32566039Y-134299742D01*
X32561460Y-134310894D01*
X32459589Y-134543120D01*
X32378314Y-134911686D01*
X32370504Y-135289029D01*
X32436460Y-135660636D01*
X32559002Y-135974707D01*
X32691449Y-135993137D01*
X32760908Y-136013190D01*
X32821904Y-136051999D01*
X32869495Y-136106421D01*
X32899827Y-136172047D01*
X32910440Y-136243559D01*
X32900477Y-136315165D01*
X32870743Y-136381064D01*
X32836048Y-136424318D01*
X32801745Y-136458620D01*
X32592062Y-136772433D01*
X32447630Y-137121124D01*
X32374000Y-137491288D01*
X32374000Y-137868711D01*
X32447630Y-138238875D01*
X32592062Y-138587566D01*
X32739943Y-138808885D01*
X32771145Y-138874101D01*
X32782710Y-138945466D01*
X32773700Y-139017198D01*
X32744846Y-139083487D01*
X32739943Y-139091115D01*
X32592062Y-139312433D01*
X32447630Y-139661124D01*
X32374000Y-140031288D01*
X32374000Y-140408711D01*
X32447630Y-140778875D01*
X32592062Y-141127566D01*
X32801745Y-141441379D01*
X33068620Y-141708254D01*
X33382433Y-141917937D01*
X33731124Y-142062369D01*
X34101289Y-142136000D01*
X34478711Y-142136000D01*
X34848875Y-142062369D01*
X35197566Y-141917937D01*
X35511379Y-141708254D01*
X35778254Y-141441379D01*
X35987937Y-141127566D01*
X36132369Y-140778875D01*
X36206000Y-140408711D01*
X36206000Y-140031288D01*
X36132369Y-139661124D01*
X35987937Y-139312433D01*
X35840057Y-139091115D01*
X35808855Y-139025899D01*
X35797290Y-138954534D01*
X35806300Y-138882802D01*
X35835154Y-138816513D01*
X35840057Y-138808885D01*
X35987937Y-138587566D01*
X36132369Y-138238875D01*
X36206000Y-137868711D01*
X36206000Y-137491288D01*
X36132369Y-137121124D01*
X35987937Y-136772433D01*
X35778254Y-136458620D01*
X35743952Y-136424318D01*
X35700627Y-136366442D01*
X35675362Y-136298705D01*
X35670204Y-136226593D01*
X35685572Y-136155949D01*
X35720220Y-136092496D01*
X35771340Y-136041376D01*
X35834793Y-136006728D01*
X35888551Y-135993137D01*
X36015763Y-135975436D01*
X36120410Y-135736879D01*
X36201685Y-135368313D01*
X36209495Y-134990970D01*
X36143539Y-134619363D01*
X36017337Y-134295910D01*
X36000911Y-134225505D01*
X36004985Y-134153324D01*
X36029231Y-134085215D01*
X36029955Y-134083851D01*
X36133201Y-133890689D01*
X36191298Y-133699170D01*
X36212144Y-133487520D01*
X36212144Y-131712479D01*
X36191298Y-131500829D01*
X36133201Y-131309310D01*
X36038859Y-131132809D01*
X35911896Y-130978103D01*
X35757190Y-130851140D01*
X35580689Y-130756798D01*
X35389170Y-130698701D01*
X35177520Y-130677856D01*
X33402480Y-130677856D01*
X33190829Y-130698701D01*
X32999310Y-130756798D01*
X32822809Y-130851140D01*
X32668103Y-130978103D01*
X32541140Y-131132809D01*
X32446798Y-131309310D01*
X32388701Y-131500829D01*
X32367856Y-131712479D01*
X30505000Y-131712479D01*
X30505000Y-120183254D01*
X30515289Y-120111694D01*
X30545322Y-120045931D01*
X30592665Y-119991294D01*
X30653485Y-119952207D01*
X30722852Y-119931839D01*
X30795148Y-119931839D01*
X30832732Y-119940191D01*
G37*
G04 #@! TD.AperFunction*
G04 #@! TA.AperFunction,Conductor*
G36*
X56540179Y-141863289D02*
G01*
X56605942Y-141893322D01*
X56648224Y-141927395D01*
X58395273Y-143674445D01*
X58412013Y-143692914D01*
X58447657Y-143736347D01*
X58659460Y-143910168D01*
X58901112Y-144039334D01*
X59163316Y-144118873D01*
X59380085Y-144140222D01*
X59380089Y-144140223D01*
X59435999Y-144145729D01*
X59491909Y-144140223D01*
X59516806Y-144139000D01*
X60638889Y-144139000D01*
X60710449Y-144149289D01*
X60776212Y-144179322D01*
X60830849Y-144226665D01*
X60869936Y-144287485D01*
X60890304Y-144356852D01*
X60890304Y-144429148D01*
X60869936Y-144498515D01*
X60835234Y-144554136D01*
X60670970Y-144754291D01*
X60497699Y-145078458D01*
X60390999Y-145430199D01*
X60354972Y-145796000D01*
X60390999Y-146161800D01*
X60497699Y-146513541D01*
X60670970Y-146837708D01*
X60904155Y-147121844D01*
X61188291Y-147355029D01*
X61512457Y-147528299D01*
X61699165Y-147584937D01*
X61764657Y-147615556D01*
X61818869Y-147663385D01*
X61857411Y-147724551D01*
X61877159Y-147794098D01*
X61876514Y-147866391D01*
X61855528Y-147935574D01*
X61815900Y-147996041D01*
X61760842Y-148042896D01*
X61699165Y-148071063D01*
X61512457Y-148127700D01*
X61188291Y-148300970D01*
X60904155Y-148534155D01*
X60670970Y-148818291D01*
X60497699Y-149142458D01*
X60390999Y-149494199D01*
X60354972Y-149860000D01*
X60390999Y-150225800D01*
X60497699Y-150577541D01*
X60579867Y-150731265D01*
X60604526Y-150799225D01*
X60609040Y-150871380D01*
X60593043Y-150941884D01*
X60557830Y-151005025D01*
X60506255Y-151055688D01*
X60442496Y-151089768D01*
X60371718Y-151104504D01*
X60355859Y-151105000D01*
X52671153Y-151105000D01*
X52599593Y-151094711D01*
X52533830Y-151064678D01*
X52479193Y-151017335D01*
X52440106Y-150956515D01*
X52419738Y-150887148D01*
X52419738Y-150814852D01*
X52440106Y-150745485D01*
X52457545Y-150713567D01*
X52459589Y-150710389D01*
X52549893Y-150481210D01*
X52462466Y-150368000D01*
X51149458Y-150368000D01*
X51090148Y-150385415D01*
X51054000Y-150388000D01*
X50546000Y-150388000D01*
X50474440Y-150377711D01*
X50408677Y-150347678D01*
X50354040Y-150300335D01*
X50350167Y-150294309D01*
X50334040Y-150280335D01*
X50294953Y-150219515D01*
X50274585Y-150150148D01*
X50272000Y-150114000D01*
X50272000Y-149606000D01*
X50282289Y-149534440D01*
X50292000Y-149513175D01*
X50292000Y-148199438D01*
X51308000Y-148199438D01*
X51308000Y-149352000D01*
X52462466Y-149352000D01*
X52549893Y-149238789D01*
X52459588Y-149009607D01*
X52261793Y-148702175D01*
X52007828Y-148439243D01*
X51707440Y-148230905D01*
X51424982Y-148108124D01*
X51308000Y-148199438D01*
X50292000Y-148199438D01*
X50175017Y-148108124D01*
X50006257Y-148181482D01*
X49936527Y-148200574D01*
X49864244Y-148199247D01*
X49795262Y-148177609D01*
X49735170Y-148137413D01*
X49688837Y-148081916D01*
X49660016Y-148015613D01*
X49651000Y-147948538D01*
X49651000Y-142107000D01*
X49661289Y-142035440D01*
X49691322Y-141969677D01*
X49738665Y-141915040D01*
X49799485Y-141875953D01*
X49868852Y-141855585D01*
X49905000Y-141853000D01*
X56468619Y-141853000D01*
X56540179Y-141863289D01*
G37*
G04 #@! TD.AperFunction*
G04 #@! TA.AperFunction,Conductor*
G36*
X70175560Y-145278289D02*
G01*
X70241323Y-145308322D01*
X70295960Y-145355665D01*
X70299832Y-145361690D01*
X70315960Y-145375665D01*
X70355047Y-145436485D01*
X70375415Y-145505852D01*
X70378000Y-145542000D01*
X70378000Y-146050000D01*
X70367711Y-146121560D01*
X70358000Y-146142824D01*
X70358000Y-147456561D01*
X70577343Y-147627777D01*
X70627421Y-147679920D01*
X70660781Y-147744059D01*
X70674719Y-147814999D01*
X70668107Y-147886992D01*
X70641479Y-147954205D01*
X70596994Y-148011195D01*
X70577343Y-148028223D01*
X70358000Y-148199438D01*
X70358000Y-149510541D01*
X70375415Y-149569852D01*
X70378000Y-149606000D01*
X70378000Y-150114000D01*
X70367711Y-150185560D01*
X70337678Y-150251323D01*
X70290335Y-150305960D01*
X70284309Y-150309832D01*
X70270335Y-150325960D01*
X70209515Y-150365047D01*
X70140148Y-150385415D01*
X70104000Y-150388000D01*
X69596000Y-150388000D01*
X69524440Y-150377711D01*
X69458677Y-150347678D01*
X69404040Y-150300335D01*
X69400167Y-150294309D01*
X69384040Y-150280335D01*
X69344953Y-150219515D01*
X69324585Y-150150148D01*
X69322000Y-150114000D01*
X69322000Y-149606000D01*
X69332289Y-149534440D01*
X69342000Y-149513175D01*
X69342000Y-148199438D01*
X69225018Y-148108124D01*
X68942556Y-148230906D01*
X68733679Y-148375776D01*
X68669014Y-148408104D01*
X68597861Y-148420905D01*
X68525983Y-148413140D01*
X68459204Y-148385440D01*
X68427787Y-148363407D01*
X68351708Y-148300970D01*
X68027542Y-148127700D01*
X67840835Y-148071063D01*
X67775343Y-148040444D01*
X67721131Y-147992615D01*
X67682589Y-147931449D01*
X67662841Y-147861902D01*
X67663486Y-147789609D01*
X67684472Y-147720426D01*
X67724100Y-147659959D01*
X67779158Y-147613104D01*
X67840835Y-147584937D01*
X68027542Y-147528299D01*
X68351708Y-147355029D01*
X68427787Y-147292593D01*
X68489631Y-147255150D01*
X68559519Y-147236646D01*
X68631789Y-147238581D01*
X68700586Y-147260799D01*
X68733679Y-147280224D01*
X68942556Y-147425093D01*
X69225018Y-147547875D01*
X69342000Y-147456561D01*
X69342000Y-146145458D01*
X69324585Y-146086148D01*
X69322000Y-146050000D01*
X69322000Y-145542000D01*
X69332289Y-145470440D01*
X69362322Y-145404677D01*
X69409665Y-145350040D01*
X69415690Y-145346167D01*
X69429665Y-145330040D01*
X69490485Y-145290953D01*
X69559852Y-145270585D01*
X69596000Y-145268000D01*
X70104000Y-145268000D01*
X70175560Y-145278289D01*
G37*
G04 #@! TD.AperFunction*
G04 #@! TA.AperFunction,Conductor*
G36*
X59615560Y-91321289D02*
G01*
X59681323Y-91351322D01*
X59735960Y-91398665D01*
X59775047Y-91459485D01*
X59795415Y-91528852D01*
X59798000Y-91565000D01*
X59798000Y-91579465D01*
X59852416Y-91853031D01*
X59959157Y-92110726D01*
X60114121Y-92342647D01*
X60311352Y-92539878D01*
X60543273Y-92694842D01*
X60800968Y-92801583D01*
X61074535Y-92856000D01*
X61353465Y-92856000D01*
X61454609Y-92835881D01*
X61504163Y-92831000D01*
X63673193Y-92831000D01*
X63698090Y-92832223D01*
X63754000Y-92837729D01*
X63809910Y-92832223D01*
X63809915Y-92832222D01*
X64026683Y-92810873D01*
X64288887Y-92731334D01*
X64530539Y-92602168D01*
X64742344Y-92428345D01*
X64777991Y-92384910D01*
X64794731Y-92366440D01*
X64908984Y-92252187D01*
X64966860Y-92208862D01*
X65034597Y-92183597D01*
X65106709Y-92178439D01*
X65177353Y-92193807D01*
X65240806Y-92228455D01*
X65291926Y-92279575D01*
X65326574Y-92343028D01*
X65341942Y-92413672D01*
X65341366Y-92456689D01*
X65324130Y-92631684D01*
X65327689Y-92792979D01*
X65498710Y-92964000D01*
X66846542Y-92964000D01*
X66905852Y-92946585D01*
X66942000Y-92944000D01*
X67450000Y-92944000D01*
X67521560Y-92954289D01*
X67587323Y-92984322D01*
X67641960Y-93031665D01*
X67645832Y-93037690D01*
X67661960Y-93051665D01*
X67701047Y-93112485D01*
X67721415Y-93181852D01*
X67724000Y-93218000D01*
X67724000Y-93726000D01*
X67713711Y-93797560D01*
X67683678Y-93863323D01*
X67636335Y-93917960D01*
X67630309Y-93921832D01*
X67616335Y-93937960D01*
X67555515Y-93977047D01*
X67486148Y-93997415D01*
X67450000Y-94000000D01*
X66942000Y-94000000D01*
X66870440Y-93989711D01*
X66849176Y-93980000D01*
X65498710Y-93980000D01*
X65327689Y-94151020D01*
X65324130Y-94312315D01*
X65344700Y-94521171D01*
X65402796Y-94712687D01*
X65497140Y-94889192D01*
X65500403Y-94893168D01*
X65537847Y-94955012D01*
X65556350Y-95024900D01*
X65554415Y-95097170D01*
X65532197Y-95165967D01*
X65528066Y-95174038D01*
X65463699Y-95294458D01*
X65356999Y-95646199D01*
X65320972Y-96012000D01*
X65356999Y-96377800D01*
X65463699Y-96729541D01*
X65636970Y-97053708D01*
X65692084Y-97120864D01*
X65729528Y-97182708D01*
X65748031Y-97252596D01*
X65746096Y-97324866D01*
X65723878Y-97393663D01*
X65692084Y-97443136D01*
X65636970Y-97510291D01*
X65463699Y-97834458D01*
X65356999Y-98186199D01*
X65320972Y-98552000D01*
X65332635Y-98670418D01*
X65329410Y-98742642D01*
X65305967Y-98811032D01*
X65264207Y-98870047D01*
X65259463Y-98874919D01*
X64519644Y-99614739D01*
X64501175Y-99631478D01*
X64467291Y-99659285D01*
X64324701Y-99833030D01*
X64218755Y-100031242D01*
X64153509Y-100246326D01*
X64151215Y-100269628D01*
X64133963Y-100339836D01*
X64097629Y-100402338D01*
X64078043Y-100424340D01*
X62834425Y-101667957D01*
X62776549Y-101711283D01*
X62708811Y-101736547D01*
X62704374Y-101737471D01*
X62578968Y-101762416D01*
X62321273Y-101869157D01*
X62089352Y-102024121D01*
X61892121Y-102221352D01*
X61737157Y-102453273D01*
X61630416Y-102710968D01*
X61576000Y-102984534D01*
X61576000Y-103263465D01*
X61630416Y-103537031D01*
X61737157Y-103794726D01*
X61892121Y-104026647D01*
X62089352Y-104223878D01*
X62321273Y-104378842D01*
X62578968Y-104485583D01*
X62852535Y-104540000D01*
X63131465Y-104540000D01*
X63405031Y-104485583D01*
X63662726Y-104378842D01*
X63894647Y-104223878D01*
X64091878Y-104026647D01*
X64246842Y-103794726D01*
X64353583Y-103537031D01*
X64378529Y-103411626D01*
X64402581Y-103343448D01*
X64444867Y-103284808D01*
X64448043Y-103281575D01*
X65029073Y-102700545D01*
X65086949Y-102657220D01*
X65154686Y-102631955D01*
X65226798Y-102626797D01*
X65297442Y-102642165D01*
X65360895Y-102676813D01*
X65412015Y-102727933D01*
X65446663Y-102791386D01*
X65462031Y-102862030D01*
X65456873Y-102934142D01*
X65451741Y-102953883D01*
X65356999Y-103266201D01*
X65320972Y-103632000D01*
X65356999Y-103997800D01*
X65463699Y-104349541D01*
X65636970Y-104673708D01*
X65692084Y-104740864D01*
X65729528Y-104802708D01*
X65748031Y-104872596D01*
X65746096Y-104944866D01*
X65723878Y-105013663D01*
X65692084Y-105063136D01*
X65636970Y-105130291D01*
X65463699Y-105454458D01*
X65356999Y-105806199D01*
X65320972Y-106172000D01*
X65356999Y-106537800D01*
X65463699Y-106889541D01*
X65636970Y-107213708D01*
X65699407Y-107289787D01*
X65736850Y-107351631D01*
X65755354Y-107421519D01*
X65753419Y-107493789D01*
X65731201Y-107562586D01*
X65711776Y-107595679D01*
X65566906Y-107804556D01*
X65444124Y-108087017D01*
X65535439Y-108204000D01*
X66846542Y-108204000D01*
X66905852Y-108186585D01*
X66942000Y-108184000D01*
X67450000Y-108184000D01*
X67521560Y-108194289D01*
X67587323Y-108224322D01*
X67641960Y-108271665D01*
X67645832Y-108277690D01*
X67661960Y-108291665D01*
X67701047Y-108352485D01*
X67721415Y-108421852D01*
X67724000Y-108458000D01*
X67724000Y-108966000D01*
X67713711Y-109037560D01*
X67683678Y-109103323D01*
X67636335Y-109157960D01*
X67630309Y-109161832D01*
X67616335Y-109177960D01*
X67555515Y-109217047D01*
X67486148Y-109237415D01*
X67450000Y-109240000D01*
X66942000Y-109240000D01*
X66870440Y-109229711D01*
X66849176Y-109220000D01*
X65535439Y-109220000D01*
X65444124Y-109336982D01*
X65566906Y-109619443D01*
X65711776Y-109828321D01*
X65744104Y-109892986D01*
X65756905Y-109964139D01*
X65749140Y-110036017D01*
X65721440Y-110102796D01*
X65699407Y-110134213D01*
X65636970Y-110210291D01*
X65463699Y-110534458D01*
X65356999Y-110886199D01*
X65320972Y-111252000D01*
X65356999Y-111617800D01*
X65463699Y-111969541D01*
X65636970Y-112293708D01*
X65692084Y-112360864D01*
X65729528Y-112422708D01*
X65748031Y-112492596D01*
X65746096Y-112564866D01*
X65723878Y-112633663D01*
X65692084Y-112683136D01*
X65636970Y-112750291D01*
X65463699Y-113074458D01*
X65356999Y-113426199D01*
X65320972Y-113792000D01*
X65356999Y-114157800D01*
X65463699Y-114509541D01*
X65636970Y-114833708D01*
X65692084Y-114900864D01*
X65729528Y-114962708D01*
X65748031Y-115032596D01*
X65746096Y-115104866D01*
X65723878Y-115173663D01*
X65692084Y-115223136D01*
X65636970Y-115290291D01*
X65463699Y-115614458D01*
X65356999Y-115966199D01*
X65320972Y-116332000D01*
X65356999Y-116697800D01*
X65463699Y-117049541D01*
X65636970Y-117373708D01*
X65692084Y-117440864D01*
X65729528Y-117502708D01*
X65748031Y-117572596D01*
X65746096Y-117644866D01*
X65723878Y-117713663D01*
X65692084Y-117763136D01*
X65636970Y-117830291D01*
X65463699Y-118154458D01*
X65356999Y-118506199D01*
X65320972Y-118872000D01*
X65356999Y-119237800D01*
X65463699Y-119589541D01*
X65636970Y-119913708D01*
X65692084Y-119980864D01*
X65729528Y-120042708D01*
X65748031Y-120112596D01*
X65746096Y-120184866D01*
X65723878Y-120253663D01*
X65692084Y-120303136D01*
X65636970Y-120370291D01*
X65463699Y-120694458D01*
X65356999Y-121046199D01*
X65320972Y-121412000D01*
X65356999Y-121777800D01*
X65463699Y-122129541D01*
X65636970Y-122453708D01*
X65692084Y-122520864D01*
X65729528Y-122582708D01*
X65748031Y-122652596D01*
X65746096Y-122724866D01*
X65723878Y-122793663D01*
X65692084Y-122843136D01*
X65636970Y-122910291D01*
X65463699Y-123234458D01*
X65356999Y-123586199D01*
X65320972Y-123952000D01*
X65356999Y-124317800D01*
X65463699Y-124669541D01*
X65636970Y-124993708D01*
X65692084Y-125060864D01*
X65729528Y-125122708D01*
X65748031Y-125192596D01*
X65746096Y-125264866D01*
X65723878Y-125333663D01*
X65692084Y-125383136D01*
X65636970Y-125450291D01*
X65463699Y-125774458D01*
X65356999Y-126126199D01*
X65320972Y-126492000D01*
X65356999Y-126857800D01*
X65463699Y-127209541D01*
X65636970Y-127533708D01*
X65692084Y-127600864D01*
X65729528Y-127662708D01*
X65748031Y-127732596D01*
X65746096Y-127804866D01*
X65723878Y-127873663D01*
X65692084Y-127923136D01*
X65636970Y-127990291D01*
X65463699Y-128314458D01*
X65356999Y-128666199D01*
X65320972Y-129032000D01*
X65356999Y-129397800D01*
X65463699Y-129749541D01*
X65636970Y-130073708D01*
X65692084Y-130140864D01*
X65729528Y-130202708D01*
X65748031Y-130272596D01*
X65746096Y-130344866D01*
X65723878Y-130413663D01*
X65692084Y-130463136D01*
X65636970Y-130530291D01*
X65463699Y-130854458D01*
X65356999Y-131206199D01*
X65320972Y-131572000D01*
X65356999Y-131937800D01*
X65463699Y-132289541D01*
X65636970Y-132613708D01*
X65692084Y-132680864D01*
X65729528Y-132742708D01*
X65748031Y-132812596D01*
X65746096Y-132884866D01*
X65723878Y-132953663D01*
X65692084Y-133003136D01*
X65636970Y-133070291D01*
X65463699Y-133394458D01*
X65356999Y-133746199D01*
X65320972Y-134112000D01*
X65356999Y-134477800D01*
X65463699Y-134829541D01*
X65636970Y-135153708D01*
X65692084Y-135220864D01*
X65729528Y-135282708D01*
X65748031Y-135352596D01*
X65746096Y-135424866D01*
X65723878Y-135493663D01*
X65692084Y-135543136D01*
X65636970Y-135610291D01*
X65463699Y-135934458D01*
X65356999Y-136286199D01*
X65320972Y-136652000D01*
X65356999Y-137017800D01*
X65463699Y-137369541D01*
X65636970Y-137693708D01*
X65692084Y-137760864D01*
X65729528Y-137822708D01*
X65748031Y-137892596D01*
X65746096Y-137964866D01*
X65723878Y-138033663D01*
X65692084Y-138083136D01*
X65636970Y-138150291D01*
X65463699Y-138474458D01*
X65356999Y-138826199D01*
X65320972Y-139192000D01*
X65356999Y-139557800D01*
X65463700Y-139909543D01*
X65492415Y-139963264D01*
X65517075Y-140031224D01*
X65521589Y-140103379D01*
X65505592Y-140173883D01*
X65470380Y-140237024D01*
X65418805Y-140287687D01*
X65355046Y-140321767D01*
X65284268Y-140336504D01*
X65268408Y-140337000D01*
X64839828Y-140337000D01*
X64768268Y-140326711D01*
X64702505Y-140296678D01*
X64660223Y-140262605D01*
X59783265Y-135385648D01*
X59766526Y-135367179D01*
X59738712Y-135333287D01*
X59564972Y-135190703D01*
X59366757Y-135084755D01*
X59151673Y-135019509D01*
X58971637Y-135001777D01*
X58971618Y-135001777D01*
X58928000Y-134997481D01*
X58884382Y-135001777D01*
X58859486Y-135003000D01*
X50361827Y-135003000D01*
X50290267Y-134992711D01*
X50224504Y-134962678D01*
X50182222Y-134928605D01*
X47189395Y-131935778D01*
X47146070Y-131877902D01*
X47120805Y-131810165D01*
X47115000Y-131756173D01*
X47115000Y-129950154D01*
X47125289Y-129878594D01*
X47155322Y-129812831D01*
X47157807Y-129809039D01*
X47228841Y-129702727D01*
X47233232Y-129692129D01*
X47270123Y-129629953D01*
X47323037Y-129580690D01*
X47387686Y-129548330D01*
X47458833Y-129535494D01*
X47530715Y-129543222D01*
X47597507Y-129570889D01*
X47653799Y-129616253D01*
X47695031Y-129675639D01*
X47710960Y-129715599D01*
X47797700Y-130001542D01*
X47970970Y-130325708D01*
X48204155Y-130609844D01*
X48488291Y-130843029D01*
X48812458Y-131016300D01*
X49164199Y-131123000D01*
X49438337Y-131150000D01*
X49621663Y-131150000D01*
X49895800Y-131123000D01*
X50247541Y-131016300D01*
X50571708Y-130843029D01*
X50855844Y-130609844D01*
X51089029Y-130325708D01*
X51262300Y-130001541D01*
X51369000Y-129649800D01*
X51405027Y-129284000D01*
X51369000Y-128918199D01*
X51262300Y-128566458D01*
X51089029Y-128242291D01*
X51026593Y-128166213D01*
X50989150Y-128104369D01*
X50970646Y-128034481D01*
X50972581Y-127962211D01*
X50994799Y-127893414D01*
X51014224Y-127860321D01*
X51159093Y-127651443D01*
X51281875Y-127368982D01*
X51190561Y-127252000D01*
X49879458Y-127252000D01*
X49820148Y-127269415D01*
X49784000Y-127272000D01*
X49276000Y-127272000D01*
X49204440Y-127261711D01*
X49183176Y-127252000D01*
X47869439Y-127252000D01*
X47778124Y-127368982D01*
X47900906Y-127651443D01*
X48045776Y-127860321D01*
X48078104Y-127924986D01*
X48090905Y-127996139D01*
X48083140Y-128068017D01*
X48055440Y-128134796D01*
X48033407Y-128166213D01*
X47970970Y-128242291D01*
X47791158Y-128578696D01*
X47768592Y-128626962D01*
X47720761Y-128681174D01*
X47659595Y-128719714D01*
X47590048Y-128739461D01*
X47517755Y-128738814D01*
X47448572Y-128717826D01*
X47388105Y-128678197D01*
X47341252Y-128623138D01*
X47321486Y-128584934D01*
X47228843Y-128361274D01*
X47073878Y-128129352D01*
X46876647Y-127932121D01*
X46644726Y-127777157D01*
X46387031Y-127670416D01*
X46113465Y-127616000D01*
X45834535Y-127616000D01*
X45560968Y-127670416D01*
X45303273Y-127777157D01*
X45071352Y-127932121D01*
X44874121Y-128129352D01*
X44719157Y-128361273D01*
X44612416Y-128618968D01*
X44557170Y-128896706D01*
X44533118Y-128964884D01*
X44490833Y-129023523D01*
X44433739Y-129067875D01*
X44366463Y-129094344D01*
X44294455Y-129100788D01*
X44223548Y-129086683D01*
X44159487Y-129053173D01*
X44107462Y-129002973D01*
X44071688Y-128940149D01*
X44055274Y-128872048D01*
X44035000Y-128666199D01*
X43928300Y-128314458D01*
X43755029Y-127990291D01*
X43692593Y-127914213D01*
X43655150Y-127852369D01*
X43636646Y-127782481D01*
X43638581Y-127710211D01*
X43660799Y-127641414D01*
X43680224Y-127608321D01*
X43825093Y-127399443D01*
X43947875Y-127116982D01*
X43856561Y-127000000D01*
X42545458Y-127000000D01*
X42486148Y-127017415D01*
X42450000Y-127020000D01*
X41942000Y-127020000D01*
X41870440Y-127009711D01*
X41804677Y-126979678D01*
X41750040Y-126932335D01*
X41746167Y-126926309D01*
X41730040Y-126912335D01*
X41690953Y-126851515D01*
X41670585Y-126782148D01*
X41668000Y-126746000D01*
X41668000Y-126238000D01*
X41678289Y-126166440D01*
X41708322Y-126100677D01*
X41755665Y-126046040D01*
X41761690Y-126042167D01*
X41775665Y-126026040D01*
X41836485Y-125986953D01*
X41905852Y-125966585D01*
X41942000Y-125964000D01*
X42450000Y-125964000D01*
X42521560Y-125974289D01*
X42542824Y-125984000D01*
X43856561Y-125984000D01*
X43947875Y-125867017D01*
X43825093Y-125584556D01*
X43680224Y-125375679D01*
X43647896Y-125311014D01*
X43635095Y-125239861D01*
X43642860Y-125167983D01*
X43670560Y-125101204D01*
X43692593Y-125069787D01*
X43755029Y-124993708D01*
X43928300Y-124669541D01*
X44035000Y-124317800D01*
X44071027Y-123952000D01*
X44035000Y-123586199D01*
X43928300Y-123234458D01*
X43755029Y-122910291D01*
X43699916Y-122843136D01*
X43662472Y-122781292D01*
X43643969Y-122711404D01*
X43645904Y-122639134D01*
X43668122Y-122570337D01*
X43699916Y-122520864D01*
X43755029Y-122453708D01*
X43928300Y-122129541D01*
X44035000Y-121777800D01*
X44071027Y-121412000D01*
X44035000Y-121046199D01*
X43928300Y-120694458D01*
X43755029Y-120370291D01*
X43699916Y-120303136D01*
X43662472Y-120241292D01*
X43643969Y-120171404D01*
X43645904Y-120099134D01*
X43668122Y-120030337D01*
X43699916Y-119980864D01*
X43755029Y-119913708D01*
X43928300Y-119589541D01*
X44035000Y-119237800D01*
X44046208Y-119124000D01*
X47654972Y-119124000D01*
X47690999Y-119489800D01*
X47797699Y-119841541D01*
X47970970Y-120165708D01*
X48026084Y-120232864D01*
X48063528Y-120294708D01*
X48082031Y-120364596D01*
X48080096Y-120436866D01*
X48057878Y-120505663D01*
X48026084Y-120555136D01*
X47970970Y-120622291D01*
X47797699Y-120946458D01*
X47690999Y-121298199D01*
X47654972Y-121664000D01*
X47690999Y-122029800D01*
X47797699Y-122381541D01*
X47970970Y-122705708D01*
X48026084Y-122772864D01*
X48063528Y-122834708D01*
X48082031Y-122904596D01*
X48080096Y-122976866D01*
X48057878Y-123045663D01*
X48026084Y-123095136D01*
X47970970Y-123162291D01*
X47797699Y-123486458D01*
X47690999Y-123838199D01*
X47654972Y-124204000D01*
X47690999Y-124569800D01*
X47797699Y-124921541D01*
X47970970Y-125245708D01*
X48033407Y-125321787D01*
X48070850Y-125383631D01*
X48089354Y-125453519D01*
X48087419Y-125525789D01*
X48065201Y-125594586D01*
X48045776Y-125627679D01*
X47900906Y-125836556D01*
X47778124Y-126119017D01*
X47869439Y-126236000D01*
X49180542Y-126236000D01*
X49239852Y-126218585D01*
X49276000Y-126216000D01*
X49784000Y-126216000D01*
X49855560Y-126226289D01*
X49876824Y-126236000D01*
X51190561Y-126236000D01*
X51281875Y-126119017D01*
X51159093Y-125836556D01*
X51014224Y-125627679D01*
X50981896Y-125563014D01*
X50969095Y-125491861D01*
X50976860Y-125419983D01*
X51004560Y-125353204D01*
X51026593Y-125321787D01*
X51089029Y-125245708D01*
X51262300Y-124921541D01*
X51369000Y-124569800D01*
X51405027Y-124204000D01*
X51369000Y-123838199D01*
X51262300Y-123486458D01*
X51089029Y-123162291D01*
X51033916Y-123095136D01*
X50996472Y-123033292D01*
X50977969Y-122963404D01*
X50979904Y-122891134D01*
X51002122Y-122822337D01*
X51033916Y-122772864D01*
X51089029Y-122705708D01*
X51262300Y-122381541D01*
X51369000Y-122029800D01*
X51405027Y-121664000D01*
X51369000Y-121298199D01*
X51262300Y-120946458D01*
X51089029Y-120622291D01*
X51033916Y-120555136D01*
X50996472Y-120493292D01*
X50977969Y-120423404D01*
X50979904Y-120351134D01*
X51002122Y-120282337D01*
X51033916Y-120232864D01*
X51089029Y-120165708D01*
X51262300Y-119841541D01*
X51369000Y-119489800D01*
X51405027Y-119124000D01*
X51369000Y-118758199D01*
X51262300Y-118406458D01*
X51089029Y-118082291D01*
X51026593Y-118006213D01*
X50989150Y-117944369D01*
X50970646Y-117874481D01*
X50972581Y-117802211D01*
X50994799Y-117733414D01*
X51014224Y-117700321D01*
X51159093Y-117491443D01*
X51281875Y-117208982D01*
X51190561Y-117092000D01*
X49879458Y-117092000D01*
X49820148Y-117109415D01*
X49784000Y-117112000D01*
X49276000Y-117112000D01*
X49204440Y-117101711D01*
X49183176Y-117092000D01*
X47869439Y-117092000D01*
X47778124Y-117208982D01*
X47900906Y-117491443D01*
X48045776Y-117700321D01*
X48078104Y-117764986D01*
X48090905Y-117836139D01*
X48083140Y-117908017D01*
X48055440Y-117974796D01*
X48033407Y-118006213D01*
X47970970Y-118082291D01*
X47797699Y-118406458D01*
X47690999Y-118758199D01*
X47654972Y-119124000D01*
X44046208Y-119124000D01*
X44048660Y-119099104D01*
X44048660Y-119099103D01*
X44071027Y-118871999D01*
X44035000Y-118506199D01*
X43928300Y-118154458D01*
X43755029Y-117830291D01*
X43699916Y-117763136D01*
X43662472Y-117701292D01*
X43643969Y-117631404D01*
X43645904Y-117559134D01*
X43668122Y-117490337D01*
X43699916Y-117440864D01*
X43755029Y-117373708D01*
X43928300Y-117049541D01*
X44035000Y-116697800D01*
X44071027Y-116332000D01*
X44035000Y-115966199D01*
X43928300Y-115614458D01*
X43755029Y-115290291D01*
X43699916Y-115223136D01*
X43662472Y-115161292D01*
X43643969Y-115091404D01*
X43645904Y-115019134D01*
X43668122Y-114950337D01*
X43699916Y-114900864D01*
X43755029Y-114833708D01*
X43928300Y-114509541D01*
X44035000Y-114157800D01*
X44071027Y-113792000D01*
X44035000Y-113426199D01*
X43928300Y-113074458D01*
X43755029Y-112750291D01*
X43699916Y-112683136D01*
X43662472Y-112621292D01*
X43643969Y-112551404D01*
X43645904Y-112479134D01*
X43668122Y-112410337D01*
X43699916Y-112360864D01*
X43755029Y-112293708D01*
X43928300Y-111969541D01*
X44035000Y-111617800D01*
X44071027Y-111252000D01*
X44035000Y-110886199D01*
X43928300Y-110534458D01*
X43763818Y-110226735D01*
X43739159Y-110158775D01*
X43734645Y-110086620D01*
X43750642Y-110016116D01*
X43785855Y-109952975D01*
X43837430Y-109902312D01*
X43901189Y-109868232D01*
X43971967Y-109853496D01*
X43987826Y-109853000D01*
X44127486Y-109853000D01*
X44152382Y-109854223D01*
X44196000Y-109858518D01*
X44239618Y-109854223D01*
X44239637Y-109854222D01*
X44419673Y-109836490D01*
X44634757Y-109771244D01*
X44832972Y-109665296D01*
X45006712Y-109522712D01*
X45034527Y-109488820D01*
X45051266Y-109470351D01*
X45716351Y-108805265D01*
X45734820Y-108788526D01*
X45768709Y-108760713D01*
X45911298Y-108586969D01*
X46017244Y-108388757D01*
X46082490Y-108173673D01*
X46100223Y-107993628D01*
X46100223Y-107993622D01*
X46104519Y-107950000D01*
X46100223Y-107906378D01*
X46099000Y-107881483D01*
X46099000Y-93033827D01*
X46109289Y-92962267D01*
X46139322Y-92896504D01*
X46173395Y-92854222D01*
X46880223Y-92147395D01*
X46938099Y-92104069D01*
X47005837Y-92078805D01*
X47059828Y-92073000D01*
X47532341Y-92073000D01*
X47603901Y-92083289D01*
X47669664Y-92113322D01*
X47724301Y-92160665D01*
X47763388Y-92221485D01*
X47783756Y-92290852D01*
X47783756Y-92363148D01*
X47763388Y-92432515D01*
X47756349Y-92446734D01*
X47736798Y-92483310D01*
X47678701Y-92674829D01*
X47657856Y-92886479D01*
X47657856Y-94561520D01*
X47678701Y-94773170D01*
X47736798Y-94964689D01*
X47831140Y-95141190D01*
X47834404Y-95145168D01*
X47871847Y-95207012D01*
X47890351Y-95276900D01*
X47888414Y-95349170D01*
X47866196Y-95417967D01*
X47862066Y-95426036D01*
X47797700Y-95546455D01*
X47690999Y-95898199D01*
X47654972Y-96264000D01*
X47690999Y-96629800D01*
X47797699Y-96981541D01*
X47970970Y-97305708D01*
X48026084Y-97372864D01*
X48063528Y-97434708D01*
X48082031Y-97504596D01*
X48080096Y-97576866D01*
X48057878Y-97645663D01*
X48026084Y-97695136D01*
X47970970Y-97762291D01*
X47797699Y-98086458D01*
X47690999Y-98438199D01*
X47654972Y-98804000D01*
X47690999Y-99169800D01*
X47797699Y-99521541D01*
X47970970Y-99845708D01*
X48026084Y-99912864D01*
X48063528Y-99974708D01*
X48082031Y-100044596D01*
X48080096Y-100116866D01*
X48057878Y-100185663D01*
X48026084Y-100235136D01*
X47970970Y-100302291D01*
X47797699Y-100626458D01*
X47690999Y-100978199D01*
X47654972Y-101344000D01*
X47690999Y-101709800D01*
X47797699Y-102061541D01*
X47970970Y-102385708D01*
X48026084Y-102452864D01*
X48063528Y-102514708D01*
X48082031Y-102584596D01*
X48080096Y-102656866D01*
X48057878Y-102725663D01*
X48026084Y-102775136D01*
X47970970Y-102842291D01*
X47797699Y-103166458D01*
X47690999Y-103518199D01*
X47654972Y-103884000D01*
X47690999Y-104249800D01*
X47797699Y-104601541D01*
X47970970Y-104925708D01*
X48026084Y-104992864D01*
X48063528Y-105054708D01*
X48082031Y-105124596D01*
X48080096Y-105196866D01*
X48057878Y-105265663D01*
X48026084Y-105315136D01*
X47970970Y-105382291D01*
X47797699Y-105706458D01*
X47690999Y-106058199D01*
X47654972Y-106424000D01*
X47690999Y-106789800D01*
X47797699Y-107141541D01*
X47970970Y-107465708D01*
X48026084Y-107532864D01*
X48063528Y-107594708D01*
X48082031Y-107664596D01*
X48080096Y-107736866D01*
X48057878Y-107805663D01*
X48026084Y-107855136D01*
X47970970Y-107922291D01*
X47797699Y-108246458D01*
X47690999Y-108598199D01*
X47654972Y-108964000D01*
X47690999Y-109329800D01*
X47797699Y-109681541D01*
X47970970Y-110005708D01*
X48026084Y-110072864D01*
X48063528Y-110134708D01*
X48082031Y-110204596D01*
X48080096Y-110276866D01*
X48057878Y-110345663D01*
X48026084Y-110395136D01*
X47970970Y-110462291D01*
X47797699Y-110786458D01*
X47690999Y-111138199D01*
X47654972Y-111504000D01*
X47690999Y-111869800D01*
X47797699Y-112221541D01*
X47970970Y-112545708D01*
X48026084Y-112612864D01*
X48063528Y-112674708D01*
X48082031Y-112744596D01*
X48080096Y-112816866D01*
X48057878Y-112885663D01*
X48026084Y-112935136D01*
X47970970Y-113002291D01*
X47797699Y-113326458D01*
X47690999Y-113678199D01*
X47654972Y-114044000D01*
X47690999Y-114409800D01*
X47797699Y-114761541D01*
X47970970Y-115085708D01*
X48033407Y-115161787D01*
X48070850Y-115223631D01*
X48089354Y-115293519D01*
X48087419Y-115365789D01*
X48065201Y-115434586D01*
X48045776Y-115467679D01*
X47900906Y-115676556D01*
X47778124Y-115959017D01*
X47869439Y-116076000D01*
X49180542Y-116076000D01*
X49239852Y-116058585D01*
X49276000Y-116056000D01*
X49784000Y-116056000D01*
X49855560Y-116066289D01*
X49876824Y-116076000D01*
X51190561Y-116076000D01*
X51281875Y-115959017D01*
X51159093Y-115676556D01*
X51014224Y-115467679D01*
X50981896Y-115403014D01*
X50969095Y-115331861D01*
X50976860Y-115259983D01*
X51004560Y-115193204D01*
X51026593Y-115161787D01*
X51089029Y-115085708D01*
X51262300Y-114761541D01*
X51369000Y-114409800D01*
X51405027Y-114044000D01*
X51369000Y-113678199D01*
X51262300Y-113326458D01*
X51089029Y-113002291D01*
X51033916Y-112935136D01*
X50996472Y-112873292D01*
X50977969Y-112803404D01*
X50979904Y-112731134D01*
X51002122Y-112662337D01*
X51033916Y-112612864D01*
X51089029Y-112545708D01*
X51262300Y-112221541D01*
X51369000Y-111869800D01*
X51405027Y-111504000D01*
X51369000Y-111138199D01*
X51262300Y-110786458D01*
X51089029Y-110462291D01*
X51033916Y-110395136D01*
X50996472Y-110333292D01*
X50977969Y-110263404D01*
X50979904Y-110191134D01*
X51002122Y-110122337D01*
X51033916Y-110072864D01*
X51089029Y-110005708D01*
X51262300Y-109681541D01*
X51369000Y-109329800D01*
X51405027Y-108964000D01*
X51369000Y-108598199D01*
X51262300Y-108246458D01*
X51089029Y-107922291D01*
X51033916Y-107855136D01*
X50996472Y-107793292D01*
X50977969Y-107723404D01*
X50979904Y-107651134D01*
X51002122Y-107582337D01*
X51033916Y-107532864D01*
X51089029Y-107465708D01*
X51262300Y-107141541D01*
X51369000Y-106789800D01*
X51405027Y-106424000D01*
X51369000Y-106058199D01*
X51262300Y-105706458D01*
X51089029Y-105382291D01*
X51033916Y-105315136D01*
X50996472Y-105253292D01*
X50977969Y-105183404D01*
X50979904Y-105111134D01*
X51002122Y-105042337D01*
X51033916Y-104992864D01*
X51089029Y-104925708D01*
X51262300Y-104601541D01*
X51369000Y-104249800D01*
X51405027Y-103884000D01*
X51369000Y-103518199D01*
X51262300Y-103166458D01*
X51089029Y-102842291D01*
X51033916Y-102775136D01*
X50996472Y-102713292D01*
X50977969Y-102643404D01*
X50979904Y-102571134D01*
X51002122Y-102502337D01*
X51033916Y-102452864D01*
X51089029Y-102385708D01*
X51262300Y-102061541D01*
X51369000Y-101709800D01*
X51405027Y-101344000D01*
X51369000Y-100978199D01*
X51262300Y-100626458D01*
X51089029Y-100302291D01*
X51033916Y-100235136D01*
X50996472Y-100173292D01*
X50977969Y-100103404D01*
X50979904Y-100031134D01*
X51002122Y-99962337D01*
X51033916Y-99912864D01*
X51089029Y-99845708D01*
X51262300Y-99521541D01*
X51369000Y-99169800D01*
X51405027Y-98804000D01*
X51369000Y-98438199D01*
X51262300Y-98086458D01*
X51089029Y-97762291D01*
X51033916Y-97695136D01*
X50996472Y-97633292D01*
X50977969Y-97563404D01*
X50979904Y-97491134D01*
X51002122Y-97422337D01*
X51033916Y-97372864D01*
X51089029Y-97305708D01*
X51262300Y-96981541D01*
X51369000Y-96629800D01*
X51405027Y-96264000D01*
X51369000Y-95898199D01*
X51262299Y-95546455D01*
X51197934Y-95426036D01*
X51173275Y-95358076D01*
X51168761Y-95285921D01*
X51184759Y-95215417D01*
X51219971Y-95152276D01*
X51225596Y-95145168D01*
X51228859Y-95141190D01*
X51323201Y-94964689D01*
X51381298Y-94773170D01*
X51402144Y-94561520D01*
X51402144Y-92886479D01*
X51381298Y-92674829D01*
X51323201Y-92483310D01*
X51303651Y-92446734D01*
X51278992Y-92378773D01*
X51274478Y-92306619D01*
X51290476Y-92236115D01*
X51325689Y-92172974D01*
X51377264Y-92122312D01*
X51441023Y-92088232D01*
X51511802Y-92073495D01*
X51527659Y-92073000D01*
X52509486Y-92073000D01*
X52534382Y-92074223D01*
X52578000Y-92078518D01*
X52621618Y-92074223D01*
X52621637Y-92074222D01*
X52801673Y-92056490D01*
X53016757Y-91991244D01*
X53214972Y-91885296D01*
X53388712Y-91742712D01*
X53416527Y-91708820D01*
X53433266Y-91690351D01*
X53738222Y-91385395D01*
X53796098Y-91342070D01*
X53863835Y-91316805D01*
X53917827Y-91311000D01*
X59544000Y-91311000D01*
X59615560Y-91321289D01*
G37*
G04 #@! TD.AperFunction*
G04 #@! TA.AperFunction,Conductor*
G36*
X69228699Y-129649676D02*
G01*
X69292459Y-129683756D01*
X69321668Y-129708839D01*
X69731273Y-130118445D01*
X69748013Y-130136914D01*
X69783657Y-130180347D01*
X69995460Y-130354168D01*
X70237112Y-130483334D01*
X70499316Y-130562873D01*
X70716085Y-130584222D01*
X70716089Y-130584223D01*
X70771999Y-130589729D01*
X70827909Y-130584223D01*
X70852806Y-130583000D01*
X71052664Y-130583000D01*
X71124224Y-130593289D01*
X71189987Y-130623322D01*
X71213800Y-130640655D01*
X71348291Y-130751029D01*
X71672458Y-130924300D01*
X72024199Y-131031000D01*
X72298337Y-131058000D01*
X72481663Y-131058000D01*
X72755800Y-131031000D01*
X73107541Y-130924300D01*
X73261266Y-130842133D01*
X73329227Y-130817474D01*
X73401382Y-130812960D01*
X73471885Y-130828957D01*
X73535026Y-130864170D01*
X73585689Y-130915745D01*
X73619769Y-130979505D01*
X73634505Y-131050283D01*
X73635001Y-131066141D01*
X73635001Y-134539742D01*
X73624712Y-134611302D01*
X73594679Y-134677065D01*
X73547336Y-134731702D01*
X73486516Y-134770789D01*
X73417149Y-134791157D01*
X73356105Y-134792519D01*
X73230316Y-134780130D01*
X73069020Y-134783689D01*
X72898000Y-134954710D01*
X72898000Y-136302541D01*
X72915415Y-136361852D01*
X72918000Y-136398000D01*
X72918000Y-136906000D01*
X72907711Y-136977560D01*
X72877678Y-137043323D01*
X72830335Y-137097960D01*
X72824309Y-137101832D01*
X72810335Y-137117960D01*
X72749515Y-137157047D01*
X72680148Y-137177415D01*
X72644000Y-137180000D01*
X72136000Y-137180000D01*
X72064440Y-137169711D01*
X72043176Y-137160000D01*
X70692710Y-137160000D01*
X70521689Y-137331020D01*
X70518130Y-137492315D01*
X70538700Y-137701171D01*
X70596796Y-137892687D01*
X70691140Y-138069192D01*
X70694403Y-138073168D01*
X70731847Y-138135012D01*
X70750350Y-138204900D01*
X70748415Y-138277170D01*
X70726197Y-138345967D01*
X70722066Y-138354038D01*
X70657699Y-138474458D01*
X70550999Y-138826199D01*
X70514972Y-139192000D01*
X70550999Y-139557800D01*
X70657700Y-139909543D01*
X70686415Y-139963264D01*
X70711075Y-140031224D01*
X70715589Y-140103379D01*
X70699592Y-140173883D01*
X70664380Y-140237024D01*
X70612805Y-140287687D01*
X70549046Y-140321767D01*
X70478268Y-140336504D01*
X70462408Y-140337000D01*
X69123592Y-140337000D01*
X69052032Y-140326711D01*
X68986269Y-140296678D01*
X68931632Y-140249335D01*
X68892545Y-140188515D01*
X68872177Y-140119148D01*
X68872177Y-140046852D01*
X68892545Y-139977485D01*
X68899585Y-139963264D01*
X68928299Y-139909543D01*
X69035000Y-139557800D01*
X69071027Y-139192000D01*
X69035000Y-138826199D01*
X68928300Y-138474458D01*
X68755029Y-138150291D01*
X68699916Y-138083136D01*
X68662472Y-138021292D01*
X68643969Y-137951404D01*
X68645904Y-137879134D01*
X68668122Y-137810337D01*
X68699916Y-137760864D01*
X68755029Y-137693708D01*
X68928300Y-137369541D01*
X69035000Y-137017800D01*
X69071027Y-136652000D01*
X69035000Y-136286199D01*
X68928298Y-135934454D01*
X68921500Y-135921734D01*
X68921500Y-135921735D01*
X68862676Y-135811684D01*
X70518130Y-135811684D01*
X70521689Y-135972979D01*
X70692710Y-136144000D01*
X71882000Y-136144000D01*
X71882000Y-134954710D01*
X71710979Y-134783689D01*
X71549684Y-134780130D01*
X71340828Y-134800700D01*
X71149312Y-134858796D01*
X70972810Y-134953138D01*
X70818103Y-135080103D01*
X70691138Y-135234810D01*
X70596796Y-135411312D01*
X70538700Y-135602828D01*
X70518130Y-135811684D01*
X68862676Y-135811684D01*
X68755029Y-135610291D01*
X68699916Y-135543136D01*
X68662472Y-135481292D01*
X68643969Y-135411404D01*
X68645904Y-135339134D01*
X68668122Y-135270337D01*
X68699916Y-135220864D01*
X68755029Y-135153708D01*
X68928300Y-134829541D01*
X69035000Y-134477800D01*
X69071027Y-134112000D01*
X69035000Y-133746199D01*
X68928300Y-133394458D01*
X68755029Y-133070291D01*
X68699916Y-133003136D01*
X68662472Y-132941292D01*
X68643969Y-132871404D01*
X68645904Y-132799134D01*
X68668122Y-132730337D01*
X68699916Y-132680864D01*
X68755029Y-132613708D01*
X68928300Y-132289541D01*
X69035000Y-131937800D01*
X69071027Y-131572000D01*
X69035000Y-131206199D01*
X68928300Y-130854458D01*
X68755029Y-130530291D01*
X68699916Y-130463136D01*
X68662472Y-130401292D01*
X68643969Y-130331404D01*
X68645904Y-130259134D01*
X68668122Y-130190337D01*
X68699916Y-130140864D01*
X68755029Y-130073708D01*
X68918055Y-129768709D01*
X68960862Y-129710449D01*
X69018349Y-129666609D01*
X69085859Y-129640740D01*
X69157921Y-129634940D01*
X69228699Y-129649676D01*
G37*
G04 #@! TD.AperFunction*
G04 #@! TA.AperFunction,Conductor*
G36*
X72715560Y-126134289D02*
G01*
X72781323Y-126164322D01*
X72835960Y-126211665D01*
X72839832Y-126217690D01*
X72855960Y-126231665D01*
X72895047Y-126292485D01*
X72915415Y-126361852D01*
X72918000Y-126398000D01*
X72918000Y-126906000D01*
X72907711Y-126977560D01*
X72877678Y-127043323D01*
X72830335Y-127097960D01*
X72824309Y-127101832D01*
X72810335Y-127117960D01*
X72749515Y-127157047D01*
X72680148Y-127177415D01*
X72644000Y-127180000D01*
X72136000Y-127180000D01*
X72064440Y-127169711D01*
X71998677Y-127139678D01*
X71944040Y-127092335D01*
X71940167Y-127086309D01*
X71924040Y-127072335D01*
X71884953Y-127011515D01*
X71864585Y-126942148D01*
X71862000Y-126906000D01*
X71862000Y-126398000D01*
X71872289Y-126326440D01*
X71902322Y-126260677D01*
X71949665Y-126206040D01*
X71955690Y-126202167D01*
X71969665Y-126186040D01*
X72030485Y-126146953D01*
X72099852Y-126126585D01*
X72136000Y-126124000D01*
X72644000Y-126124000D01*
X72715560Y-126134289D01*
G37*
G04 #@! TD.AperFunction*
G04 #@! TA.AperFunction,Conductor*
G36*
X49881958Y-84363289D02*
G01*
X49947721Y-84393322D01*
X50002358Y-84440665D01*
X50041445Y-84501485D01*
X50061813Y-84570852D01*
X50061813Y-84643148D01*
X50041445Y-84712515D01*
X50005529Y-84768400D01*
X50005974Y-84768766D01*
X50002840Y-84772583D01*
X50002358Y-84773335D01*
X50001693Y-84773981D01*
X49863140Y-84942809D01*
X49768798Y-85119310D01*
X49710701Y-85310829D01*
X49689856Y-85522479D01*
X49689856Y-87197521D01*
X49705108Y-87352378D01*
X49701883Y-87424602D01*
X49678440Y-87492991D01*
X49636680Y-87552006D01*
X49579985Y-87596866D01*
X49572065Y-87601282D01*
X49419235Y-87682971D01*
X49419234Y-87682972D01*
X49401028Y-87692703D01*
X49261909Y-87806876D01*
X49261907Y-87806877D01*
X49227287Y-87835288D01*
X49199478Y-87869174D01*
X49182739Y-87887643D01*
X48623778Y-88446605D01*
X48565902Y-88489930D01*
X48498165Y-88515195D01*
X48444173Y-88521000D01*
X46042517Y-88521000D01*
X46017622Y-88519777D01*
X45974000Y-88515480D01*
X45930378Y-88519777D01*
X45930366Y-88519777D01*
X45750326Y-88537509D01*
X45535244Y-88602754D01*
X45364446Y-88694048D01*
X45364445Y-88694048D01*
X45337027Y-88708703D01*
X45163287Y-88851287D01*
X45135478Y-88885174D01*
X45118739Y-88903643D01*
X43183644Y-90838739D01*
X43165175Y-90855478D01*
X43131288Y-90883287D01*
X43103479Y-90917174D01*
X43103477Y-90917176D01*
X42988706Y-91057024D01*
X42907972Y-91208069D01*
X42907971Y-91208070D01*
X42882755Y-91255244D01*
X42832902Y-91419589D01*
X42802283Y-91485081D01*
X42754454Y-91539293D01*
X42693288Y-91577835D01*
X42623741Y-91597583D01*
X42589839Y-91599856D01*
X41358480Y-91599856D01*
X41146829Y-91620701D01*
X40955310Y-91678798D01*
X40778809Y-91773140D01*
X40624103Y-91900103D01*
X40497143Y-92054805D01*
X40424596Y-92190533D01*
X40381789Y-92248793D01*
X40324302Y-92292634D01*
X40256793Y-92318502D01*
X40184730Y-92324304D01*
X40113952Y-92309567D01*
X40050192Y-92275488D01*
X40004242Y-92231935D01*
X39933844Y-92146155D01*
X39649708Y-91912970D01*
X39325541Y-91739699D01*
X38973800Y-91632999D01*
X38699663Y-91606000D01*
X38516337Y-91606000D01*
X38242199Y-91632999D01*
X37890458Y-91739699D01*
X37566291Y-91912970D01*
X37490213Y-91975407D01*
X37428369Y-92012850D01*
X37358481Y-92031354D01*
X37286211Y-92029419D01*
X37217414Y-92007201D01*
X37184321Y-91987776D01*
X36975443Y-91842906D01*
X36692982Y-91720124D01*
X36576000Y-91811438D01*
X36576000Y-93122541D01*
X36593415Y-93181852D01*
X36596000Y-93218000D01*
X36596000Y-93726000D01*
X36585711Y-93797560D01*
X36576000Y-93818824D01*
X36576000Y-96170541D01*
X36593415Y-96229852D01*
X36596000Y-96266000D01*
X36596000Y-96774000D01*
X36585711Y-96845560D01*
X36576000Y-96866824D01*
X36576000Y-98180561D01*
X36692982Y-98271875D01*
X36975443Y-98149093D01*
X37184321Y-98004224D01*
X37248986Y-97971896D01*
X37320139Y-97959095D01*
X37392017Y-97966860D01*
X37458796Y-97994560D01*
X37490213Y-98016593D01*
X37566292Y-98079030D01*
X37568315Y-98080111D01*
X37626576Y-98122917D01*
X37670417Y-98180403D01*
X37696286Y-98247912D01*
X37702088Y-98319975D01*
X37687352Y-98390754D01*
X37653273Y-98454513D01*
X37609718Y-98500465D01*
X37571680Y-98531681D01*
X37344747Y-98808201D01*
X37176118Y-99123683D01*
X37072276Y-99466003D01*
X37037214Y-99822000D01*
X37072276Y-100177996D01*
X37176118Y-100520316D01*
X37344747Y-100835798D01*
X37571680Y-101112319D01*
X37848201Y-101339252D01*
X38163683Y-101507881D01*
X38506003Y-101611723D01*
X38772795Y-101638000D01*
X38951205Y-101638000D01*
X39217996Y-101611723D01*
X39560316Y-101507881D01*
X39875798Y-101339252D01*
X39942875Y-101284204D01*
X40004718Y-101246760D01*
X40074606Y-101228256D01*
X40146876Y-101230191D01*
X40215673Y-101252409D01*
X40275425Y-101293109D01*
X40321289Y-101348994D01*
X40349550Y-101415537D01*
X40356788Y-101455649D01*
X40356999Y-101457800D01*
X40463699Y-101809541D01*
X40636970Y-102133708D01*
X40692084Y-102200864D01*
X40729528Y-102262708D01*
X40748031Y-102332596D01*
X40746096Y-102404866D01*
X40723878Y-102473663D01*
X40692084Y-102523136D01*
X40636970Y-102590291D01*
X40463699Y-102914458D01*
X40356999Y-103266199D01*
X40320972Y-103632000D01*
X40356999Y-103997800D01*
X40463699Y-104349541D01*
X40636970Y-104673708D01*
X40692084Y-104740864D01*
X40729528Y-104802708D01*
X40748031Y-104872596D01*
X40746096Y-104944866D01*
X40723878Y-105013663D01*
X40692084Y-105063136D01*
X40636970Y-105130291D01*
X40463699Y-105454458D01*
X40356999Y-105806199D01*
X40320972Y-106172000D01*
X40356999Y-106537800D01*
X40463699Y-106889541D01*
X40636970Y-107213708D01*
X40692084Y-107280864D01*
X40729528Y-107342708D01*
X40748031Y-107412596D01*
X40746096Y-107484866D01*
X40723878Y-107553663D01*
X40692084Y-107603136D01*
X40636970Y-107670291D01*
X40463699Y-107994458D01*
X40356999Y-108346199D01*
X40356893Y-108347285D01*
X40339639Y-108417492D01*
X40303305Y-108479994D01*
X40250834Y-108529728D01*
X40186476Y-108562665D01*
X40115446Y-108576135D01*
X40043498Y-108569049D01*
X39976461Y-108541979D01*
X39963001Y-108533581D01*
X39722198Y-108372681D01*
X39391706Y-108235787D01*
X39040862Y-108166000D01*
X38683138Y-108166000D01*
X38332293Y-108235787D01*
X38001801Y-108372681D01*
X37704367Y-108571420D01*
X37451420Y-108824367D01*
X37252681Y-109121801D01*
X37115787Y-109452293D01*
X37046000Y-109803137D01*
X37046000Y-110160862D01*
X37115787Y-110511706D01*
X37252681Y-110842198D01*
X37347353Y-110983885D01*
X37378555Y-111049102D01*
X37390120Y-111120467D01*
X37381110Y-111192199D01*
X37352255Y-111258487D01*
X37347353Y-111266115D01*
X37252681Y-111407801D01*
X37115787Y-111738293D01*
X37046000Y-112089137D01*
X37046000Y-112446862D01*
X37115787Y-112797706D01*
X37252681Y-113128198D01*
X37451420Y-113425632D01*
X37704367Y-113678579D01*
X38001801Y-113877318D01*
X38332293Y-114014212D01*
X38683138Y-114084000D01*
X39040862Y-114084000D01*
X39391706Y-114014212D01*
X39722198Y-113877318D01*
X39939529Y-113732103D01*
X40004745Y-113700901D01*
X40076110Y-113689336D01*
X40147843Y-113698346D01*
X40214131Y-113727201D01*
X40269605Y-113773562D01*
X40309770Y-113833673D01*
X40331373Y-113902666D01*
X40333421Y-113918400D01*
X40356999Y-114157800D01*
X40463699Y-114509541D01*
X40636970Y-114833708D01*
X40692084Y-114900864D01*
X40729528Y-114962708D01*
X40748031Y-115032596D01*
X40746096Y-115104866D01*
X40723878Y-115173663D01*
X40692084Y-115223136D01*
X40636970Y-115290291D01*
X40463699Y-115614458D01*
X40356999Y-115966199D01*
X40320972Y-116332000D01*
X40356999Y-116697800D01*
X40463699Y-117049541D01*
X40628182Y-117357265D01*
X40652841Y-117425225D01*
X40657355Y-117497380D01*
X40641358Y-117567884D01*
X40606145Y-117631025D01*
X40554570Y-117681688D01*
X40490811Y-117715768D01*
X40420033Y-117730504D01*
X40404174Y-117731000D01*
X35040691Y-117731000D01*
X34969131Y-117720711D01*
X34903368Y-117690678D01*
X34848731Y-117643335D01*
X34809644Y-117582515D01*
X34789276Y-117513148D01*
X34789276Y-117440852D01*
X34809644Y-117371485D01*
X34848731Y-117310665D01*
X34903368Y-117263322D01*
X34920956Y-117252992D01*
X35227708Y-117089029D01*
X35511844Y-116855844D01*
X35745029Y-116571708D01*
X35918300Y-116247541D01*
X36025000Y-115895800D01*
X36061027Y-115530000D01*
X36025000Y-115164199D01*
X35918299Y-114812455D01*
X35866882Y-114716260D01*
X35842223Y-114648300D01*
X35837709Y-114576145D01*
X35853707Y-114505641D01*
X35873785Y-114469636D01*
X35873068Y-114469253D01*
X35979203Y-114270687D01*
X36037299Y-114079171D01*
X36057869Y-113870315D01*
X36054310Y-113709020D01*
X35883290Y-113538000D01*
X34385458Y-113538000D01*
X34326148Y-113555415D01*
X34290000Y-113558000D01*
X33782000Y-113558000D01*
X33710440Y-113547711D01*
X33644677Y-113517678D01*
X33590040Y-113470335D01*
X33586167Y-113464309D01*
X33570040Y-113450335D01*
X33530953Y-113389515D01*
X33510585Y-113320148D01*
X33508000Y-113284000D01*
X33508000Y-112776000D01*
X33518289Y-112704440D01*
X33528000Y-112683175D01*
X33528000Y-111332710D01*
X34544000Y-111332710D01*
X34544000Y-112522000D01*
X35883290Y-112522000D01*
X36054310Y-112350979D01*
X36057869Y-112189684D01*
X36037299Y-111980828D01*
X35979203Y-111789312D01*
X35884861Y-111612810D01*
X35757896Y-111458103D01*
X35603189Y-111331138D01*
X35426687Y-111236796D01*
X35235171Y-111178700D01*
X35025338Y-111158034D01*
X34714214Y-111162495D01*
X34544000Y-111332710D01*
X33528000Y-111332710D01*
X33357785Y-111162495D01*
X33046661Y-111158034D01*
X32836828Y-111178700D01*
X32645312Y-111236796D01*
X32502735Y-111313006D01*
X32434774Y-111337665D01*
X32362620Y-111342179D01*
X32292116Y-111326182D01*
X32228975Y-111290969D01*
X32178312Y-111239394D01*
X32144232Y-111175634D01*
X32129496Y-111104856D01*
X32129000Y-111088998D01*
X32129000Y-106879043D01*
X32139289Y-106807483D01*
X32169322Y-106741720D01*
X32216665Y-106687083D01*
X32277485Y-106647996D01*
X32346852Y-106627628D01*
X32419148Y-106627628D01*
X32488515Y-106647996D01*
X32544136Y-106682698D01*
X32844291Y-106929029D01*
X33168458Y-107102300D01*
X33520199Y-107209000D01*
X33794337Y-107236000D01*
X34277663Y-107236000D01*
X34551800Y-107209000D01*
X34903541Y-107102300D01*
X35227708Y-106929029D01*
X35511844Y-106695844D01*
X35745029Y-106411708D01*
X35918300Y-106087541D01*
X36025000Y-105735800D01*
X36061027Y-105370000D01*
X36025000Y-105004199D01*
X35918299Y-104652455D01*
X35866882Y-104556260D01*
X35842223Y-104488300D01*
X35837709Y-104416145D01*
X35853707Y-104345641D01*
X35873785Y-104309636D01*
X35873068Y-104309253D01*
X35979203Y-104110687D01*
X36037299Y-103919171D01*
X36057869Y-103710315D01*
X36054310Y-103549020D01*
X35883290Y-103378000D01*
X34385458Y-103378000D01*
X34326148Y-103395415D01*
X34290000Y-103398000D01*
X33782000Y-103398000D01*
X33710440Y-103387711D01*
X33644677Y-103357678D01*
X33590040Y-103310335D01*
X33586167Y-103304309D01*
X33570040Y-103290335D01*
X33530953Y-103229515D01*
X33510585Y-103160148D01*
X33508000Y-103124000D01*
X33508000Y-102616000D01*
X33518289Y-102544440D01*
X33528000Y-102523175D01*
X33528000Y-101172710D01*
X34544000Y-101172710D01*
X34544000Y-102362000D01*
X35883290Y-102362000D01*
X36054310Y-102190979D01*
X36057869Y-102029684D01*
X36037299Y-101820828D01*
X35979203Y-101629312D01*
X35884861Y-101452810D01*
X35757896Y-101298103D01*
X35603189Y-101171138D01*
X35426687Y-101076796D01*
X35235171Y-101018700D01*
X35025338Y-100998034D01*
X34714214Y-101002495D01*
X34544000Y-101172710D01*
X33528000Y-101172710D01*
X33357785Y-101002495D01*
X33046661Y-100998034D01*
X32836828Y-101018700D01*
X32645312Y-101076796D01*
X32502735Y-101153006D01*
X32434774Y-101177665D01*
X32362620Y-101182179D01*
X32292116Y-101166182D01*
X32228975Y-101130969D01*
X32178312Y-101079394D01*
X32144232Y-101015634D01*
X32129496Y-100944856D01*
X32129000Y-100928998D01*
X32129000Y-98607658D01*
X32139289Y-98536098D01*
X32169322Y-98470335D01*
X32216665Y-98415698D01*
X32277485Y-98376611D01*
X32346852Y-98356243D01*
X32419148Y-98356243D01*
X32456731Y-98364595D01*
X32478827Y-98371297D01*
X32690480Y-98392144D01*
X34365520Y-98392144D01*
X34577170Y-98371298D01*
X34768689Y-98313201D01*
X34945191Y-98218859D01*
X34955329Y-98210540D01*
X35017173Y-98173096D01*
X35087061Y-98154593D01*
X35159331Y-98156530D01*
X35217720Y-98173942D01*
X35443017Y-98271875D01*
X35560000Y-98180561D01*
X35560000Y-96869458D01*
X35542585Y-96810148D01*
X35540000Y-96774000D01*
X35540000Y-96266000D01*
X35550289Y-96194440D01*
X35560000Y-96173175D01*
X35560000Y-93821458D01*
X35542585Y-93762148D01*
X35540000Y-93726000D01*
X35540000Y-93218000D01*
X35550289Y-93146440D01*
X35560000Y-93125175D01*
X35560000Y-91811438D01*
X35443017Y-91720124D01*
X35217720Y-91818058D01*
X35147991Y-91837150D01*
X35075707Y-91835823D01*
X35006725Y-91814185D01*
X34955329Y-91781460D01*
X34945191Y-91773140D01*
X34768689Y-91678798D01*
X34577170Y-91620701D01*
X34365520Y-91599856D01*
X32690480Y-91599856D01*
X32478827Y-91620702D01*
X32456731Y-91627405D01*
X32385266Y-91638332D01*
X32313617Y-91628682D01*
X32247589Y-91599237D01*
X32192531Y-91552383D01*
X32152904Y-91491914D01*
X32131918Y-91422732D01*
X32129000Y-91384342D01*
X32129000Y-88461827D01*
X32139289Y-88390267D01*
X32169322Y-88324504D01*
X32203395Y-88282222D01*
X32470861Y-88014757D01*
X32528737Y-87971431D01*
X32596475Y-87946167D01*
X32668587Y-87941009D01*
X32739230Y-87956377D01*
X32802683Y-87991025D01*
X32846810Y-88033226D01*
X32972103Y-88185896D01*
X33126809Y-88312859D01*
X33303310Y-88407201D01*
X33494829Y-88465298D01*
X33706480Y-88486144D01*
X35381520Y-88486144D01*
X35593170Y-88465298D01*
X35784689Y-88407201D01*
X35961190Y-88312859D01*
X35965168Y-88309596D01*
X36027012Y-88272153D01*
X36096900Y-88253649D01*
X36169170Y-88255586D01*
X36237967Y-88277804D01*
X36246036Y-88281934D01*
X36366455Y-88346299D01*
X36718199Y-88453000D01*
X36992337Y-88480000D01*
X37175663Y-88480000D01*
X37449800Y-88453000D01*
X37801541Y-88346300D01*
X38125708Y-88173029D01*
X38201787Y-88110593D01*
X38263631Y-88073150D01*
X38333519Y-88054646D01*
X38405789Y-88056581D01*
X38474586Y-88078799D01*
X38507679Y-88098224D01*
X38716556Y-88243093D01*
X38999017Y-88365875D01*
X39116000Y-88274561D01*
X40132000Y-88274561D01*
X40248982Y-88365875D01*
X40531440Y-88243094D01*
X40831828Y-88034756D01*
X41085793Y-87771824D01*
X41283588Y-87464392D01*
X41373893Y-87235210D01*
X41286466Y-87122000D01*
X40132000Y-87122000D01*
X40132000Y-88274561D01*
X39116000Y-88274561D01*
X39116000Y-86963458D01*
X39098585Y-86904148D01*
X39096000Y-86868000D01*
X39096000Y-86360000D01*
X39106289Y-86288440D01*
X39136322Y-86222677D01*
X39183665Y-86168040D01*
X39189690Y-86164167D01*
X39203665Y-86148040D01*
X39264485Y-86108953D01*
X39333852Y-86088585D01*
X39370000Y-86086000D01*
X39878000Y-86086000D01*
X39949560Y-86096289D01*
X39970824Y-86106000D01*
X41286466Y-86106000D01*
X41373893Y-85992789D01*
X41283588Y-85763607D01*
X41085793Y-85456175D01*
X40831828Y-85193243D01*
X40531440Y-84984905D01*
X40197955Y-84839944D01*
X40136428Y-84801981D01*
X40088090Y-84748221D01*
X40056855Y-84683021D01*
X40045255Y-84611662D01*
X40054228Y-84539925D01*
X40083049Y-84473622D01*
X40129382Y-84418125D01*
X40189474Y-84377929D01*
X40258456Y-84356291D01*
X40299212Y-84353000D01*
X49810398Y-84353000D01*
X49881958Y-84363289D01*
G37*
G04 #@! TD.AperFunction*
G04 #@! TA.AperFunction,Conductor*
G36*
X72715560Y-108354289D02*
G01*
X72781323Y-108384322D01*
X72835960Y-108431665D01*
X72839832Y-108437690D01*
X72855960Y-108451665D01*
X72895047Y-108512485D01*
X72915415Y-108581852D01*
X72918000Y-108618000D01*
X72918000Y-109126000D01*
X72907711Y-109197560D01*
X72877678Y-109263323D01*
X72830335Y-109317960D01*
X72824309Y-109321832D01*
X72810335Y-109337960D01*
X72749515Y-109377047D01*
X72680148Y-109397415D01*
X72644000Y-109400000D01*
X72136000Y-109400000D01*
X72064440Y-109389711D01*
X71998677Y-109359678D01*
X71944040Y-109312335D01*
X71940167Y-109306309D01*
X71924040Y-109292335D01*
X71884953Y-109231515D01*
X71864585Y-109162148D01*
X71862000Y-109126000D01*
X71862000Y-108618000D01*
X71872289Y-108546440D01*
X71902322Y-108480677D01*
X71949665Y-108426040D01*
X71955690Y-108422167D01*
X71969665Y-108406040D01*
X72030485Y-108366953D01*
X72099852Y-108346585D01*
X72136000Y-108344000D01*
X72644000Y-108344000D01*
X72715560Y-108354289D01*
G37*
G04 #@! TD.AperFunction*
M02*
